AnekTelugu-Thin.ufo
<glyph name="z" format="2">
  <advance width="870"/>
  <unicode hex="007A"/>
  <anchor x="435" y="0" name="bottom"/>
  <anchor x="436" y="486" name="center"/>
  <anchor x="435" y="971" name="top"/>
  <outline>
    <contour>
      <point x="772" y="33" type="line"/>
      <point x="142" y="33" type="line"/>
      <point x="769" y="941" type="line"/>
      <point x="769" y="971" type="line"/>
      <point x="99" y="971" type="line"/>
      <point x="99" y="939" type="line"/>
      <point x="724" y="939" type="line"/>
      <point x="97" y="31" type="line"/>
      <point x="97" y="0" type="line"/>
      <point x="772" y="0" type="line"/>
    </contour>
  </outline>
</glyph>
<glyph name="yen" format="2">
  <advance width="1081"/>
  <unicode hex="00A5"/>
  <anchor x="537" y="0" name="bottom"/>
  <anchor x="537" y="1278" name="top"/>
  <anchor x="43" y="1278" name="topleft"/>
  <outline>
    <contour>
      <point x="638" y="611" type="line"/>
      <point x="943" y="611" type="line"/>
      <point x="950" y="644" type="line"/>
      <point x="655" y="644" type="line"/>
    </contour>
    <contour>
      <point x="139" y="322" type="line"/>
      <point x="132" y="289" type="line"/>
      <point x="943" y="289" type="line"/>
      <point x="950" y="322" type="line"/>
    </contour>
    <contour>
      <point x="422" y="644" type="line"/>
      <point x="139" y="644" type="line"/>
      <point x="132" y="611" type="line"/>
      <point x="440" y="611" type="line"/>
    </contour>
    <component base="Y" xOffset="17"/>
  </outline>
</glyph>
<glyph name="Candrabindu_above.te" format="2">
  <advance width="32"/>
  <unicode hex="0C00"/>
  <outline>
    <contour>
      <point x="-527" y="1308" type="curve" smooth="yes"/>
      <point x="-338" y="1308"/>
      <point x="-257" y="1391"/>
      <point x="-257" y="1510" type="curve" smooth="yes"/>
      <point x="-257" y="1512" type="line"/>
      <point x="-294" y="1512" type="line"/>
      <point x="-296" y="1407"/>
      <point x="-355" y="1342"/>
      <point x="-527" y="1342" type="curve" smooth="yes"/>
      <point x="-699" y="1342"/>
      <point x="-757" y="1407"/>
      <point x="-759" y="1512" type="curve"/>
      <point x="-796" y="1512" type="line"/>
      <point x="-796" y="1510" type="line" smooth="yes"/>
      <point x="-796" y="1391"/>
      <point x="-716" y="1308"/>
    </contour>
    <contour>
      <point x="-527" y="1456" type="curve" smooth="yes"/>
      <point x="-500" y="1456"/>
      <point x="-485" y="1473"/>
      <point x="-485" y="1513" type="curve" smooth="yes"/>
      <point x="-485" y="1553"/>
      <point x="-500" y="1568"/>
      <point x="-527" y="1568" type="curve" smooth="yes"/>
      <point x="-554" y="1568"/>
      <point x="-568" y="1553"/>
      <point x="-568" y="1513" type="curve" smooth="yes"/>
      <point x="-568" y="1473"/>
      <point x="-554" y="1456"/>
    </contour>
  </outline>
</glyph>
<glyph name="Candrabindu.te" format="2">
  <advance width="712"/>
  <unicode hex="0C01"/>
  <outline>
    <contour>
      <point x="610" y="-19" type="curve"/>
      <point x="614" y="-19" type="line"/>
      <point x="620" y="16" type="line"/>
      <point x="610" y="16" type="line" smooth="yes"/>
      <point x="331" y="16"/>
      <point x="187" y="172"/>
      <point x="187" y="477" type="curve" smooth="yes"/>
      <point x="187" y="670" type="line" smooth="yes"/>
      <point x="187" y="975"/>
      <point x="331" y="1131"/>
      <point x="610" y="1131" type="curve" smooth="yes"/>
      <point x="620" y="1131" type="line"/>
      <point x="614" y="1166" type="line"/>
      <point x="610" y="1166" type="line"/>
      <point x="306" y="1166"/>
      <point x="149" y="996"/>
      <point x="149" y="670" type="curve" smooth="yes"/>
      <point x="149" y="477" type="line" smooth="yes"/>
      <point x="149" y="151"/>
      <point x="307" y="-19"/>
    </contour>
  </outline>
</glyph>
<glyph name="Anuswara.te" format="2">
  <advance width="1228"/>
  <unicode hex="0C02"/>
  <outline>
    <contour>
      <point x="615" y="-19" type="curve" smooth="yes"/>
      <point x="918" y="-19"/>
      <point x="1075" y="151"/>
      <point x="1075" y="477" type="curve" smooth="yes"/>
      <point x="1075" y="670" type="line" smooth="yes"/>
      <point x="1075" y="996"/>
      <point x="919" y="1166"/>
      <point x="615" y="1166" type="curve" smooth="yes"/>
      <point x="311" y="1166"/>
      <point x="154" y="996"/>
      <point x="154" y="670" type="curve" smooth="yes"/>
      <point x="154" y="477" type="line" smooth="yes"/>
      <point x="154" y="151"/>
      <point x="312" y="-19"/>
    </contour>
    <contour>
      <point x="615" y="16" type="curve" smooth="yes"/>
      <point x="336" y="16"/>
      <point x="192" y="172"/>
      <point x="192" y="477" type="curve" smooth="yes"/>
      <point x="192" y="670" type="line" smooth="yes"/>
      <point x="192" y="975"/>
      <point x="336" y="1131"/>
      <point x="615" y="1131" type="curve" smooth="yes"/>
      <point x="894" y="1131"/>
      <point x="1037" y="975"/>
      <point x="1037" y="670" type="curve" smooth="yes"/>
      <point x="1037" y="477" type="line" smooth="yes"/>
      <point x="1037" y="172"/>
      <point x="893" y="16"/>
    </contour>
  </outline>
</glyph>
<glyph name="Visarga.te" format="2">
  <advance width="791"/>
  <unicode hex="0C03"/>
  <outline>
    <contour>
      <point x="396" y="631" type="curve" smooth="yes"/>
      <point x="560" y="631"/>
      <point x="651" y="717"/>
      <point x="651" y="879" type="curve" smooth="yes"/>
      <point x="651" y="914" type="line" smooth="yes"/>
      <point x="651" y="1075"/>
      <point x="560" y="1161"/>
      <point x="396" y="1161" type="curve" smooth="yes"/>
      <point x="231" y="1161"/>
      <point x="140" y="1075"/>
      <point x="140" y="914" type="curve" smooth="yes"/>
      <point x="140" y="879" type="line" smooth="yes"/>
      <point x="140" y="717"/>
      <point x="231" y="631"/>
    </contour>
    <contour>
      <point x="396" y="-19" type="curve" smooth="yes"/>
      <point x="560" y="-19"/>
      <point x="651" y="67"/>
      <point x="651" y="229" type="curve" smooth="yes"/>
      <point x="651" y="264" type="line" smooth="yes"/>
      <point x="651" y="425"/>
      <point x="560" y="511"/>
      <point x="396" y="511" type="curve" smooth="yes"/>
      <point x="231" y="511"/>
      <point x="140" y="425"/>
      <point x="140" y="264" type="curve" smooth="yes"/>
      <point x="140" y="229" type="line" smooth="yes"/>
      <point x="140" y="67"/>
      <point x="231" y="-19"/>
    </contour>
    <contour>
      <point x="396" y="16" type="curve" smooth="yes"/>
      <point x="252" y="16"/>
      <point x="178" y="86"/>
      <point x="178" y="229" type="curve" smooth="yes"/>
      <point x="178" y="264" type="line" smooth="yes"/>
      <point x="178" y="406"/>
      <point x="252" y="477"/>
      <point x="396" y="477" type="curve" smooth="yes"/>
      <point x="539" y="477"/>
      <point x="613" y="406"/>
      <point x="613" y="264" type="curve" smooth="yes"/>
      <point x="613" y="229" type="line" smooth="yes"/>
      <point x="613" y="86"/>
      <point x="539" y="16"/>
    </contour>
    <contour>
      <point x="396" y="666" type="curve" smooth="yes"/>
      <point x="252" y="666"/>
      <point x="178" y="736"/>
      <point x="178" y="879" type="curve" smooth="yes"/>
      <point x="178" y="914" type="line" smooth="yes"/>
      <point x="178" y="1056"/>
      <point x="252" y="1127"/>
      <point x="396" y="1127" type="curve" smooth="yes"/>
      <point x="539" y="1127"/>
      <point x="613" y="1056"/>
      <point x="613" y="914" type="curve" smooth="yes"/>
      <point x="613" y="879" type="line" smooth="yes"/>
      <point x="613" y="736"/>
      <point x="539" y="666"/>
    </contour>
  </outline>
</glyph>
<glyph name="vowelA.te" format="2">
  <advance width="1504"/>
  <unicode hex="0C05"/>
  <outline>
    <contour>
      <point x="1039" y="1166" type="curve" smooth="yes"/>
      <point x="849" y="1166"/>
      <point x="754" y="1057"/>
      <point x="754" y="871" type="curve" smooth="yes"/>
      <point x="754" y="859" type="line" smooth="yes"/>
      <point x="754" y="717"/>
      <point x="810" y="628"/>
      <point x="904" y="585" type="curve"/>
      <point x="904" y="582" type="line"/>
      <point x="458" y="582" type="line"/>
      <point x="464" y="547" type="line"/>
      <point x="1013" y="551" type="line"/>
      <point x="1013" y="581" type="line"/>
      <point x="953" y="586" type="line"/>
      <point x="838" y="640"/>
      <point x="792" y="724"/>
      <point x="792" y="858" type="curve" smooth="yes"/>
      <point x="792" y="870" type="line" smooth="yes"/>
      <point x="792" y="1037"/>
      <point x="874" y="1131"/>
      <point x="1039" y="1131" type="curve" smooth="yes"/>
      <point x="1219" y="1131"/>
      <point x="1312" y="1003"/>
      <point x="1312" y="752" type="curve" smooth="yes"/>
      <point x="1312" y="545" type="line" smooth="yes"/>
      <point x="1312" y="192"/>
      <point x="1124" y="16"/>
      <point x="752" y="16" type="curve" smooth="yes"/>
      <point x="379" y="16"/>
      <point x="192" y="192"/>
      <point x="192" y="545" type="curve" smooth="yes"/>
      <point x="192" y="698" type="line" smooth="yes"/>
      <point x="192" y="975"/>
      <point x="317" y="1120"/>
      <point x="546" y="1120" type="curve" smooth="yes"/>
      <point x="553" y="1120" type="line"/>
      <point x="548" y="1155" type="line"/>
      <point x="538" y="1155" type="line" smooth="yes"/>
      <point x="292" y="1155"/>
      <point x="154" y="994"/>
      <point x="154" y="699" type="curve" smooth="yes"/>
      <point x="154" y="544" type="line" smooth="yes"/>
      <point x="154" y="175"/>
      <point x="352" y="-19"/>
      <point x="752" y="-19" type="curve" smooth="yes"/>
      <point x="1151" y="-19"/>
      <point x="1350" y="175"/>
      <point x="1350" y="544" type="curve" smooth="yes"/>
      <point x="1350" y="753" type="line" smooth="yes"/>
      <point x="1350" y="1023"/>
      <point x="1243" y="1166"/>
    </contour>
  </outline>
</glyph>
<glyph name="vowelAa.te" format="2">
  <advance width="1500"/>
  <unicode hex="0C06"/>
  <outline>
    <contour>
      <point x="752" y="-19" type="curve" smooth="yes"/>
      <point x="1152" y="-19"/>
      <point x="1350" y="171"/>
      <point x="1350" y="546" type="curve" smooth="yes"/>
      <point x="1350" y="582" type="line"/>
      <point x="1157" y="582" type="line"/>
      <point x="1157" y="585" type="line"/>
      <point x="1251" y="628"/>
      <point x="1307" y="717"/>
      <point x="1307" y="858" type="curve" smooth="yes"/>
      <point x="1307" y="872" type="line" smooth="yes"/>
      <point x="1307" y="1056"/>
      <point x="1209" y="1166"/>
      <point x="1012" y="1166" type="curve" smooth="yes"/>
      <point x="815" y="1166"/>
      <point x="717" y="1056"/>
      <point x="717" y="872" type="curve" smooth="yes"/>
      <point x="717" y="858" type="line" smooth="yes"/>
      <point x="717" y="717"/>
      <point x="773" y="628"/>
      <point x="867" y="585" type="curve"/>
      <point x="867" y="582" type="line"/>
      <point x="458" y="582" type="line"/>
      <point x="464" y="547" type="line"/>
      <point x="1312" y="550" type="line"/>
      <point x="1312" y="545" type="line" smooth="yes"/>
      <point x="1312" y="190"/>
      <point x="1125" y="16"/>
      <point x="752" y="16" type="curve" smooth="yes"/>
      <point x="379" y="16"/>
      <point x="192" y="192"/>
      <point x="192" y="545" type="curve" smooth="yes"/>
      <point x="192" y="698" type="line" smooth="yes"/>
      <point x="192" y="975"/>
      <point x="317" y="1120"/>
      <point x="546" y="1120" type="curve" smooth="yes"/>
      <point x="553" y="1120" type="line"/>
      <point x="548" y="1155" type="line"/>
      <point x="538" y="1155" type="line" smooth="yes"/>
      <point x="292" y="1155"/>
      <point x="154" y="994"/>
      <point x="154" y="699" type="curve" smooth="yes"/>
      <point x="154" y="544" type="line" smooth="yes"/>
      <point x="154" y="173"/>
      <point x="352" y="-19"/>
    </contour>
    <contour>
      <point x="923" y="583" type="line"/>
      <point x="801" y="640"/>
      <point x="755" y="724"/>
      <point x="755" y="857" type="curve" smooth="yes"/>
      <point x="755" y="871" type="line" smooth="yes"/>
      <point x="755" y="1038"/>
      <point x="841" y="1132"/>
      <point x="1012" y="1132" type="curve" smooth="yes"/>
      <point x="1183" y="1132"/>
      <point x="1269" y="1038"/>
      <point x="1269" y="871" type="curve" smooth="yes"/>
      <point x="1269" y="857" type="line" smooth="yes"/>
      <point x="1269" y="724"/>
      <point x="1223" y="640"/>
      <point x="1101" y="583" type="curve"/>
    </contour>
  </outline>
</glyph>
<glyph name="vowelI.te" format="2">
  <advance width="1396"/>
  <unicode hex="0C07"/>
  <outline>
    <contour>
      <point x="661" y="-16" type="curve" smooth="yes"/>
      <point x="1024" y="-16"/>
      <point x="1241" y="191"/>
      <point x="1241" y="619" type="curve" smooth="yes"/>
      <point x="1241" y="788" type="line" smooth="yes"/>
      <point x="1241" y="1037"/>
      <point x="1138" y="1166"/>
      <point x="945" y="1166" type="curve" smooth="yes"/>
      <point x="773" y="1166"/>
      <point x="689" y="1068"/>
      <point x="679" y="929" type="curve"/>
      <point x="676" y="929" type="line"/>
      <point x="666" y="1068"/>
      <point x="586" y="1166"/>
      <point x="410" y="1166" type="curve" smooth="yes"/>
      <point x="230" y="1166"/>
      <point x="134" y="1064"/>
      <point x="134" y="868" type="curve" smooth="yes"/>
      <point x="134" y="860" type="line" smooth="yes"/>
      <point x="134" y="793"/>
      <point x="142" y="727"/>
      <point x="160" y="674" type="curve"/>
      <point x="199" y="674" type="line"/>
      <point x="181" y="728"/>
      <point x="172" y="796"/>
      <point x="172" y="860" type="curve" smooth="yes"/>
      <point x="172" y="866" type="line" smooth="yes"/>
      <point x="172" y="1041"/>
      <point x="251" y="1131"/>
      <point x="412" y="1131" type="curve" smooth="yes"/>
      <point x="580" y="1131"/>
      <point x="654" y="1033"/>
      <point x="656" y="864" type="curve" smooth="yes"/>
      <point x="658" y="727" type="line"/>
      <point x="697" y="727" type="line"/>
      <point x="699" y="864" type="line" smooth="yes"/>
      <point x="701" y="1033"/>
      <point x="779" y="1131"/>
      <point x="944" y="1131" type="curve" smooth="yes"/>
      <point x="1117" y="1131"/>
      <point x="1203" y="1013"/>
      <point x="1203" y="787" type="curve" smooth="yes"/>
      <point x="1203" y="619" type="line" smooth="yes"/>
      <point x="1203" y="464"/>
      <point x="1176" y="346"/>
      <point x="1126" y="257" type="curve"/>
      <point x="1122" y="247" type="line"/>
      <point x="1032" y="99"/>
      <point x="876" y="19"/>
      <point x="661" y="19" type="curve" smooth="yes"/>
      <point x="401" y="19"/>
      <point x="262" y="97"/>
      <point x="262" y="251" type="curve" smooth="yes"/>
      <point x="262" y="260" type="line" smooth="yes"/>
      <point x="262" y="415"/>
      <point x="395" y="493"/>
      <point x="637" y="493" type="curve" smooth="yes"/>
      <point x="859" y="493"/>
      <point x="1026" y="414"/>
      <point x="1123" y="223" type="curve"/>
      <point x="1129" y="210" type="line"/>
      <point x="1167" y="129"/>
      <point x="1192" y="34"/>
      <point x="1205" y="-74" type="curve"/>
      <point x="1242" y="-74" type="line"/>
      <point x="1223" y="55"/>
      <point x="1196" y="153"/>
      <point x="1150" y="243" type="curve"/>
      <point x="1144" y="255" type="line"/>
      <point x="1047" y="445"/>
      <point x="875" y="528"/>
      <point x="637" y="528" type="curve" smooth="yes"/>
      <point x="370" y="528"/>
      <point x="224" y="437"/>
      <point x="224" y="260" type="curve" smooth="yes"/>
      <point x="224" y="251" type="line" smooth="yes"/>
      <point x="224" y="78"/>
      <point x="375" y="-16"/>
    </contour>
  </outline>
</glyph>
<glyph name="vowelIi.te" format="2">
  <advance width="1983"/>
  <unicode hex="0C08"/>
  <outline>
    <contour>
      <point x="1560" y="-19" type="curve" smooth="yes"/>
      <point x="1737" y="-19"/>
      <point x="1829" y="80"/>
      <point x="1829" y="261" type="curve" smooth="yes"/>
      <point x="1829" y="293" type="line" smooth="yes"/>
      <point x="1829" y="437"/>
      <point x="1788" y="530"/>
      <point x="1647" y="594" type="curve" smooth="yes"/>
      <point x="1642" y="597"/>
      <point x="1631" y="605"/>
      <point x="1623" y="606" type="curve"/>
      <point x="1069" y="606" type="line"/>
      <point x="1061" y="606" type="line"/>
      <point x="210" y="606" type="line"/>
      <point x="203" y="606" type="line"/>
      <point x="70" y="606" type="line"/>
      <point x="70" y="572" type="line"/>
      <point x="203" y="572" type="line"/>
      <point x="209" y="572" type="line"/>
      <point x="1061" y="572" type="line"/>
      <point x="1070" y="572" type="line"/>
      <point x="1434" y="572" type="line"/>
      <point x="1332" y="512"/>
      <point x="1290" y="434"/>
      <point x="1290" y="293" type="curve" smooth="yes"/>
      <point x="1290" y="261" type="line" smooth="yes"/>
      <point x="1290" y="77"/>
      <point x="1384" y="-19"/>
    </contour>
    <contour>
      <point x="638" y="-19" type="curve" smooth="yes"/>
      <point x="931" y="-19"/>
      <point x="1086" y="143"/>
      <point x="1086" y="448" type="curve" smooth="yes"/>
      <point x="1086" y="691" type="line" smooth="yes"/>
      <point x="1086" y="995"/>
      <point x="931" y="1155"/>
      <point x="638" y="1155" type="curve" smooth="yes"/>
      <point x="344" y="1155"/>
      <point x="190" y="995"/>
      <point x="190" y="691" type="curve" smooth="yes"/>
      <point x="190" y="448" type="line" smooth="yes"/>
      <point x="190" y="143"/>
      <point x="344" y="-19"/>
    </contour>
    <contour>
      <point x="638" y="16" type="curve" smooth="yes"/>
      <point x="370" y="16"/>
      <point x="228" y="163"/>
      <point x="228" y="448" type="curve" smooth="yes"/>
      <point x="228" y="690" type="line" smooth="yes"/>
      <point x="228" y="975"/>
      <point x="370" y="1123"/>
      <point x="638" y="1123" type="curve" smooth="yes"/>
      <point x="906" y="1123"/>
      <point x="1048" y="975"/>
      <point x="1048" y="690" type="curve" smooth="yes"/>
      <point x="1048" y="448" type="line" smooth="yes"/>
      <point x="1048" y="163"/>
      <point x="906" y="16"/>
    </contour>
    <contour>
      <point x="1560" y="16" type="curve" smooth="yes"/>
      <point x="1406" y="16"/>
      <point x="1328" y="99"/>
      <point x="1328" y="263" type="curve" smooth="yes"/>
      <point x="1328" y="291" type="line" smooth="yes"/>
      <point x="1328" y="434"/>
      <point x="1372" y="512"/>
      <point x="1494" y="572" type="curve"/>
      <point x="1625" y="572" type="line"/>
      <point x="1748" y="511"/>
      <point x="1791" y="434"/>
      <point x="1791" y="291" type="curve" smooth="yes"/>
      <point x="1791" y="263" type="line" smooth="yes"/>
      <point x="1791" y="99"/>
      <point x="1713" y="16"/>
    </contour>
    <contour>
      <point x="625" y="1132" type="curve"/>
      <point x="634" y="1132" type="line"/>
      <point x="752" y="1132"/>
      <point x="814" y="1178"/>
      <point x="879" y="1266" type="curve" smooth="yes"/>
      <point x="1030" y="1469" type="line" smooth="yes"/>
      <point x="1087" y="1546"/>
      <point x="1138" y="1559"/>
      <point x="1204" y="1559" type="curve" smooth="yes"/>
      <point x="1229" y="1559" type="line"/>
      <point x="1226" y="1594" type="line"/>
      <point x="1202" y="1594" type="line" smooth="yes"/>
      <point x="1117" y="1594"/>
      <point x="1062" y="1572"/>
      <point x="1001" y="1490" type="curve" smooth="yes"/>
      <point x="845" y="1280" type="line" smooth="yes"/>
      <point x="784" y="1198"/>
      <point x="721" y="1157"/>
      <point x="634" y="1157" type="curve"/>
      <point x="625" y="1157" type="line"/>
      <point x="532" y="1157"/>
      <point x="469" y="1201"/>
      <point x="424" y="1286" type="curve" smooth="yes"/>
      <point x="360" y="1406" type="line"/>
      <point x="317" y="1406" type="line"/>
      <point x="395" y="1270" type="line" smooth="yes"/>
      <point x="451" y="1173"/>
      <point x="510" y="1132"/>
    </contour>
    <contour>
      <point x="1644" y="586" type="line"/>
      <point x="1768" y="640"/>
      <point x="1827" y="718"/>
      <point x="1827" y="870" type="curve" smooth="yes"/>
      <point x="1827" y="891" type="line" smooth="yes"/>
      <point x="1827" y="1066"/>
      <point x="1741" y="1157"/>
      <point x="1576" y="1157" type="curve" smooth="yes"/>
      <point x="1472" y="1157"/>
      <point x="1393" y="1120"/>
      <point x="1338" y="1080" type="curve"/>
      <point x="1332" y="1028" type="line"/>
      <point x="1396" y="1083"/>
      <point x="1479" y="1122"/>
      <point x="1577" y="1122" type="curve" smooth="yes"/>
      <point x="1717" y="1122"/>
      <point x="1789" y="1044"/>
      <point x="1789" y="890" type="curve" smooth="yes"/>
      <point x="1789" y="870" type="line" smooth="yes"/>
      <point x="1789" y="736"/>
      <point x="1740" y="659"/>
      <point x="1615" y="604" type="curve"/>
    </contour>
  </outline>
</glyph>
<glyph name="vowelU.te" format="2">
  <advance width="1522"/>
  <unicode hex="0C09"/>
  <outline>
    <contour>
      <point x="491" y="-17" type="curve" smooth="yes"/>
      <point x="663" y="-17"/>
      <point x="751" y="88"/>
      <point x="761" y="244" type="curve"/>
      <point x="764" y="244" type="line"/>
      <point x="774" y="88"/>
      <point x="869" y="-17"/>
      <point x="1056" y="-17" type="curve" smooth="yes"/>
      <point x="1239" y="-17"/>
      <point x="1338" y="90"/>
      <point x="1338" y="292" type="curve" smooth="yes"/>
      <point x="1338" y="319" type="line" smooth="yes"/>
      <point x="1338" y="430"/>
      <point x="1314" y="509"/>
      <point x="1266" y="584" type="curve"/>
      <point x="1225" y="584" type="line"/>
      <point x="1280" y="503"/>
      <point x="1300" y="420"/>
      <point x="1300" y="319" type="curve" smooth="yes"/>
      <point x="1300" y="295" type="line" smooth="yes"/>
      <point x="1300" y="114"/>
      <point x="1219" y="18"/>
      <point x="1054" y="18" type="curve" smooth="yes"/>
      <point x="884" y="18"/>
      <point x="789" y="115"/>
      <point x="784" y="308" type="curve" smooth="yes"/>
      <point x="781" y="434" type="line"/>
      <point x="744" y="434" type="line"/>
      <point x="741" y="308" type="line" smooth="yes"/>
      <point x="736" y="115"/>
      <point x="647" y="18"/>
      <point x="493" y="18" type="curve" smooth="yes"/>
      <point x="315" y="18"/>
      <point x="228" y="136"/>
      <point x="228" y="367" type="curve" smooth="yes"/>
      <point x="228" y="580" type="line" smooth="yes"/>
      <point x="228" y="944"/>
      <point x="403" y="1123"/>
      <point x="763" y="1123" type="curve" smooth="yes"/>
      <point x="967" y="1123"/>
      <point x="1113" y="1062"/>
      <point x="1204" y="994" type="curve"/>
      <point x="1202" y="1037" type="line"/>
      <point x="1113" y="1101"/>
      <point x="965" y="1157"/>
      <point x="763" y="1157" type="curve" smooth="yes"/>
      <point x="379" y="1157"/>
      <point x="190" y="966"/>
      <point x="190" y="580" type="curve" smooth="yes"/>
      <point x="190" y="365" type="line" smooth="yes"/>
      <point x="190" y="112"/>
      <point x="294" y="-17"/>
    </contour>
    <contour>
      <point x="70" y="572" type="line"/>
      <point x="1430" y="572" type="line"/>
      <point x="1430" y="606" type="line"/>
      <point x="70" y="606" type="line"/>
    </contour>
    <contour>
      <point x="751" y="1134" type="curve"/>
      <point x="776" y="1134" type="line"/>
      <point x="785" y="1230"/>
      <point x="792" y="1298"/>
      <point x="792" y="1357" type="curve" smooth="yes"/>
      <point x="792" y="1405"/>
      <point x="784" y="1442"/>
      <point x="780" y="1455" type="curve"/>
      <point x="747" y="1455" type="line"/>
      <point x="742" y="1442"/>
      <point x="734" y="1405"/>
      <point x="734" y="1357" type="curve" smooth="yes"/>
      <point x="734" y="1299"/>
      <point x="742" y="1230"/>
    </contour>
  </outline>
</glyph>
<glyph name="vowelUu.te" format="2">
  <advance width="2247"/>
  <unicode hex="0C0A"/>
  <outline>
    <contour>
      <point x="1824" y="-19" type="curve" smooth="yes"/>
      <point x="2001" y="-19"/>
      <point x="2093" y="77"/>
      <point x="2093" y="261" type="curve" smooth="yes"/>
      <point x="2093" y="293" type="line" smooth="yes"/>
      <point x="2093" y="437"/>
      <point x="2052" y="530"/>
      <point x="1911" y="594" type="curve" smooth="yes"/>
      <point x="1906" y="596"/>
      <point x="1895" y="605"/>
      <point x="1887" y="606" type="curve"/>
      <point x="70" y="606" type="line"/>
      <point x="70" y="572" type="line"/>
      <point x="1698" y="572" type="line"/>
      <point x="1596" y="512"/>
      <point x="1554" y="434"/>
      <point x="1554" y="293" type="curve" smooth="yes"/>
      <point x="1554" y="261" type="line" smooth="yes"/>
      <point x="1554" y="77"/>
      <point x="1647" y="-19"/>
    </contour>
    <contour>
      <point x="491" y="-17" type="curve" smooth="yes"/>
      <point x="663" y="-17"/>
      <point x="751" y="88"/>
      <point x="761" y="244" type="curve"/>
      <point x="764" y="244" type="line"/>
      <point x="774" y="89"/>
      <point x="868" y="-17"/>
      <point x="1056" y="-17" type="curve" smooth="yes"/>
      <point x="1239" y="-17"/>
      <point x="1338" y="92"/>
      <point x="1338" y="292" type="curve" smooth="yes"/>
      <point x="1338" y="319" type="line" smooth="yes"/>
      <point x="1338" y="430"/>
      <point x="1314" y="509"/>
      <point x="1266" y="584" type="curve"/>
      <point x="1225" y="584" type="line"/>
      <point x="1280" y="503"/>
      <point x="1300" y="420"/>
      <point x="1300" y="319" type="curve" smooth="yes"/>
      <point x="1300" y="295" type="line" smooth="yes"/>
      <point x="1300" y="115"/>
      <point x="1219" y="18"/>
      <point x="1054" y="18" type="curve" smooth="yes"/>
      <point x="884" y="18"/>
      <point x="789" y="115"/>
      <point x="784" y="308" type="curve" smooth="yes"/>
      <point x="781" y="434" type="line"/>
      <point x="744" y="434" type="line"/>
      <point x="741" y="308" type="line" smooth="yes"/>
      <point x="736" y="115"/>
      <point x="647" y="18"/>
      <point x="493" y="18" type="curve" smooth="yes"/>
      <point x="315" y="18"/>
      <point x="228" y="136"/>
      <point x="228" y="367" type="curve" smooth="yes"/>
      <point x="228" y="580" type="line" smooth="yes"/>
      <point x="228" y="944"/>
      <point x="403" y="1123"/>
      <point x="763" y="1123" type="curve" smooth="yes"/>
      <point x="967" y="1123"/>
      <point x="1113" y="1062"/>
      <point x="1204" y="994" type="curve"/>
      <point x="1202" y="1037" type="line"/>
      <point x="1113" y="1101"/>
      <point x="965" y="1157"/>
      <point x="763" y="1157" type="curve" smooth="yes"/>
      <point x="379" y="1157"/>
      <point x="190" y="966"/>
      <point x="190" y="580" type="curve" smooth="yes"/>
      <point x="190" y="365" type="line" smooth="yes"/>
      <point x="190" y="112"/>
      <point x="294" y="-17"/>
    </contour>
    <contour>
      <point x="618" y="1134" type="curve"/>
      <point x="644" y="1134" type="line"/>
      <point x="654" y="1230"/>
      <point x="660" y="1300"/>
      <point x="660" y="1357" type="curve" smooth="yes"/>
      <point x="660" y="1404"/>
      <point x="652" y="1442"/>
      <point x="648" y="1455" type="curve"/>
      <point x="615" y="1455" type="line"/>
      <point x="611" y="1442"/>
      <point x="602" y="1406"/>
      <point x="602" y="1357" type="curve" smooth="yes"/>
      <point x="602" y="1297"/>
      <point x="610" y="1230"/>
    </contour>
    <contour>
      <point x="875" y="1134" type="curve"/>
      <point x="901" y="1134" type="line"/>
      <point x="911" y="1230"/>
      <point x="917" y="1301"/>
      <point x="917" y="1357" type="curve" smooth="yes"/>
      <point x="917" y="1405"/>
      <point x="909" y="1442"/>
      <point x="905" y="1455" type="curve"/>
      <point x="872" y="1455" type="line"/>
      <point x="868" y="1442"/>
      <point x="859" y="1406"/>
      <point x="859" y="1357" type="curve" smooth="yes"/>
      <point x="859" y="1297"/>
      <point x="867" y="1230"/>
    </contour>
    <contour>
      <point x="1824" y="16" type="curve" smooth="yes"/>
      <point x="1670" y="16"/>
      <point x="1592" y="99"/>
      <point x="1592" y="263" type="curve" smooth="yes"/>
      <point x="1592" y="291" type="line" smooth="yes"/>
      <point x="1592" y="434"/>
      <point x="1636" y="512"/>
      <point x="1758" y="572" type="curve"/>
      <point x="1889" y="572" type="line"/>
      <point x="2012" y="511"/>
      <point x="2055" y="434"/>
      <point x="2055" y="291" type="curve" smooth="yes"/>
      <point x="2055" y="263" type="line" smooth="yes"/>
      <point x="2055" y="99"/>
      <point x="1978" y="16"/>
    </contour>
    <contour>
      <point x="1909" y="586" type="line"/>
      <point x="2032" y="641"/>
      <point x="2091" y="720"/>
      <point x="2091" y="870" type="curve" smooth="yes"/>
      <point x="2091" y="891" type="line" smooth="yes"/>
      <point x="2091" y="1066"/>
      <point x="2006" y="1157"/>
      <point x="1841" y="1157" type="curve" smooth="yes"/>
      <point x="1737" y="1157"/>
      <point x="1657" y="1120"/>
      <point x="1602" y="1080" type="curve"/>
      <point x="1597" y="1028" type="line"/>
      <point x="1660" y="1083"/>
      <point x="1743" y="1122"/>
      <point x="1841" y="1122" type="curve" smooth="yes"/>
      <point x="1982" y="1122"/>
      <point x="2053" y="1044"/>
      <point x="2053" y="890" type="curve" smooth="yes"/>
      <point x="2053" y="870" type="line" smooth="yes"/>
      <point x="2053" y="738"/>
      <point x="2005" y="660"/>
      <point x="1879" y="604" type="curve"/>
    </contour>
  </outline>
</glyph>
<glyph name="vowelVocalicR.te" format="2">
  <advance width="2716"/>
  <unicode hex="0C0B"/>
  <anchor x="725" y="0" name="bottom"/>
  <outline>
    <contour>
      <point x="434" y="-17" type="curve" smooth="yes"/>
      <point x="621" y="-17"/>
      <point x="716" y="86"/>
      <point x="727" y="245" type="curve"/>
      <point x="730" y="245" type="line"/>
      <point x="741" y="86"/>
      <point x="832" y="-17"/>
      <point x="1015" y="-17" type="curve" smooth="yes"/>
      <point x="1187" y="-17"/>
      <point x="1286" y="86"/>
      <point x="1307" y="258" type="curve"/>
      <point x="1315" y="289"/>
      <point x="1321" y="322"/>
      <point x="1321" y="357" type="curve" smooth="yes"/>
      <point x="1321" y="593" type="line"/>
      <point x="1283" y="593" type="line"/>
      <point x="1283" y="359" type="line" smooth="yes"/>
      <point x="1283" y="139"/>
      <point x="1197" y="18"/>
      <point x="1013" y="18" type="curve" smooth="yes"/>
      <point x="843" y="18"/>
      <point x="753" y="120"/>
      <point x="750" y="308" type="curve" smooth="yes"/>
      <point x="748" y="434" type="line"/>
      <point x="709" y="434" type="line"/>
      <point x="707" y="308" type="line" smooth="yes"/>
      <point x="704" y="120"/>
      <point x="612" y="18"/>
      <point x="436" y="18" type="curve" smooth="yes"/>
      <point x="260" y="18"/>
      <point x="174" y="114"/>
      <point x="174" y="261" type="curve" smooth="yes"/>
      <point x="174" y="263" type="line" smooth="yes"/>
      <point x="174" y="403"/>
      <point x="220" y="486"/>
      <point x="442" y="594" type="curve" smooth="yes"/>
      <point x="637" y="689"/>
      <point x="710" y="765"/>
      <point x="710" y="915" type="curve" smooth="yes"/>
      <point x="710" y="920" type="line" smooth="yes"/>
      <point x="710" y="1077"/>
      <point x="612" y="1166"/>
      <point x="431" y="1166" type="curve" smooth="yes"/>
      <point x="246" y="1166"/>
      <point x="146" y="1074"/>
      <point x="146" y="902" type="curve" smooth="yes"/>
      <point x="146" y="894" type="line" smooth="yes"/>
      <point x="146" y="818"/>
      <point x="162" y="754"/>
      <point x="188" y="691" type="curve"/>
      <point x="228" y="691" type="line"/>
      <point x="199" y="756"/>
      <point x="184" y="824"/>
      <point x="184" y="893" type="curve" smooth="yes"/>
      <point x="184" y="901" type="line" smooth="yes"/>
      <point x="184" y="1052"/>
      <point x="269" y="1131"/>
      <point x="431" y="1131" type="curve" smooth="yes"/>
      <point x="589" y="1131"/>
      <point x="672" y="1054"/>
      <point x="672" y="920" type="curve" smooth="yes"/>
      <point x="672" y="915" type="line" smooth="yes"/>
      <point x="672" y="783"/>
      <point x="613" y="716"/>
      <point x="415" y="620" type="curve" smooth="yes"/>
      <point x="208" y="519"/>
      <point x="136" y="433"/>
      <point x="136" y="263" type="curve" smooth="yes"/>
      <point x="136" y="260" type="line" smooth="yes"/>
      <point x="136" y="88"/>
      <point x="243" y="-17"/>
    </contour>
    <component base="matraUVar1.te" xOffset="1397"/>
    <component base="Terminals.te" xOffset="882"/>
  </outline>
</glyph>
<glyph name="vowelVocalicL.te" format="2">
  <advance width="1841"/>
  <unicode hex="0C0C"/>
  <outline>
    <contour>
      <point x="1155" y="-19" type="curve" smooth="yes"/>
      <point x="1508" y="-19"/>
      <point x="1687" y="159"/>
      <point x="1687" y="500" type="curve" smooth="yes"/>
      <point x="1687" y="710" type="line" smooth="yes"/>
      <point x="1687" y="989"/>
      <point x="1566" y="1155"/>
      <point x="1339" y="1155" type="curve" smooth="yes"/>
      <point x="1329" y="1155" type="line"/>
      <point x="1324" y="1120" type="line"/>
      <point x="1330" y="1120" type="line" smooth="yes"/>
      <point x="1540" y="1120"/>
      <point x="1649" y="973"/>
      <point x="1649" y="709" type="curve" smooth="yes"/>
      <point x="1649" y="502" type="line" smooth="yes"/>
      <point x="1649" y="177"/>
      <point x="1485" y="16"/>
      <point x="1155" y="16" type="curve" smooth="yes"/>
      <point x="883" y="16"/>
      <point x="739" y="110"/>
      <point x="739" y="277" type="curve" smooth="yes"/>
      <point x="739" y="279" type="line" smooth="yes"/>
      <point x="739" y="428"/>
      <point x="811" y="494"/>
      <point x="1008" y="593" type="curve" smooth="yes"/>
      <point x="1189" y="673"/>
      <point x="1231" y="764"/>
      <point x="1231" y="895" type="curve" smooth="yes"/>
      <point x="1231" y="900" type="line" smooth="yes"/>
      <point x="1231" y="1070"/>
      <point x="1138" y="1166"/>
      <point x="949" y="1166" type="curve" smooth="yes"/>
      <point x="771" y="1166"/>
      <point x="679" y="1068"/>
      <point x="669" y="929" type="curve"/>
      <point x="666" y="929" type="line"/>
      <point x="656" y="1068"/>
      <point x="576" y="1166"/>
      <point x="400" y="1166" type="curve" smooth="yes"/>
      <point x="219" y="1166"/>
      <point x="124" y="1064"/>
      <point x="124" y="868" type="curve" smooth="yes"/>
      <point x="124" y="860" type="line" smooth="yes"/>
      <point x="124" y="792"/>
      <point x="132" y="727"/>
      <point x="150" y="674" type="curve"/>
      <point x="189" y="674" type="line"/>
      <point x="171" y="728"/>
      <point x="162" y="795"/>
      <point x="162" y="860" type="curve" smooth="yes"/>
      <point x="162" y="866" type="line" smooth="yes"/>
      <point x="162" y="1042"/>
      <point x="241" y="1131"/>
      <point x="402" y="1131" type="curve" smooth="yes"/>
      <point x="570" y="1131"/>
      <point x="644" y="1033"/>
      <point x="646" y="864" type="curve" smooth="yes"/>
      <point x="648" y="727" type="line"/>
      <point x="687" y="727" type="line"/>
      <point x="689" y="864" type="line" smooth="yes"/>
      <point x="691" y="1033"/>
      <point x="785" y="1131"/>
      <point x="948" y="1131" type="curve" smooth="yes"/>
      <point x="1117" y="1131"/>
      <point x="1193" y="1046"/>
      <point x="1193" y="899" type="curve" smooth="yes"/>
      <point x="1193" y="895" type="line" smooth="yes"/>
      <point x="1193" y="792"/>
      <point x="1174" y="710"/>
      <point x="986" y="621" type="curve" smooth="yes"/>
      <point x="781" y="524"/>
      <point x="701" y="440"/>
      <point x="701" y="279" type="curve" smooth="yes"/>
      <point x="701" y="276" type="line" smooth="yes"/>
      <point x="701" y="91"/>
      <point x="855" y="-19"/>
    </contour>
  </outline>
</glyph>
<glyph name="vowelE.te" format="2">
  <advance width="1435"/>
  <unicode hex="0C0E"/>
  <outline>
    <contour>
      <point x="405" y="-17" type="curve" smooth="yes"/>
      <point x="572" y="-17"/>
      <point x="658" y="76"/>
      <point x="673" y="208" type="curve"/>
      <point x="676" y="208" type="line"/>
      <point x="695" y="75"/>
      <point x="795" y="-17"/>
      <point x="962" y="-17" type="curve" smooth="yes"/>
      <point x="1173" y="-17"/>
      <point x="1281" y="118"/>
      <point x="1281" y="370" type="curve" smooth="yes"/>
      <point x="1281" y="665" type="line" smooth="yes"/>
      <point x="1281" y="1092"/>
      <point x="1074" y="1298"/>
      <point x="659" y="1298" type="curve" smooth="yes"/>
      <point x="618" y="1298" type="line"/>
      <point x="613" y="1264" type="line"/>
      <point x="657" y="1264" type="line" smooth="yes"/>
      <point x="1054" y="1264"/>
      <point x="1243" y="1073"/>
      <point x="1243" y="664" type="curve" smooth="yes"/>
      <point x="1243" y="370" type="line" smooth="yes"/>
      <point x="1243" y="136"/>
      <point x="1148" y="18"/>
      <point x="961" y="18" type="curve" smooth="yes"/>
      <point x="801" y="18"/>
      <point x="693" y="109"/>
      <point x="693" y="291" type="curve" smooth="yes"/>
      <point x="693" y="365" type="line" smooth="yes"/>
      <point x="693" y="560"/>
      <point x="595" y="671"/>
      <point x="408" y="671" type="curve" smooth="yes"/>
      <point x="223" y="671"/>
      <point x="123" y="562"/>
      <point x="123" y="364" type="curve" smooth="yes"/>
      <point x="123" y="291" type="line" smooth="yes"/>
      <point x="123" y="93"/>
      <point x="223" y="-17"/>
    </contour>
    <contour>
      <point x="407" y="18" type="curve" smooth="yes"/>
      <point x="247" y="18"/>
      <point x="161" y="114"/>
      <point x="161" y="291" type="curve" smooth="yes"/>
      <point x="161" y="364" type="line" smooth="yes"/>
      <point x="161" y="541"/>
      <point x="247" y="636"/>
      <point x="408" y="636" type="curve" smooth="yes"/>
      <point x="570" y="636"/>
      <point x="655" y="541"/>
      <point x="655" y="365" type="curve" smooth="yes"/>
      <point x="655" y="293" type="line" smooth="yes"/>
      <point x="655" y="115"/>
      <point x="570" y="18"/>
    </contour>
  </outline>
</glyph>
<glyph name="vowelEe.te" format="2">
  <advance width="1435"/>
  <unicode hex="0C0F"/>
  <outline>
    <contour>
      <point x="750" y="1593" type="line"/>
      <point x="755" y="1558" type="line"/>
      <point x="667" y="1558" type="line" smooth="yes"/>
      <point x="427" y="1558"/>
      <point x="310" y="1442"/>
      <point x="310" y="1208" type="curve" smooth="yes"/>
      <point x="310" y="1166" type="line"/>
      <point x="273" y="1166" type="line"/>
      <point x="273" y="1210" type="line" smooth="yes"/>
      <point x="273" y="1463"/>
      <point x="405" y="1593"/>
      <point x="665" y="1593" type="curve" smooth="yes"/>
    </contour>
    <component base="vowelE.te"/>
  </outline>
</glyph>
<glyph name="vowelAi.te" format="2">
  <advance width="1457"/>
  <unicode hex="0C10"/>
  <outline>
    <contour>
      <point x="437" y="-17" type="curve" smooth="yes"/>
      <point x="603" y="-17"/>
      <point x="685" y="74"/>
      <point x="706" y="194" type="curve"/>
      <point x="708" y="194" type="line"/>
      <point x="728" y="74"/>
      <point x="824" y="-17"/>
      <point x="988" y="-17" type="curve" smooth="yes"/>
      <point x="1198" y="-17"/>
      <point x="1303" y="124"/>
      <point x="1303" y="392" type="curve" smooth="yes"/>
      <point x="1303" y="765" type="line" smooth="yes"/>
      <point x="1303" y="1022"/>
      <point x="1207" y="1166"/>
      <point x="992" y="1166" type="curve" smooth="yes"/>
      <point x="815" y="1166"/>
      <point x="728" y="1068"/>
      <point x="719" y="929" type="curve"/>
      <point x="716" y="929" type="line"/>
      <point x="706" y="1068"/>
      <point x="623" y="1166"/>
      <point x="442" y="1166" type="curve" smooth="yes"/>
      <point x="254" y="1166"/>
      <point x="154" y="1065"/>
      <point x="154" y="885" type="curve" smooth="yes"/>
      <point x="154" y="878" type="line" smooth="yes"/>
      <point x="154" y="824"/>
      <point x="160" y="772"/>
      <point x="173" y="731" type="curve"/>
      <point x="212" y="731" type="line"/>
      <point x="199" y="772"/>
      <point x="192" y="827"/>
      <point x="192" y="878" type="curve" smooth="yes"/>
      <point x="192" y="883" type="line" smooth="yes"/>
      <point x="192" y="1043"/>
      <point x="276" y="1131"/>
      <point x="444" y="1131" type="curve" smooth="yes"/>
      <point x="613" y="1131"/>
      <point x="693" y="1037"/>
      <point x="696" y="864" type="curve" smooth="yes"/>
      <point x="698" y="763" type="line"/>
      <point x="737" y="763" type="line"/>
      <point x="739" y="864" type="line" smooth="yes"/>
      <point x="742" y="1037"/>
      <point x="826" y="1131"/>
      <point x="991" y="1131" type="curve" smooth="yes"/>
      <point x="1185" y="1131"/>
      <point x="1265" y="1000"/>
      <point x="1265" y="763" type="curve" smooth="yes"/>
      <point x="1265" y="392" type="line" smooth="yes"/>
      <point x="1265" y="143"/>
      <point x="1172" y="18"/>
      <point x="986" y="18" type="curve" smooth="yes"/>
      <point x="828" y="18"/>
      <point x="724" y="111"/>
      <point x="724" y="292" type="curve" smooth="yes"/>
      <point x="724" y="345" type="line" smooth="yes"/>
      <point x="724" y="543"/>
      <point x="616" y="653"/>
      <point x="439" y="653" type="curve" smooth="yes"/>
      <point x="262" y="653"/>
      <point x="154" y="542"/>
      <point x="154" y="344" type="curve" smooth="yes"/>
      <point x="154" y="291" type="line" smooth="yes"/>
      <point x="154" y="94"/>
      <point x="259" y="-17"/>
    </contour>
    <contour>
      <point x="438" y="18" type="curve" smooth="yes"/>
      <point x="283" y="18"/>
      <point x="192" y="115"/>
      <point x="192" y="291" type="curve" smooth="yes"/>
      <point x="192" y="344" type="line" smooth="yes"/>
      <point x="192" y="521"/>
      <point x="286" y="618"/>
      <point x="439" y="618" type="curve" smooth="yes"/>
      <point x="592" y="618"/>
      <point x="686" y="521"/>
      <point x="686" y="345" type="curve" smooth="yes"/>
      <point x="686" y="294" type="line" smooth="yes"/>
      <point x="686" y="116"/>
      <point x="600" y="18"/>
    </contour>
  </outline>
</glyph>
<glyph name="vowelOo.te" format="2">
  <advance width="1433"/>
  <unicode hex="0C13"/>
  <outline>
    <contour>
      <point x="704" y="1389" type="curve"/>
      <point x="699" y="1431" type="line"/>
      <point x="648" y="1461"/>
      <point x="575" y="1492"/>
      <point x="463" y="1492" type="curve" smooth="yes"/>
      <point x="297" y="1492"/>
      <point x="208" y="1429"/>
      <point x="208" y="1311" type="curve" smooth="yes"/>
      <point x="208" y="1214"/>
      <point x="280" y="1151"/>
      <point x="423" y="1143" type="curve"/>
      <point x="433" y="1163" type="line"/>
      <point x="310" y="1171"/>
      <point x="246" y="1227"/>
      <point x="246" y="1311" type="curve" smooth="yes"/>
      <point x="246" y="1405"/>
      <point x="321" y="1457"/>
      <point x="463" y="1457" type="curve" smooth="yes"/>
      <point x="569" y="1457"/>
      <point x="648" y="1426"/>
    </contour>
    <component base="vowelO.te"/>
  </outline>
</glyph>
<glyph name="vowelAu.te" format="2">
  <advance width="1506"/>
  <unicode hex="0C14"/>
  <outline>
    <contour>
      <point x="434" y="-17" type="curve" smooth="yes"/>
      <point x="621" y="-17"/>
      <point x="716" y="86"/>
      <point x="727" y="245" type="curve"/>
      <point x="730" y="245" type="line"/>
      <point x="741" y="86"/>
      <point x="835" y="-17"/>
      <point x="1024" y="-17" type="curve" smooth="yes"/>
      <point x="1209" y="-17"/>
      <point x="1309" y="90"/>
      <point x="1309" y="283" type="curve" smooth="yes"/>
      <point x="1309" y="321" type="line" smooth="yes"/>
      <point x="1309" y="401"/>
      <point x="1296" y="466"/>
      <point x="1272" y="523" type="curve"/>
      <point x="1232" y="523" type="line"/>
      <point x="1262" y="460"/>
      <point x="1271" y="391"/>
      <point x="1271" y="321" type="curve" smooth="yes"/>
      <point x="1271" y="286" type="line" smooth="yes"/>
      <point x="1271" y="116"/>
      <point x="1191" y="18"/>
      <point x="1022" y="18" type="curve" smooth="yes"/>
      <point x="844" y="18"/>
      <point x="753" y="120"/>
      <point x="750" y="308" type="curve" smooth="yes"/>
      <point x="748" y="434" type="line"/>
      <point x="709" y="434" type="line"/>
      <point x="707" y="308" type="line" smooth="yes"/>
      <point x="704" y="120"/>
      <point x="612" y="18"/>
      <point x="436" y="18" type="curve" smooth="yes"/>
      <point x="260" y="18"/>
      <point x="174" y="114"/>
      <point x="174" y="261" type="curve" smooth="yes"/>
      <point x="174" y="263" type="line" smooth="yes"/>
      <point x="174" y="403"/>
      <point x="220" y="486"/>
      <point x="442" y="594" type="curve" smooth="yes"/>
      <point x="637" y="689"/>
      <point x="710" y="765"/>
      <point x="710" y="915" type="curve" smooth="yes"/>
      <point x="710" y="920" type="line" smooth="yes"/>
      <point x="710" y="1077"/>
      <point x="612" y="1166"/>
      <point x="431" y="1166" type="curve" smooth="yes"/>
      <point x="246" y="1166"/>
      <point x="146" y="1074"/>
      <point x="146" y="902" type="curve" smooth="yes"/>
      <point x="146" y="894" type="line" smooth="yes"/>
      <point x="146" y="819"/>
      <point x="161" y="755"/>
      <point x="188" y="691" type="curve"/>
      <point x="228" y="691" type="line"/>
      <point x="199" y="756"/>
      <point x="184" y="824"/>
      <point x="184" y="893" type="curve" smooth="yes"/>
      <point x="184" y="901" type="line" smooth="yes"/>
      <point x="184" y="1052"/>
      <point x="269" y="1131"/>
      <point x="431" y="1131" type="curve" smooth="yes"/>
      <point x="589" y="1131"/>
      <point x="672" y="1054"/>
      <point x="672" y="920" type="curve" smooth="yes"/>
      <point x="672" y="915" type="line" smooth="yes"/>
      <point x="672" y="783"/>
      <point x="612" y="716"/>
      <point x="415" y="620" type="curve" smooth="yes"/>
      <point x="208" y="519"/>
      <point x="136" y="433"/>
      <point x="136" y="263" type="curve" smooth="yes"/>
      <point x="136" y="260" type="line" smooth="yes"/>
      <point x="136" y="88"/>
      <point x="243" y="-17"/>
    </contour>
    <contour>
      <point x="444" y="1144" type="line"/>
      <point x="577" y="1145"/>
      <point x="637" y="1207"/>
      <point x="637" y="1306" type="curve" smooth="yes"/>
      <point x="637" y="1406"/>
      <point x="579" y="1463"/>
      <point x="454" y="1463" type="curve" smooth="yes"/>
      <point x="406" y="1463" type="line"/>
      <point x="406" y="1442" type="line"/>
      <point x="456" y="1442" type="line" smooth="yes"/>
      <point x="547" y="1442"/>
      <point x="601" y="1393"/>
      <point x="601" y="1307" type="curve" smooth="yes"/>
      <point x="601" y="1219"/>
      <point x="546" y="1166"/>
      <point x="431" y="1166" type="curve"/>
    </contour>
    <contour>
      <point x="1153" y="656" type="curve" smooth="yes"/>
      <point x="1318" y="656"/>
      <point x="1401" y="759"/>
      <point x="1401" y="939" type="curve" smooth="yes"/>
      <point x="1401" y="1069" type="line" smooth="yes"/>
      <point x="1401" y="1317"/>
      <point x="1274" y="1477"/>
      <point x="987" y="1477" type="curve" smooth="yes"/>
      <point x="185" y="1477" type="line"/>
      <point x="180" y="1442" type="line"/>
      <point x="537" y="1442" type="line"/>
      <point x="541" y="1445" type="line"/>
      <point x="655" y="1442" type="line"/>
      <point x="985" y="1442" type="line" smooth="yes"/>
      <point x="1257" y="1442"/>
      <point x="1363" y="1297"/>
      <point x="1363" y="1061" type="curve"/>
      <point x="1363" y="1055" type="line"/>
      <point x="1361" y="1055" type="line"/>
      <point x="1363" y="1044" type="line"/>
      <point x="1363" y="935" type="line" smooth="yes"/>
      <point x="1363" y="774"/>
      <point x="1291" y="691"/>
      <point x="1153" y="691" type="curve" smooth="yes"/>
      <point x="1022" y="691"/>
      <point x="951" y="764"/>
      <point x="951" y="905" type="curve" smooth="yes"/>
      <point x="951" y="964" type="line" smooth="yes"/>
      <point x="951" y="1107"/>
      <point x="1017" y="1181"/>
      <point x="1149" y="1181" type="curve" smooth="yes"/>
      <point x="1250" y="1181"/>
      <point x="1329" y="1129"/>
      <point x="1367" y="1022" type="curve"/>
      <point x="1375" y="1048" type="line"/>
      <point x="1346" y="1146"/>
      <point x="1271" y="1216"/>
      <point x="1146" y="1216" type="curve" smooth="yes"/>
      <point x="993" y="1216"/>
      <point x="913" y="1128"/>
      <point x="913" y="966" type="curve" smooth="yes"/>
      <point x="913" y="905" type="line" smooth="yes"/>
      <point x="913" y="746"/>
      <point x="1000" y="656"/>
    </contour>
  </outline>
</glyph>
<glyph name="Kha.te" format="2">
  <advance width="1510"/>
  <unicode hex="0C16"/>
  <anchor x="739" y="-181" name="bottom"/>
  <outline>
    <contour>
      <point x="444" y="-17" type="curve" smooth="yes"/>
      <point x="642" y="-17"/>
      <point x="722" y="120"/>
      <point x="739" y="248" type="curve"/>
      <point x="742" y="248" type="line"/>
      <point x="775" y="91"/>
      <point x="864" y="-17"/>
      <point x="1044" y="-17" type="curve" smooth="yes"/>
      <point x="1248" y="-17"/>
      <point x="1356" y="116"/>
      <point x="1356" y="367" type="curve" smooth="yes"/>
      <point x="1356" y="634" type="line"/>
      <point x="1318" y="634" type="line"/>
      <point x="1318" y="367" type="line" smooth="yes"/>
      <point x="1318" y="135"/>
      <point x="1222" y="18"/>
      <point x="1044" y="18" type="curve" smooth="yes"/>
      <point x="877" y="18"/>
      <point x="789" y="116"/>
      <point x="759" y="306" type="curve"/>
      <point x="759" y="360"/>
      <point x="759" y="398"/>
      <point x="759" y="442" type="curve" smooth="yes"/>
      <point x="759" y="756" type="line" smooth="yes"/>
      <point x="759" y="1023"/>
      <point x="676" y="1166"/>
      <point x="450" y="1166" type="curve" smooth="yes"/>
      <point x="269" y="1166"/>
      <point x="170" y="1060"/>
      <point x="170" y="876" type="curve" smooth="yes"/>
      <point x="170" y="872" type="line" smooth="yes"/>
      <point x="170" y="828"/>
      <point x="174" y="788"/>
      <point x="186" y="740" type="curve"/>
      <point x="224" y="740" type="line"/>
      <point x="212" y="787"/>
      <point x="208" y="829"/>
      <point x="208" y="872" type="curve" smooth="yes"/>
      <point x="208" y="876" type="line" smooth="yes"/>
      <point x="208" y="1041"/>
      <point x="295" y="1131"/>
      <point x="450" y="1131" type="curve" smooth="yes"/>
      <point x="651" y="1131"/>
      <point x="722" y="1000"/>
      <point x="722" y="755" type="curve" smooth="yes"/>
      <point x="722" y="538" type="line" smooth="yes"/>
      <point x="722" y="504"/>
      <point x="722" y="469"/>
      <point x="722" y="436" type="curve"/>
      <point x="720" y="436" type="line"/>
      <point x="722" y="410" type="line"/>
      <point x="722" y="305" type="line"/>
      <point x="695" y="115"/>
      <point x="610" y="18"/>
      <point x="445" y="18" type="curve" smooth="yes"/>
      <point x="277" y="18"/>
      <point x="188" y="110"/>
      <point x="188" y="283" type="curve" smooth="yes"/>
      <point x="188" y="304" type="line" smooth="yes"/>
      <point x="188" y="481"/>
      <point x="283" y="576"/>
      <point x="438" y="575" type="curve" smooth="yes"/>
      <point x="569" y="574"/>
      <point x="662" y="520"/>
      <point x="723" y="390" type="curve"/>
      <point x="727" y="430" type="line"/>
      <point x="681" y="537"/>
      <point x="590" y="609"/>
      <point x="438" y="610" type="curve" smooth="yes"/>
      <point x="259" y="611"/>
      <point x="150" y="501"/>
      <point x="150" y="305" type="curve" smooth="yes"/>
      <point x="150" y="283" type="line" smooth="yes"/>
      <point x="150" y="90"/>
      <point x="253" y="-17"/>
    </contour>
    <component base="Terminals.te" xOffset="917"/>
    <component base="kombu_1" xOffset="744" yOffset="-18"/>
  </outline>
</glyph>
<glyph name="Ga.te" format="2">
  <advance width="1192"/>
  <unicode hex="0C17"/>
  <anchor x="593" y="-69" name="bottom"/>
  <outline>
    <contour>
      <point x="271" y="0" type="curve"/>
      <point x="315" y="0" type="line"/>
      <point x="226" y="140"/>
      <point x="192" y="281"/>
      <point x="192" y="466" type="curve" smooth="yes"/>
      <point x="192" y="649" type="line" smooth="yes"/>
      <point x="192" y="964"/>
      <point x="328" y="1122"/>
      <point x="596" y="1122" type="curve" smooth="yes"/>
      <point x="864" y="1122"/>
      <point x="1001" y="964"/>
      <point x="1001" y="649" type="curve" smooth="yes"/>
      <point x="1001" y="466" type="line" smooth="yes"/>
      <point x="1001" y="281"/>
      <point x="967" y="140"/>
      <point x="878" y="0" type="curve"/>
      <point x="922" y="0" type="line"/>
      <point x="1011" y="155"/>
      <point x="1039" y="273"/>
      <point x="1039" y="467" type="curve" smooth="yes"/>
      <point x="1039" y="649" type="line" smooth="yes"/>
      <point x="1039" y="985"/>
      <point x="889" y="1155"/>
      <point x="596" y="1155" type="curve" smooth="yes"/>
      <point x="304" y="1155"/>
      <point x="154" y="985"/>
      <point x="154" y="649" type="curve" smooth="yes"/>
      <point x="154" y="467" type="line" smooth="yes"/>
      <point x="154" y="273"/>
      <point x="182" y="155"/>
    </contour>
    <contour>
      <point x="576" y="1132" type="curve" smooth="yes"/>
      <point x="584" y="1132" type="line" smooth="yes"/>
      <point x="703" y="1132"/>
      <point x="765" y="1178"/>
      <point x="830" y="1266" type="curve" smooth="yes"/>
      <point x="980" y="1469" type="line" smooth="yes"/>
      <point x="1044" y="1555"/>
      <point x="1097" y="1559"/>
      <point x="1155" y="1559" type="curve" smooth="yes"/>
      <point x="1178" y="1559" type="line"/>
      <point x="1175" y="1594" type="line"/>
      <point x="1152" y="1594" type="line" smooth="yes"/>
      <point x="1062" y="1594"/>
      <point x="1008" y="1565"/>
      <point x="952" y="1490" type="curve" smooth="yes"/>
      <point x="796" y="1280" type="line" smooth="yes"/>
      <point x="735" y="1198"/>
      <point x="674" y="1157"/>
      <point x="584" y="1157" type="curve" smooth="yes"/>
      <point x="576" y="1157" type="line" smooth="yes"/>
      <point x="476" y="1157"/>
      <point x="417" y="1208"/>
      <point x="375" y="1286" type="curve" smooth="yes"/>
      <point x="310" y="1406" type="line"/>
      <point x="269" y="1406" type="line"/>
      <point x="346" y="1270" type="line" smooth="yes"/>
      <point x="400" y="1175"/>
      <point x="459" y="1132"/>
    </contour>
  </outline>
</glyph>
<glyph name="Gha.te" format="2">
  <advance width="2052"/>
  <unicode hex="0C18"/>
  <anchor x="1015" y="-191" name="bottom"/>
  <outline>
    <contour>
      <point x="412" y="-17" type="curve" smooth="yes"/>
      <point x="579" y="-17"/>
      <point x="665" y="76"/>
      <point x="680" y="208" type="curve"/>
      <point x="683" y="208" type="line"/>
      <point x="702" y="75"/>
      <point x="800" y="-17"/>
      <point x="968" y="-17" type="curve" smooth="yes"/>
      <point x="1135" y="-17"/>
      <point x="1236" y="78"/>
      <point x="1262" y="259" type="curve" smooth="yes"/>
      <point x="1270" y="290"/>
      <point x="1278" y="325"/>
      <point x="1278" y="366" type="curve" smooth="yes"/>
      <point x="1278" y="509" type="line"/>
      <point x="1240" y="509" type="line"/>
      <point x="1240" y="366" type="line" smooth="yes"/>
      <point x="1240" y="135"/>
      <point x="1148" y="18"/>
      <point x="968" y="18" type="curve" smooth="yes"/>
      <point x="808" y="18"/>
      <point x="700" y="109"/>
      <point x="700" y="291" type="curve" smooth="yes"/>
      <point x="700" y="365" type="line" smooth="yes"/>
      <point x="700" y="560"/>
      <point x="602" y="671"/>
      <point x="415" y="671" type="curve" smooth="yes"/>
      <point x="230" y="671"/>
      <point x="130" y="562"/>
      <point x="130" y="364" type="curve" smooth="yes"/>
      <point x="130" y="291" type="line" smooth="yes"/>
      <point x="130" y="93"/>
      <point x="230" y="-17"/>
    </contour>
    <contour>
      <point x="414" y="18" type="curve" smooth="yes"/>
      <point x="254" y="18"/>
      <point x="168" y="114"/>
      <point x="168" y="291" type="curve" smooth="yes"/>
      <point x="168" y="364" type="line" smooth="yes"/>
      <point x="168" y="541"/>
      <point x="254" y="636"/>
      <point x="415" y="636" type="curve" smooth="yes"/>
      <point x="577" y="636"/>
      <point x="662" y="541"/>
      <point x="662" y="365" type="curve" smooth="yes"/>
      <point x="662" y="293" type="line" smooth="yes"/>
      <point x="662" y="115"/>
      <point x="577" y="18"/>
    </contour>
    <contour>
      <point x="1240" y="499" type="line"/>
      <point x="1278" y="499" type="line"/>
      <point x="1278" y="706" type="line" smooth="yes"/>
      <point x="1278" y="1000"/>
      <point x="1144" y="1155"/>
      <point x="895" y="1155" type="curve"/>
      <point x="885" y="1155" type="line"/>
      <point x="879" y="1120" type="line"/>
      <point x="886" y="1120" type="line"/>
      <point x="1123" y="1120"/>
      <point x="1240" y="981"/>
      <point x="1240" y="705" type="curve" smooth="yes"/>
    </contour>
    <contour>
      <point x="449" y="1121" type="curve" smooth="yes"/>
      <point x="458" y="1121" type="line" smooth="yes"/>
      <point x="560" y="1121"/>
      <point x="637" y="1173"/>
      <point x="708" y="1262" type="curve" smooth="yes"/>
      <point x="873" y="1469" type="line" smooth="yes"/>
      <point x="934" y="1545"/>
      <point x="980" y="1559"/>
      <point x="1047" y="1559" type="curve" smooth="yes"/>
      <point x="1129" y="1559" type="line"/>
      <point x="1125" y="1594" type="line"/>
      <point x="1045" y="1594" type="line" smooth="yes"/>
      <point x="958" y="1594"/>
      <point x="907" y="1569"/>
      <point x="844" y="1490" type="curve" smooth="yes"/>
      <point x="674" y="1277" type="line" smooth="yes"/>
      <point x="611" y="1199"/>
      <point x="547" y="1155"/>
      <point x="459" y="1155" type="curve" smooth="yes"/>
      <point x="449" y="1155" type="line" smooth="yes"/>
      <point x="354" y="1155"/>
      <point x="291" y="1201"/>
      <point x="245" y="1286" type="curve" smooth="yes"/>
      <point x="180" y="1406" type="line"/>
      <point x="138" y="1406" type="line"/>
      <point x="215" y="1270" type="line" smooth="yes"/>
      <point x="271" y="1171"/>
      <point x="338" y="1121"/>
    </contour>
    <component base="kombu_1" xOffset="687" yOffset="-18"/>
    <component base="matraU.te" xOffset="1324"/>
  </outline>
</glyph>
<glyph name="Nga.te" format="2">
  <advance width="1449"/>
  <unicode hex="0C19"/>
  <anchor x="728" y="-69" name="bottom"/>
  <outline>
    <contour>
      <point x="434" y="-17" type="curve" smooth="yes"/>
      <point x="621" y="-17"/>
      <point x="716" y="86"/>
      <point x="727" y="245" type="curve"/>
      <point x="730" y="245" type="line"/>
      <point x="741" y="86"/>
      <point x="835" y="-17"/>
      <point x="1024" y="-17" type="curve" smooth="yes"/>
      <point x="1209" y="-17"/>
      <point x="1309" y="90"/>
      <point x="1309" y="283" type="curve" smooth="yes"/>
      <point x="1309" y="321" type="line" smooth="yes"/>
      <point x="1309" y="401"/>
      <point x="1296" y="466"/>
      <point x="1272" y="523" type="curve"/>
      <point x="1232" y="523" type="line"/>
      <point x="1262" y="460"/>
      <point x="1271" y="391"/>
      <point x="1271" y="321" type="curve" smooth="yes"/>
      <point x="1271" y="286" type="line" smooth="yes"/>
      <point x="1271" y="116"/>
      <point x="1191" y="18"/>
      <point x="1022" y="18" type="curve" smooth="yes"/>
      <point x="844" y="18"/>
      <point x="753" y="120"/>
      <point x="750" y="308" type="curve" smooth="yes"/>
      <point x="748" y="434" type="line"/>
      <point x="709" y="434" type="line"/>
      <point x="707" y="308" type="line" smooth="yes"/>
      <point x="704" y="120"/>
      <point x="612" y="18"/>
      <point x="436" y="18" type="curve" smooth="yes"/>
      <point x="260" y="18"/>
      <point x="174" y="114"/>
      <point x="174" y="261" type="curve" smooth="yes"/>
      <point x="174" y="263" type="line" smooth="yes"/>
      <point x="174" y="403"/>
      <point x="220" y="486"/>
      <point x="442" y="594" type="curve" smooth="yes"/>
      <point x="637" y="689"/>
      <point x="710" y="765"/>
      <point x="710" y="915" type="curve" smooth="yes"/>
      <point x="710" y="920" type="line" smooth="yes"/>
      <point x="710" y="1077"/>
      <point x="612" y="1166"/>
      <point x="431" y="1166" type="curve" smooth="yes"/>
      <point x="246" y="1166"/>
      <point x="146" y="1074"/>
      <point x="146" y="902" type="curve" smooth="yes"/>
      <point x="146" y="894" type="line" smooth="yes"/>
      <point x="146" y="819"/>
      <point x="161" y="755"/>
      <point x="188" y="691" type="curve"/>
      <point x="228" y="691" type="line"/>
      <point x="199" y="756"/>
      <point x="184" y="824"/>
      <point x="184" y="893" type="curve" smooth="yes"/>
      <point x="184" y="901" type="line" smooth="yes"/>
      <point x="184" y="1052"/>
      <point x="269" y="1131"/>
      <point x="431" y="1131" type="curve" smooth="yes"/>
      <point x="589" y="1131"/>
      <point x="672" y="1054"/>
      <point x="672" y="920" type="curve" smooth="yes"/>
      <point x="672" y="915" type="line" smooth="yes"/>
      <point x="672" y="783"/>
      <point x="612" y="716"/>
      <point x="415" y="620" type="curve" smooth="yes"/>
      <point x="208" y="519"/>
      <point x="136" y="433"/>
      <point x="136" y="263" type="curve" smooth="yes"/>
      <point x="136" y="260" type="line" smooth="yes"/>
      <point x="136" y="88"/>
      <point x="243" y="-17"/>
    </contour>
    <contour>
      <point x="673" y="780" type="line"/>
      <point x="1286" y="780" type="line"/>
      <point x="1286" y="815" type="line"/>
      <point x="673" y="815" type="line"/>
    </contour>
    <contour>
      <point x="984" y="805" type="curve"/>
      <point x="1007" y="805" type="line"/>
      <point x="1017" y="904"/>
      <point x="1023" y="966"/>
      <point x="1023" y="1051" type="curve" smooth="yes"/>
      <point x="1023" y="1107"/>
      <point x="1015" y="1147"/>
      <point x="1011" y="1160" type="curve"/>
      <point x="980" y="1160" type="line"/>
      <point x="976" y="1147"/>
      <point x="968" y="1107"/>
      <point x="968" y="1051" type="curve" smooth="yes"/>
      <point x="968" y="966"/>
      <point x="974" y="904"/>
    </contour>
  </outline>
</glyph>
<glyph name="Ca.te" format="2">
  <advance width="1484"/>
  <unicode hex="0C1A"/>
  <anchor x="752" y="-69" name="bottom"/>
  <outline>
    <contour>
      <point x="469" y="-17" type="curve" smooth="yes"/>
      <point x="646" y="-17"/>
      <point x="740" y="88"/>
      <point x="750" y="245" type="curve"/>
      <point x="753" y="245" type="line"/>
      <point x="763" y="88"/>
      <point x="852" y="-17"/>
      <point x="1026" y="-17" type="curve" smooth="yes"/>
      <point x="1224" y="-17"/>
      <point x="1330" y="101"/>
      <point x="1330" y="325" type="curve" smooth="yes"/>
      <point x="1330" y="600" type="line" smooth="yes"/>
      <point x="1330" y="969"/>
      <point x="1139" y="1155"/>
      <point x="752" y="1155" type="curve"/>
      <point x="717" y="1144" type="line"/>
      <point x="713" y="1123" type="line"/>
      <point x="752" y="1123" type="line" smooth="yes"/>
      <point x="1116" y="1123"/>
      <point x="1292" y="951"/>
      <point x="1292" y="600" type="curve" smooth="yes"/>
      <point x="1292" y="327" type="line" smooth="yes"/>
      <point x="1292" y="123"/>
      <point x="1203" y="18"/>
      <point x="1025" y="18" type="curve" smooth="yes"/>
      <point x="865" y="18"/>
      <point x="776" y="117"/>
      <point x="773" y="308" type="curve" smooth="yes"/>
      <point x="771" y="434" type="line"/>
      <point x="732" y="434" type="line"/>
      <point x="730" y="308" type="line" smooth="yes"/>
      <point x="727" y="117"/>
      <point x="633" y="18"/>
      <point x="471" y="18" type="curve" smooth="yes"/>
      <point x="300" y="18"/>
      <point x="211" y="121"/>
      <point x="211" y="307" type="curve" smooth="yes"/>
      <point x="211" y="326" type="line" smooth="yes"/>
      <point x="211" y="478"/>
      <point x="248" y="602"/>
      <point x="439" y="680" type="curve"/>
      <point x="537" y="684" type="line"/>
      <point x="537" y="713" type="line"/>
      <point x="76" y="717" type="line"/>
      <point x="76" y="680" type="line"/>
      <point x="377" y="682" type="line"/>
      <point x="377" y="680" type="line"/>
      <point x="237" y="617"/>
      <point x="173" y="508"/>
      <point x="173" y="327" type="curve" smooth="yes"/>
      <point x="173" y="305" type="line" smooth="yes"/>
      <point x="173" y="98"/>
      <point x="278" y="-17"/>
    </contour>
    <contour>
      <point x="714" y="1123" type="curve"/>
      <point x="723" y="1134" type="line"/>
      <point x="831" y="1134"/>
      <point x="899" y="1178"/>
      <point x="966" y="1262" type="curve" smooth="yes"/>
      <point x="1131" y="1469" type="line" smooth="yes"/>
      <point x="1199" y="1554"/>
      <point x="1248" y="1559"/>
      <point x="1305" y="1559" type="curve" smooth="yes"/>
      <point x="1330" y="1559" type="line"/>
      <point x="1326" y="1594" type="line"/>
      <point x="1303" y="1594" type="line" smooth="yes"/>
      <point x="1218" y="1594"/>
      <point x="1167" y="1570"/>
      <point x="1103" y="1490" type="curve" smooth="yes"/>
      <point x="933" y="1278" type="line" smooth="yes"/>
      <point x="870" y="1199"/>
      <point x="803" y="1157"/>
      <point x="715" y="1157" type="curve" smooth="yes"/>
      <point x="705" y="1157" type="line" smooth="yes"/>
      <point x="603" y="1157"/>
      <point x="545" y="1208"/>
      <point x="503" y="1286" type="curve" smooth="yes"/>
      <point x="438" y="1406" type="line"/>
      <point x="396" y="1406" type="line"/>
      <point x="474" y="1270" type="line" smooth="yes"/>
      <point x="527" y="1178"/>
      <point x="589" y="1123"/>
    </contour>
  </outline>
</glyph>
<glyph name="Nya.te" format="2">
  <advance width="1826"/>
  <unicode hex="0C1E"/>
  <anchor x="721" y="-69" name="bottom"/>
  <outline>
    <contour>
      <point x="1481" y="714" type="curve"/>
      <point x="1507" y="714" type="line"/>
      <point x="1515" y="850"/>
      <point x="1521" y="951"/>
      <point x="1521" y="1032" type="curve" smooth="yes"/>
      <point x="1521" y="1091"/>
      <point x="1514" y="1136"/>
      <point x="1509" y="1153" type="curve"/>
      <point x="1479" y="1153" type="line"/>
      <point x="1474" y="1136"/>
      <point x="1467" y="1091"/>
      <point x="1467" y="1032" type="curve" smooth="yes"/>
      <point x="1467" y="951"/>
      <point x="1473" y="850"/>
    </contour>
    <contour>
      <point x="1221" y="688" type="line"/>
      <point x="1746" y="688" type="line"/>
      <point x="1746" y="723" type="line"/>
      <point x="1221" y="723" type="line"/>
    </contour>
    <component base="vowelI.te"/>
  </outline>
</glyph>
<glyph name="Tta.te" format="2">
  <advance width="1533"/>
  <unicode hex="0C1F"/>
  <anchor x="775" y="-69" name="bottom"/>
  <outline>
    <contour>
      <point x="484" y="-17" type="curve" smooth="yes"/>
      <point x="669" y="-17"/>
      <point x="763" y="92"/>
      <point x="773" y="250" type="curve"/>
      <point x="776" y="250" type="line"/>
      <point x="786" y="92"/>
      <point x="880" y="-17"/>
      <point x="1067" y="-17" type="curve" smooth="yes"/>
      <point x="1271" y="-17"/>
      <point x="1379" y="115"/>
      <point x="1379" y="373" type="curve" smooth="yes"/>
      <point x="1379" y="602" type="line"/>
      <point x="1341" y="602" type="line"/>
      <point x="1341" y="374" type="line" smooth="yes"/>
      <point x="1341" y="138"/>
      <point x="1250" y="18"/>
      <point x="1065" y="18" type="curve" smooth="yes"/>
      <point x="893" y="18"/>
      <point x="801" y="123"/>
      <point x="796" y="315" type="curve" smooth="yes"/>
      <point x="793" y="434" type="line"/>
      <point x="756" y="434" type="line"/>
      <point x="753" y="315" type="line" smooth="yes"/>
      <point x="748" y="123"/>
      <point x="656" y="18"/>
      <point x="485" y="18" type="curve" smooth="yes"/>
      <point x="283" y="18"/>
      <point x="192" y="145"/>
      <point x="192" y="403" type="curve" smooth="yes"/>
      <point x="192" y="608" type="line" smooth="yes"/>
      <point x="192" y="640"/>
      <point x="192" y="672"/>
      <point x="192" y="714" type="curve"/>
      <point x="192" y="716" type="line"/>
      <point x="192" y="724" type="line"/>
      <point x="192" y="834" type="line" smooth="yes"/>
      <point x="192" y="1042"/>
      <point x="288" y="1131"/>
      <point x="445" y="1131" type="curve" smooth="yes"/>
      <point x="597" y="1131"/>
      <point x="680" y="1033"/>
      <point x="680" y="864" type="curve" smooth="yes"/>
      <point x="680" y="828" type="line" smooth="yes"/>
      <point x="680" y="657"/>
      <point x="604" y="570"/>
      <point x="456" y="570" type="curve" smooth="yes"/>
      <point x="332" y="570"/>
      <point x="241" y="624"/>
      <point x="190" y="749" type="curve"/>
      <point x="181" y="722" type="line"/>
      <point x="225" y="602"/>
      <point x="320" y="535"/>
      <point x="456" y="535" type="curve" smooth="yes"/>
      <point x="627" y="535"/>
      <point x="718" y="634"/>
      <point x="718" y="827" type="curve" smooth="yes"/>
      <point x="718" y="864" type="line" smooth="yes"/>
      <point x="718" y="1055"/>
      <point x="621" y="1166"/>
      <point x="445" y="1166" type="curve" smooth="yes"/>
      <point x="268" y="1166"/>
      <point x="154" y="1068"/>
      <point x="154" y="833" type="curve" smooth="yes"/>
      <point x="154" y="402" type="line" smooth="yes"/>
      <point x="154" y="119"/>
      <point x="266" y="-17"/>
    </contour>
    <contour>
      <point x="435" y="1142" type="curve"/>
      <point x="461" y="1142" type="line"/>
      <point x="469" y="1235"/>
      <point x="477" y="1298"/>
      <point x="477" y="1358" type="curve" smooth="yes"/>
      <point x="477" y="1405"/>
      <point x="468" y="1439"/>
      <point x="464" y="1451" type="curve"/>
      <point x="432" y="1451" type="line"/>
      <point x="427" y="1439"/>
      <point x="419" y="1405"/>
      <point x="419" y="1358" type="curve" smooth="yes"/>
      <point x="419" y="1297"/>
      <point x="426" y="1235"/>
    </contour>
    <component base="Terminals.te" xOffset="940"/>
  </outline>
</glyph>
<glyph name="Dda.te" format="2">
  <advance width="1435"/>
  <unicode hex="0C21"/>
  <anchor x="733" y="-69" name="bottom"/>
  <outline>
    <contour>
      <point x="458" y="-17" type="curve" smooth="yes"/>
      <point x="634" y="-17"/>
      <point x="722" y="88"/>
      <point x="732" y="244" type="curve"/>
      <point x="735" y="244" type="line"/>
      <point x="745" y="88"/>
      <point x="839" y="-17"/>
      <point x="1029" y="-17" type="curve" smooth="yes"/>
      <point x="1213" y="-17"/>
      <point x="1314" y="95"/>
      <point x="1314" y="299" type="curve" smooth="yes"/>
      <point x="1314" y="314" type="line" smooth="yes"/>
      <point x="1314" y="426"/>
      <point x="1292" y="508"/>
      <point x="1248" y="585" type="curve"/>
      <point x="1206" y="585" type="line"/>
      <point x="1258" y="502"/>
      <point x="1276" y="421"/>
      <point x="1276" y="315" type="curve" smooth="yes"/>
      <point x="1276" y="302" type="line" smooth="yes"/>
      <point x="1276" y="118"/>
      <point x="1191" y="18"/>
      <point x="1027" y="18" type="curve" smooth="yes"/>
      <point x="855" y="18"/>
      <point x="760" y="115"/>
      <point x="755" y="308" type="curve" smooth="yes"/>
      <point x="752" y="434" type="line"/>
      <point x="715" y="434" type="line"/>
      <point x="712" y="308" type="line" smooth="yes"/>
      <point x="707" y="115"/>
      <point x="618" y="18"/>
      <point x="460" y="18" type="curve" smooth="yes"/>
      <point x="282" y="18"/>
      <point x="192" y="137"/>
      <point x="192" y="367" type="curve" smooth="yes"/>
      <point x="192" y="580" type="line" smooth="yes"/>
      <point x="192" y="939"/>
      <point x="373" y="1122"/>
      <point x="733" y="1122" type="curve" smooth="yes"/>
      <point x="936" y="1122"/>
      <point x="1083" y="1061"/>
      <point x="1174" y="994" type="curve"/>
      <point x="1172" y="1037" type="line"/>
      <point x="1082" y="1100"/>
      <point x="935" y="1155"/>
      <point x="733" y="1155" type="curve" smooth="yes"/>
      <point x="348" y="1155"/>
      <point x="154" y="961"/>
      <point x="154" y="580" type="curve" smooth="yes"/>
      <point x="154" y="365" type="line" smooth="yes"/>
      <point x="154" y="115"/>
      <point x="260" y="-17"/>
    </contour>
    <contour>
      <point x="713" y="1132" type="curve" smooth="yes"/>
      <point x="722" y="1132" type="line" smooth="yes"/>
      <point x="836" y="1132"/>
      <point x="902" y="1174"/>
      <point x="972" y="1262" type="curve" smooth="yes"/>
      <point x="1137" y="1469" type="line" smooth="yes"/>
      <point x="1198" y="1545"/>
      <point x="1244" y="1559"/>
      <point x="1311" y="1559" type="curve" smooth="yes"/>
      <point x="1336" y="1559" type="line"/>
      <point x="1333" y="1594" type="line"/>
      <point x="1309" y="1594" type="line" smooth="yes"/>
      <point x="1222" y="1594"/>
      <point x="1171" y="1569"/>
      <point x="1108" y="1490" type="curve" smooth="yes"/>
      <point x="938" y="1278" type="line" smooth="yes"/>
      <point x="874" y="1198"/>
      <point x="810" y="1157"/>
      <point x="723" y="1157" type="curve" smooth="yes"/>
      <point x="713" y="1157" type="line" smooth="yes"/>
      <point x="617" y="1157"/>
      <point x="553" y="1203"/>
      <point x="508" y="1286" type="curve" smooth="yes"/>
      <point x="443" y="1406" type="line"/>
      <point x="402" y="1406" type="line"/>
      <point x="479" y="1270" type="line" smooth="yes"/>
      <point x="530" y="1180"/>
      <point x="589" y="1132"/>
    </contour>
  </outline>
</glyph>
<glyph name="Nna.te" format="2">
  <advance width="1574"/>
  <unicode hex="0C23"/>
  <anchor x="786" y="-69" name="bottom"/>
  <outline>
    <contour>
      <point x="1127" y="-19" type="curve" smooth="yes"/>
      <point x="1331" y="-19"/>
      <point x="1420" y="101"/>
      <point x="1420" y="330" type="curve" smooth="yes"/>
      <point x="1420" y="731" type="line" smooth="yes"/>
      <point x="1420" y="1020"/>
      <point x="1308" y="1166"/>
      <point x="1078" y="1166" type="curve" smooth="yes"/>
      <point x="892" y="1166"/>
      <point x="796" y="1065"/>
      <point x="785" y="937" type="curve"/>
      <point x="782" y="937" type="line"/>
      <point x="771" y="1065"/>
      <point x="674" y="1166"/>
      <point x="476" y="1166" type="curve" smooth="yes"/>
      <point x="278" y="1166"/>
      <point x="163" y="1059"/>
      <point x="163" y="873" type="curve" smooth="yes"/>
      <point x="163" y="843" type="line" smooth="yes"/>
      <point x="163" y="667"/>
      <point x="276" y="584"/>
      <point x="419" y="574" type="curve"/>
      <point x="419" y="571" type="line"/>
      <point x="271" y="561"/>
      <point x="154" y="479"/>
      <point x="154" y="299" type="curve" smooth="yes"/>
      <point x="154" y="273" type="line" smooth="yes"/>
      <point x="154" y="83"/>
      <point x="261" y="-20"/>
      <point x="469" y="-20" type="curve" smooth="yes"/>
      <point x="544" y="-20"/>
      <point x="600" y="-9"/>
      <point x="661" y="8" type="curve"/>
      <point x="668" y="45" type="line"/>
      <point x="602" y="24"/>
      <point x="542" y="15"/>
      <point x="469" y="15" type="curve" smooth="yes"/>
      <point x="284" y="15"/>
      <point x="192" y="104"/>
      <point x="192" y="274" type="curve" smooth="yes"/>
      <point x="192" y="297" type="line" smooth="yes"/>
      <point x="192" y="461"/>
      <point x="303" y="549"/>
      <point x="471" y="553" type="curve" smooth="yes"/>
      <point x="565" y="555" type="line"/>
      <point x="565" y="590" type="line"/>
      <point x="471" y="592" type="line" smooth="yes"/>
      <point x="309" y="595"/>
      <point x="201" y="682"/>
      <point x="201" y="844" type="curve" smooth="yes"/>
      <point x="201" y="871" type="line" smooth="yes"/>
      <point x="201" y="1035"/>
      <point x="300" y="1131"/>
      <point x="478" y="1131" type="curve" smooth="yes"/>
      <point x="659" y="1131"/>
      <point x="758" y="1041"/>
      <point x="762" y="873" type="curve" smooth="yes"/>
      <point x="764" y="790" type="line"/>
      <point x="803" y="790" type="line"/>
      <point x="805" y="873" type="line" smooth="yes"/>
      <point x="809" y="1041"/>
      <point x="908" y="1131"/>
      <point x="1076" y="1131" type="curve" smooth="yes"/>
      <point x="1286" y="1131"/>
      <point x="1382" y="996"/>
      <point x="1382" y="729" type="curve" smooth="yes"/>
      <point x="1382" y="481" type="line"/>
      <point x="1378" y="481" type="line"/>
      <point x="1382" y="458" type="line"/>
      <point x="1382" y="324" type="line" smooth="yes"/>
      <point x="1382" y="114"/>
      <point x="1296" y="16"/>
      <point x="1127" y="16" type="curve" smooth="yes"/>
      <point x="979" y="16"/>
      <point x="887" y="103"/>
      <point x="887" y="268" type="curve" smooth="yes"/>
      <point x="887" y="337" type="line" smooth="yes"/>
      <point x="887" y="497"/>
      <point x="976" y="592"/>
      <point x="1129" y="592" type="curve" smooth="yes"/>
      <point x="1244" y="592"/>
      <point x="1333" y="541"/>
      <point x="1387" y="440" type="curve"/>
      <point x="1395" y="464" type="line"/>
      <point x="1353" y="565"/>
      <point x="1256" y="627"/>
      <point x="1126" y="627" type="curve" smooth="yes"/>
      <point x="951" y="627"/>
      <point x="849" y="517"/>
      <point x="849" y="339" type="curve" smooth="yes"/>
      <point x="849" y="268" type="line" smooth="yes"/>
      <point x="849" y="84"/>
      <point x="953" y="-19"/>
    </contour>
  </outline>
</glyph>
<glyph name="Tha.te" format="2">
  <advance width="1469"/>
  <unicode hex="0C25"/>
  <anchor x="734" y="-181" name="bottom"/>
  <outline>
    <contour>
      <point x="459" y="-16" type="curve" smooth="yes"/>
      <point x="635" y="-16"/>
      <point x="723" y="89"/>
      <point x="733" y="242" type="curve"/>
      <point x="736" y="242" type="line"/>
      <point x="745" y="89"/>
      <point x="834" y="-16"/>
      <point x="1010" y="-16" type="curve" smooth="yes"/>
      <point x="1209" y="-16"/>
      <point x="1315" y="108"/>
      <point x="1315" y="346" type="curve" smooth="yes"/>
      <point x="1315" y="579" type="line" smooth="yes"/>
      <point x="1315" y="964"/>
      <point x="1122" y="1157"/>
      <point x="734" y="1157" type="curve" smooth="yes"/>
      <point x="347" y="1157"/>
      <point x="154" y="964"/>
      <point x="154" y="579" type="curve" smooth="yes"/>
      <point x="154" y="346" type="line" smooth="yes"/>
      <point x="154" y="107"/>
      <point x="260" y="-16"/>
    </contour>
    <contour>
      <point x="461" y="18" type="curve" smooth="yes"/>
      <point x="282" y="18"/>
      <point x="192" y="129"/>
      <point x="192" y="348" type="curve" smooth="yes"/>
      <point x="192" y="579" type="line" smooth="yes"/>
      <point x="192" y="942"/>
      <point x="371" y="1124"/>
      <point x="734" y="1124" type="curve" smooth="yes"/>
      <point x="1098" y="1124"/>
      <point x="1277" y="942"/>
      <point x="1277" y="579" type="curve" smooth="yes"/>
      <point x="1277" y="348" type="line" smooth="yes"/>
      <point x="1277" y="129"/>
      <point x="1187" y="18"/>
      <point x="1008" y="18" type="curve" smooth="yes"/>
      <point x="849" y="18"/>
      <point x="761" y="114"/>
      <point x="756" y="307" type="curve" smooth="yes"/>
      <point x="753" y="432" type="line"/>
      <point x="716" y="432" type="line"/>
      <point x="713" y="307" type="line" smooth="yes"/>
      <point x="708" y="114"/>
      <point x="620" y="18"/>
    </contour>
    <contour>
      <point x="734" y="652" type="curve" smooth="yes"/>
      <point x="758" y="652"/>
      <point x="769" y="666"/>
      <point x="769" y="738" type="curve" smooth="yes"/>
      <point x="769" y="810"/>
      <point x="758" y="824"/>
      <point x="734" y="824" type="curve" smooth="yes"/>
      <point x="710" y="824"/>
      <point x="699" y="810"/>
      <point x="699" y="738" type="curve" smooth="yes"/>
      <point x="699" y="666"/>
      <point x="710" y="652"/>
    </contour>
    <contour>
      <point x="714" y="1134" type="curve" smooth="yes"/>
      <point x="723" y="1134" type="line" smooth="yes"/>
      <point x="840" y="1134"/>
      <point x="905" y="1179"/>
      <point x="972" y="1263" type="curve" smooth="yes"/>
      <point x="1138" y="1470" type="line" smooth="yes"/>
      <point x="1200" y="1547"/>
      <point x="1245" y="1561"/>
      <point x="1312" y="1561" type="curve" smooth="yes"/>
      <point x="1337" y="1561" type="line"/>
      <point x="1334" y="1595" type="line"/>
      <point x="1310" y="1595" type="line" smooth="yes"/>
      <point x="1225" y="1595"/>
      <point x="1173" y="1571"/>
      <point x="1109" y="1491" type="curve" smooth="yes"/>
      <point x="939" y="1279" type="line" smooth="yes"/>
      <point x="876" y="1200"/>
      <point x="811" y="1159"/>
      <point x="724" y="1159" type="curve" smooth="yes"/>
      <point x="714" y="1159" type="line" smooth="yes"/>
      <point x="617" y="1159"/>
      <point x="554" y="1205"/>
      <point x="509" y="1288" type="curve" smooth="yes"/>
      <point x="444" y="1408" type="line"/>
      <point x="403" y="1408" type="line"/>
      <point x="480" y="1272" type="line" smooth="yes"/>
      <point x="531" y="1182"/>
      <point x="590" y="1134"/>
    </contour>
    <component base="kombu_1" xOffset="738" yOffset="-18"/>
  </outline>
</glyph>
<glyph name="Da.te" format="2">
  <advance width="1469"/>
  <unicode hex="0C26"/>
  <anchor x="734" y="-69" name="bottom"/>
  <outline>
    <contour>
      <point x="459" y="-16" type="curve" smooth="yes"/>
      <point x="635" y="-16"/>
      <point x="723" y="89"/>
      <point x="733" y="242" type="curve"/>
      <point x="736" y="242" type="line"/>
      <point x="745" y="89"/>
      <point x="834" y="-16"/>
      <point x="1010" y="-16" type="curve" smooth="yes"/>
      <point x="1209" y="-16"/>
      <point x="1315" y="109"/>
      <point x="1315" y="346" type="curve" smooth="yes"/>
      <point x="1315" y="579" type="line" smooth="yes"/>
      <point x="1315" y="964"/>
      <point x="1122" y="1157"/>
      <point x="734" y="1157" type="curve" smooth="yes"/>
      <point x="347" y="1157"/>
      <point x="154" y="964"/>
      <point x="154" y="579" type="curve" smooth="yes"/>
      <point x="154" y="346" type="line" smooth="yes"/>
      <point x="154" y="108"/>
      <point x="260" y="-16"/>
    </contour>
    <contour>
      <point x="461" y="18" type="curve" smooth="yes"/>
      <point x="282" y="18"/>
      <point x="192" y="130"/>
      <point x="192" y="348" type="curve" smooth="yes"/>
      <point x="192" y="579" type="line" smooth="yes"/>
      <point x="192" y="942"/>
      <point x="371" y="1124"/>
      <point x="734" y="1124" type="curve" smooth="yes"/>
      <point x="1097" y="1124"/>
      <point x="1277" y="942"/>
      <point x="1277" y="579" type="curve" smooth="yes"/>
      <point x="1277" y="348" type="line" smooth="yes"/>
      <point x="1277" y="130"/>
      <point x="1187" y="18"/>
      <point x="1008" y="18" type="curve" smooth="yes"/>
      <point x="849" y="18"/>
      <point x="761" y="114"/>
      <point x="756" y="307" type="curve" smooth="yes"/>
      <point x="753" y="434" type="line"/>
      <point x="716" y="434" type="line"/>
      <point x="713" y="307" type="line" smooth="yes"/>
      <point x="708" y="114"/>
      <point x="620" y="18"/>
    </contour>
    <contour>
      <point x="714" y="1134" type="curve"/>
      <point x="723" y="1134" type="line"/>
      <point x="840" y="1134"/>
      <point x="905" y="1179"/>
      <point x="973" y="1264" type="curve" smooth="yes"/>
      <point x="1138" y="1470" type="line" smooth="yes"/>
      <point x="1200" y="1547"/>
      <point x="1245" y="1561"/>
      <point x="1312" y="1561" type="curve" smooth="yes"/>
      <point x="1337" y="1561" type="line"/>
      <point x="1334" y="1595" type="line"/>
      <point x="1310" y="1595" type="line" smooth="yes"/>
      <point x="1225" y="1595"/>
      <point x="1173" y="1572"/>
      <point x="1109" y="1492" type="curve" smooth="yes"/>
      <point x="939" y="1279" type="line" smooth="yes"/>
      <point x="876" y="1200"/>
      <point x="811" y="1159"/>
      <point x="724" y="1159" type="curve"/>
      <point x="714" y="1159" type="line"/>
      <point x="618" y="1159"/>
      <point x="554" y="1205"/>
      <point x="509" y="1288" type="curve" smooth="yes"/>
      <point x="444" y="1408" type="line"/>
      <point x="403" y="1408" type="line"/>
      <point x="480" y="1272" type="line" smooth="yes"/>
      <point x="531" y="1182"/>
      <point x="590" y="1134"/>
    </contour>
  </outline>
</glyph>
<glyph name="Bha.te" format="2">
  <advance width="1475"/>
  <unicode hex="0C2D"/>
  <anchor x="728" y="-181" name="bottom"/>
  <outline>
    <contour>
      <point x="434" y="-17" type="curve" smooth="yes"/>
      <point x="621" y="-17"/>
      <point x="716" y="86"/>
      <point x="727" y="245" type="curve"/>
      <point x="730" y="245" type="line"/>
      <point x="741" y="86"/>
      <point x="834" y="-17"/>
      <point x="1015" y="-17" type="curve" smooth="yes"/>
      <point x="1215" y="-17"/>
      <point x="1321" y="113"/>
      <point x="1321" y="367" type="curve" smooth="yes"/>
      <point x="1321" y="676" type="line" smooth="yes"/>
      <point x="1321" y="989"/>
      <point x="1196" y="1145"/>
      <point x="947" y="1150" type="curve"/>
      <point x="935" y="1122" type="line"/>
      <point x="1167" y="1116"/>
      <point x="1283" y="969"/>
      <point x="1283" y="675" type="curve" smooth="yes"/>
      <point x="1283" y="369" type="line" smooth="yes"/>
      <point x="1283" y="143"/>
      <point x="1197" y="18"/>
      <point x="1013" y="18" type="curve" smooth="yes"/>
      <point x="844" y="18"/>
      <point x="753" y="120"/>
      <point x="750" y="308" type="curve" smooth="yes"/>
      <point x="748" y="434" type="line"/>
      <point x="709" y="434" type="line"/>
      <point x="707" y="308" type="line" smooth="yes"/>
      <point x="704" y="120"/>
      <point x="612" y="18"/>
      <point x="436" y="18" type="curve" smooth="yes"/>
      <point x="260" y="18"/>
      <point x="174" y="114"/>
      <point x="174" y="261" type="curve" smooth="yes"/>
      <point x="174" y="263" type="line" smooth="yes"/>
      <point x="174" y="403"/>
      <point x="220" y="486"/>
      <point x="442" y="594" type="curve" smooth="yes"/>
      <point x="637" y="689"/>
      <point x="710" y="765"/>
      <point x="710" y="915" type="curve" smooth="yes"/>
      <point x="710" y="920" type="line" smooth="yes"/>
      <point x="710" y="1077"/>
      <point x="612" y="1166"/>
      <point x="431" y="1166" type="curve" smooth="yes"/>
      <point x="246" y="1166"/>
      <point x="146" y="1074"/>
      <point x="146" y="902" type="curve" smooth="yes"/>
      <point x="146" y="894" type="line" smooth="yes"/>
      <point x="146" y="819"/>
      <point x="161" y="755"/>
      <point x="188" y="691" type="curve"/>
      <point x="228" y="691" type="line"/>
      <point x="199" y="756"/>
      <point x="184" y="824"/>
      <point x="184" y="893" type="curve" smooth="yes"/>
      <point x="184" y="901" type="line" smooth="yes"/>
      <point x="184" y="1052"/>
      <point x="269" y="1131"/>
      <point x="431" y="1131" type="curve" smooth="yes"/>
      <point x="589" y="1131"/>
      <point x="672" y="1054"/>
      <point x="672" y="920" type="curve" smooth="yes"/>
      <point x="672" y="915" type="line" smooth="yes"/>
      <point x="672" y="783"/>
      <point x="612" y="716"/>
      <point x="415" y="620" type="curve" smooth="yes"/>
      <point x="208" y="519"/>
      <point x="136" y="433"/>
      <point x="136" y="263" type="curve" smooth="yes"/>
      <point x="136" y="260" type="line" smooth="yes"/>
      <point x="136" y="88"/>
      <point x="243" y="-17"/>
    </contour>
    <contour>
      <point x="935" y="1122" type="curve"/>
      <point x="951" y="1134" type="line"/>
      <point x="1054" y="1137"/>
      <point x="1107" y="1187"/>
      <point x="1165" y="1266" type="curve" smooth="yes"/>
      <point x="1315" y="1469" type="line" smooth="yes"/>
      <point x="1376" y="1551"/>
      <point x="1428" y="1559"/>
      <point x="1489" y="1559" type="curve" smooth="yes"/>
      <point x="1515" y="1559" type="line"/>
      <point x="1511" y="1594" type="line"/>
      <point x="1486" y="1594" type="line" smooth="yes"/>
      <point x="1396" y="1594"/>
      <point x="1340" y="1564"/>
      <point x="1284" y="1488" type="curve" smooth="yes"/>
      <point x="1132" y="1280" type="line" smooth="yes"/>
      <point x="1074" y="1200"/>
      <point x="1019" y="1157"/>
      <point x="938" y="1157" type="curve"/>
      <point x="930" y="1157" type="line"/>
      <point x="846" y="1157"/>
      <point x="795" y="1201"/>
      <point x="748" y="1286" type="curve" smooth="yes"/>
      <point x="681" y="1406" type="line"/>
      <point x="640" y="1406" type="line"/>
      <point x="718" y="1270" type="line" smooth="yes"/>
      <point x="774" y="1172"/>
      <point x="833" y="1122"/>
    </contour>
    <component base="kombu_1" xOffset="732" yOffset="-18"/>
  </outline>
</glyph>
<glyph name="Ya.te" format="2">
  <advance width="2442"/>
  <unicode hex="0C2F"/>
  <anchor x="1221" y="-69" name="bottom"/>
  <outline>
    <contour>
      <point x="601" y="-18" type="curve" smooth="yes"/>
      <point x="873" y="-18"/>
      <point x="988" y="125"/>
      <point x="1028" y="307" type="curve"/>
      <point x="1036" y="340"/>
      <point x="1048" y="373"/>
      <point x="1048" y="461" type="curve" smooth="yes"/>
      <point x="1048" y="677" type="line" smooth="yes"/>
      <point x="1048" y="992"/>
      <point x="895" y="1166"/>
      <point x="601" y="1166" type="curve" smooth="yes"/>
      <point x="308" y="1166"/>
      <point x="154" y="992"/>
      <point x="154" y="677" type="curve" smooth="yes"/>
      <point x="154" y="462" type="line" smooth="yes"/>
      <point x="154" y="145"/>
      <point x="307" y="-18"/>
    </contour>
    <contour>
      <point x="601" y="17" type="curve" smooth="yes"/>
      <point x="332" y="17"/>
      <point x="192" y="169"/>
      <point x="192" y="462" type="curve" smooth="yes"/>
      <point x="192" y="677" type="line" smooth="yes"/>
      <point x="192" y="971"/>
      <point x="333" y="1132"/>
      <point x="601" y="1132" type="curve" smooth="yes"/>
      <point x="869" y="1132"/>
      <point x="1010" y="971"/>
      <point x="1010" y="677" type="curve" smooth="yes"/>
      <point x="1010" y="462" type="line" smooth="yes"/>
      <point x="1010" y="169"/>
      <point x="870" y="17"/>
    </contour>
    <contour>
      <point x="1337" y="-16" type="curve" smooth="yes"/>
      <point x="1543" y="-16"/>
      <point x="1631" y="106"/>
      <point x="1656" y="266" type="curve"/>
      <point x="1665" y="300"/>
      <point x="1668" y="334"/>
      <point x="1668" y="372" type="curve" smooth="yes"/>
      <point x="1668" y="691" type="line" smooth="yes"/>
      <point x="1668" y="990"/>
      <point x="1537" y="1148"/>
      <point x="1285" y="1151" type="curve"/>
      <point x="1278" y="1122" type="line"/>
      <point x="1513" y="1116"/>
      <point x="1630" y="971"/>
      <point x="1630" y="691" type="curve" smooth="yes"/>
      <point x="1630" y="374" type="line" smooth="yes"/>
      <point x="1630" y="140"/>
      <point x="1533" y="19"/>
      <point x="1335" y="19" type="curve" smooth="yes"/>
      <point x="1155" y="19"/>
      <point x="1048" y="129"/>
      <point x="1048" y="344" type="curve" smooth="yes"/>
      <point x="1048" y="467" type="line"/>
      <point x="1021" y="467" type="line"/>
      <point x="1021" y="325" type="line" smooth="yes"/>
      <point x="1021" y="99"/>
      <point x="1142" y="-16"/>
    </contour>
    <contour>
      <point x="1280" y="1122" type="curve"/>
      <point x="1290" y="1133" type="line"/>
      <point x="1392" y="1133"/>
      <point x="1457" y="1178"/>
      <point x="1521" y="1262" type="curve" smooth="yes"/>
      <point x="1679" y="1469" type="line" smooth="yes"/>
      <point x="1741" y="1550"/>
      <point x="1790" y="1559"/>
      <point x="1853" y="1559" type="curve" smooth="yes"/>
      <point x="1879" y="1559" type="line"/>
      <point x="1875" y="1594" type="line"/>
      <point x="1851" y="1594" type="line" smooth="yes"/>
      <point x="1763" y="1594"/>
      <point x="1711" y="1569"/>
      <point x="1650" y="1490" type="curve" smooth="yes"/>
      <point x="1488" y="1278" type="line" smooth="yes"/>
      <point x="1429" y="1201"/>
      <point x="1366" y="1157"/>
      <point x="1282" y="1157" type="curve" smooth="yes"/>
      <point x="1273" y="1157" type="line" smooth="yes"/>
      <point x="1177" y="1157"/>
      <point x="1119" y="1205"/>
      <point x="1075" y="1286" type="curve" smooth="yes"/>
      <point x="1010" y="1406" type="line"/>
      <point x="969" y="1406" type="line"/>
      <point x="1046" y="1270" type="line" smooth="yes"/>
      <point x="1102" y="1172"/>
      <point x="1165" y="1122"/>
    </contour>
    <component base="matraU.te" xOffset="1714"/>
  </outline>
</glyph>
<glyph name="Rra.te" format="2">
  <advance width="1611"/>
  <unicode hex="0C31"/>
  <anchor x="810" y="-69" name="bottom"/>
  <outline>
    <contour>
      <point x="500" y="-17" type="curve" smooth="yes"/>
      <point x="699" y="-17"/>
      <point x="795" y="92"/>
      <point x="809" y="236" type="curve"/>
      <point x="812" y="236" type="line"/>
      <point x="826" y="92"/>
      <point x="920" y="-17"/>
      <point x="1115" y="-17" type="curve" smooth="yes"/>
      <point x="1340" y="-17"/>
      <point x="1457" y="122"/>
      <point x="1457" y="408" type="curve" smooth="yes"/>
      <point x="1457" y="818" type="line" smooth="yes"/>
      <point x="1457" y="1051"/>
      <point x="1347" y="1166"/>
      <point x="1169" y="1166" type="curve" smooth="yes"/>
      <point x="992" y="1166"/>
      <point x="893" y="1061"/>
      <point x="893" y="864" type="curve" smooth="yes"/>
      <point x="893" y="827" type="line" smooth="yes"/>
      <point x="893" y="689"/>
      <point x="945" y="601"/>
      <point x="1034" y="554" type="curve"/>
      <point x="1034" y="551" type="line"/>
      <point x="697" y="551" type="line"/>
      <point x="703" y="516" type="line"/>
      <point x="1143" y="520" type="line"/>
      <point x="1143" y="550" type="line"/>
      <point x="1083" y="555" type="line"/>
      <point x="968" y="611"/>
      <point x="931" y="703"/>
      <point x="931" y="828" type="curve" smooth="yes"/>
      <point x="931" y="864" type="line" smooth="yes"/>
      <point x="931" y="1037"/>
      <point x="1015" y="1131"/>
      <point x="1169" y="1131" type="curve" smooth="yes"/>
      <point x="1323" y="1131"/>
      <point x="1419" y="1030"/>
      <point x="1419" y="817" type="curve" smooth="yes"/>
      <point x="1419" y="411" type="line" smooth="yes"/>
      <point x="1419" y="163"/>
      <point x="1334" y="18"/>
      <point x="1113" y="18" type="curve" smooth="yes"/>
      <point x="933" y="18"/>
      <point x="838" y="121"/>
      <point x="832" y="307" type="curve" smooth="yes"/>
      <point x="829" y="406" type="line"/>
      <point x="792" y="406" type="line"/>
      <point x="789" y="307" type="line" smooth="yes"/>
      <point x="783" y="121"/>
      <point x="687" y="18"/>
      <point x="502" y="18" type="curve" smooth="yes"/>
      <point x="273" y="18"/>
      <point x="192" y="169"/>
      <point x="192" y="408" type="curve" smooth="yes"/>
      <point x="192" y="608" type="line" smooth="yes"/>
      <point x="192" y="640"/>
      <point x="192" y="672"/>
      <point x="192" y="714" type="curve"/>
      <point x="192" y="716" type="line"/>
      <point x="192" y="724" type="line"/>
      <point x="192" y="834" type="line" smooth="yes"/>
      <point x="192" y="1042"/>
      <point x="288" y="1131"/>
      <point x="445" y="1131" type="curve" smooth="yes"/>
      <point x="597" y="1131"/>
      <point x="680" y="1033"/>
      <point x="680" y="864" type="curve" smooth="yes"/>
      <point x="680" y="828" type="line" smooth="yes"/>
      <point x="680" y="657"/>
      <point x="604" y="570"/>
      <point x="456" y="570" type="curve" smooth="yes"/>
      <point x="332" y="570"/>
      <point x="241" y="624"/>
      <point x="190" y="749" type="curve"/>
      <point x="181" y="722" type="line"/>
      <point x="225" y="602"/>
      <point x="320" y="535"/>
      <point x="456" y="535" type="curve" smooth="yes"/>
      <point x="627" y="535"/>
      <point x="718" y="634"/>
      <point x="718" y="827" type="curve" smooth="yes"/>
      <point x="718" y="864" type="line" smooth="yes"/>
      <point x="718" y="1055"/>
      <point x="621" y="1166"/>
      <point x="445" y="1166" type="curve" smooth="yes"/>
      <point x="268" y="1166"/>
      <point x="154" y="1068"/>
      <point x="154" y="833" type="curve" smooth="yes"/>
      <point x="154" y="408" type="line" smooth="yes"/>
      <point x="154" y="122"/>
      <point x="271" y="-17"/>
    </contour>
  </outline>
</glyph>
<glyph name="Lla.te" format="2">
  <advance width="1300"/>
  <unicode hex="0C33"/>
  <anchor x="662" y="-69" name="bottom"/>
  <outline>
    <contour>
      <point x="851" y="1123" type="curve"/>
      <point x="868" y="1134" type="line"/>
      <point x="979" y="1137"/>
      <point x="1037" y="1189"/>
      <point x="1093" y="1266" type="curve" smooth="yes"/>
      <point x="1241" y="1469" type="line" smooth="yes"/>
      <point x="1307" y="1559"/>
      <point x="1361" y="1559"/>
      <point x="1415" y="1559" type="curve" smooth="yes"/>
      <point x="1440" y="1559" type="line"/>
      <point x="1436" y="1594" type="line"/>
      <point x="1412" y="1594" type="line" smooth="yes"/>
      <point x="1328" y="1594"/>
      <point x="1269" y="1571"/>
      <point x="1211" y="1490" type="curve" smooth="yes"/>
      <point x="1060" y="1280" type="line" smooth="yes"/>
      <point x="1001" y="1198"/>
      <point x="940" y="1157"/>
      <point x="855" y="1157" type="curve" smooth="yes"/>
      <point x="847" y="1157" type="line" smooth="yes"/>
      <point x="758" y="1157"/>
      <point x="705" y="1205"/>
      <point x="661" y="1286" type="curve" smooth="yes"/>
      <point x="596" y="1406" type="line"/>
      <point x="556" y="1406" type="line"/>
      <point x="631" y="1270" type="line" smooth="yes"/>
      <point x="681" y="1179"/>
      <point x="739" y="1123"/>
    </contour>
    <contour>
      <point x="662" y="402" type="line"/>
      <point x="695" y="398" type="line"/>
      <point x="1013" y="398"/>
      <point x="1170" y="548"/>
      <point x="1170" y="791" type="curve" smooth="yes"/>
      <point x="1170" y="834" type="line" smooth="yes"/>
      <point x="1170" y="1036"/>
      <point x="1065" y="1144"/>
      <point x="862" y="1149" type="curve"/>
      <point x="852" y="1123" type="line"/>
      <point x="1039" y="1113"/>
      <point x="1132" y="1019"/>
      <point x="1132" y="832" type="curve" smooth="yes"/>
      <point x="1132" y="793" type="line" smooth="yes"/>
      <point x="1132" y="551"/>
      <point x="970" y="428"/>
      <point x="662" y="428" type="curve" smooth="yes"/>
      <point x="320" y="428"/>
      <point x="168" y="567"/>
      <point x="168" y="791" type="curve" smooth="yes"/>
      <point x="168" y="807" type="line"/>
      <point x="168" y="810" type="line"/>
      <point x="168" y="823" type="line"/>
      <point x="168" y="873" type="line" smooth="yes"/>
      <point x="168" y="1039"/>
      <point x="248" y="1131"/>
      <point x="389" y="1131" type="curve" smooth="yes"/>
      <point x="526" y="1131"/>
      <point x="597" y="1051"/>
      <point x="597" y="904" type="curve" smooth="yes"/>
      <point x="597" y="890" type="line" smooth="yes"/>
      <point x="597" y="747"/>
      <point x="531" y="671"/>
      <point x="405" y="671" type="curve" smooth="yes"/>
      <point x="294" y="671"/>
      <point x="209" y="724"/>
      <point x="159" y="855" type="curve"/>
      <point x="149" y="828" type="line"/>
      <point x="192" y="701"/>
      <point x="282" y="636"/>
      <point x="406" y="636" type="curve" smooth="yes"/>
      <point x="555" y="636"/>
      <point x="635" y="726"/>
      <point x="635" y="888" type="curve" smooth="yes"/>
      <point x="635" y="904" type="line" smooth="yes"/>
      <point x="635" y="1074"/>
      <point x="549" y="1166"/>
      <point x="389" y="1166" type="curve" smooth="yes"/>
      <point x="223" y="1166"/>
      <point x="130" y="1060"/>
      <point x="130" y="872" type="curve" smooth="yes"/>
      <point x="130" y="790" type="line" smooth="yes"/>
      <point x="130" y="553"/>
      <point x="294" y="398"/>
      <point x="627" y="398" type="curve"/>
    </contour>
    <contour>
      <point x="662" y="419" type="curve" smooth="yes"/>
      <point x="463" y="419"/>
      <point x="366" y="340"/>
      <point x="366" y="207" type="curve" smooth="yes"/>
      <point x="366" y="199" type="line" smooth="yes"/>
      <point x="366" y="62"/>
      <point x="470" y="-23"/>
      <point x="662" y="-23" type="curve" smooth="yes"/>
      <point x="854" y="-23"/>
      <point x="958" y="62"/>
      <point x="958" y="199" type="curve" smooth="yes"/>
      <point x="958" y="207" type="line" smooth="yes"/>
      <point x="958" y="340"/>
      <point x="862" y="419"/>
    </contour>
    <contour>
      <point x="662" y="12" type="curve" smooth="yes"/>
      <point x="495" y="12"/>
      <point x="404" y="83"/>
      <point x="404" y="200" type="curve" smooth="yes"/>
      <point x="404" y="207" type="line" smooth="yes"/>
      <point x="404" y="324"/>
      <point x="490" y="393"/>
      <point x="662" y="393" type="curve" smooth="yes"/>
      <point x="835" y="393"/>
      <point x="920" y="324"/>
      <point x="920" y="207" type="curve" smooth="yes"/>
      <point x="920" y="200" type="line" smooth="yes"/>
      <point x="920" y="83"/>
      <point x="829" y="12"/>
    </contour>
  </outline>
</glyph>
<glyph name="Va.te" format="2">
  <advance width="1426"/>
  <unicode hex="0C35"/>
  <anchor x="677" y="-69" name="bottom"/>
  <outline>
    <contour>
      <point x="406" y="-17" type="curve" smooth="yes"/>
      <point x="573" y="-17"/>
      <point x="659" y="76"/>
      <point x="674" y="208" type="curve"/>
      <point x="677" y="208" type="line"/>
      <point x="696" y="75"/>
      <point x="794" y="-17"/>
      <point x="962" y="-17" type="curve" smooth="yes"/>
      <point x="1168" y="-17"/>
      <point x="1272" y="109"/>
      <point x="1272" y="349" type="curve" smooth="yes"/>
      <point x="1272" y="611" type="line" smooth="yes"/>
      <point x="1272" y="980"/>
      <point x="1074" y="1155"/>
      <point x="688" y="1155" type="curve" smooth="yes"/>
      <point x="600" y="1155" type="line"/>
      <point x="544" y="1145" type="line"/>
      <point x="541" y="1123" type="line"/>
      <point x="687" y="1123" type="line" smooth="yes"/>
      <point x="1061" y="1123"/>
      <point x="1234" y="960"/>
      <point x="1234" y="611" type="curve" smooth="yes"/>
      <point x="1234" y="349" type="line" smooth="yes"/>
      <point x="1234" y="129"/>
      <point x="1142" y="18"/>
      <point x="962" y="18" type="curve" smooth="yes"/>
      <point x="802" y="18"/>
      <point x="694" y="109"/>
      <point x="694" y="291" type="curve" smooth="yes"/>
      <point x="694" y="364" type="line" smooth="yes"/>
      <point x="694" y="560"/>
      <point x="596" y="671"/>
      <point x="409" y="671" type="curve" smooth="yes"/>
      <point x="224" y="671"/>
      <point x="124" y="562"/>
      <point x="124" y="364" type="curve" smooth="yes"/>
      <point x="124" y="291" type="line" smooth="yes"/>
      <point x="124" y="93"/>
      <point x="224" y="-17"/>
    </contour>
    <contour>
      <point x="408" y="18" type="curve" smooth="yes"/>
      <point x="248" y="18"/>
      <point x="162" y="114"/>
      <point x="162" y="291" type="curve" smooth="yes"/>
      <point x="162" y="364" type="line" smooth="yes"/>
      <point x="162" y="541"/>
      <point x="248" y="636"/>
      <point x="409" y="636" type="curve" smooth="yes"/>
      <point x="571" y="636"/>
      <point x="656" y="541"/>
      <point x="656" y="364" type="curve" smooth="yes"/>
      <point x="656" y="293" type="line" smooth="yes"/>
      <point x="656" y="115"/>
      <point x="571" y="18"/>
    </contour>
    <contour>
      <point x="541" y="1123" type="curve"/>
      <point x="551" y="1133" type="line"/>
      <point x="654" y="1133"/>
      <point x="723" y="1175"/>
      <point x="792" y="1262" type="curve" smooth="yes"/>
      <point x="957" y="1469" type="line" smooth="yes"/>
      <point x="1018" y="1546"/>
      <point x="1065" y="1559"/>
      <point x="1132" y="1559" type="curve" smooth="yes"/>
      <point x="1203" y="1559" type="line"/>
      <point x="1199" y="1594" type="line"/>
      <point x="1130" y="1594" type="line" smooth="yes"/>
      <point x="1040" y="1594"/>
      <point x="989" y="1565"/>
      <point x="929" y="1490" type="curve" smooth="yes"/>
      <point x="759" y="1278" type="line" smooth="yes"/>
      <point x="701" y="1206"/>
      <point x="635" y="1157"/>
      <point x="542" y="1157" type="curve"/>
      <point x="532" y="1157" type="line"/>
      <point x="432" y="1157"/>
      <point x="375" y="1205"/>
      <point x="330" y="1286" type="curve" smooth="yes"/>
      <point x="264" y="1406" type="line"/>
      <point x="223" y="1406" type="line"/>
      <point x="300" y="1270" type="line" smooth="yes"/>
      <point x="351" y="1180"/>
      <point x="412" y="1123"/>
    </contour>
  </outline>
</glyph>
<glyph name="Sa.te" format="2">
  <advance width="1410"/>
  <unicode hex="0C38"/>
  <anchor x="659" y="-69" name="bottom"/>
  <outline>
    <contour>
      <point x="969" y="-18" type="curve" smooth="yes"/>
      <point x="1160" y="-18"/>
      <point x="1256" y="120"/>
      <point x="1256" y="358" type="curve" smooth="yes"/>
      <point x="1256" y="582" type="line"/>
      <point x="1218" y="582" type="line"/>
      <point x="1218" y="358" type="line" smooth="yes"/>
      <point x="1218" y="140"/>
      <point x="1135" y="17"/>
      <point x="969" y="17" type="curve" smooth="yes"/>
      <point x="810" y="17"/>
      <point x="723" y="105"/>
      <point x="700" y="283" type="curve" smooth="yes"/>
      <point x="690" y="361" type="line" smooth="yes"/>
      <point x="667" y="542"/>
      <point x="595" y="662"/>
      <point x="399" y="662" type="curve" smooth="yes"/>
      <point x="229" y="662"/>
      <point x="128" y="551"/>
      <point x="128" y="357" type="curve" smooth="yes"/>
      <point x="128" y="293" type="line" smooth="yes"/>
      <point x="128" y="177"/>
      <point x="155" y="80"/>
      <point x="193" y="0" type="curve"/>
      <point x="237" y="0" type="line"/>
      <point x="188" y="92"/>
      <point x="166" y="187"/>
      <point x="166" y="293" type="curve" smooth="yes"/>
      <point x="166" y="357" type="line" smooth="yes"/>
      <point x="166" y="537"/>
      <point x="258" y="627"/>
      <point x="401" y="627" type="curve" smooth="yes"/>
      <point x="561" y="627"/>
      <point x="630" y="532"/>
      <point x="652" y="360" type="curve" smooth="yes"/>
      <point x="662" y="282" type="line" smooth="yes"/>
      <point x="688" y="80"/>
      <point x="790" y="-18"/>
    </contour>
    <contour>
      <point x="448" y="1119" type="curve" smooth="yes"/>
      <point x="457" y="1119" type="line" smooth="yes"/>
      <point x="563" y="1119"/>
      <point x="638" y="1176"/>
      <point x="707" y="1262" type="curve" smooth="yes"/>
      <point x="872" y="1469" type="line" smooth="yes"/>
      <point x="933" y="1546"/>
      <point x="979" y="1560"/>
      <point x="1046" y="1560" type="curve" smooth="yes"/>
      <point x="1128" y="1560" type="line"/>
      <point x="1124" y="1594" type="line"/>
      <point x="1044" y="1594" type="line" smooth="yes"/>
      <point x="955" y="1594"/>
      <point x="903" y="1565"/>
      <point x="843" y="1490" type="curve" smooth="yes"/>
      <point x="673" y="1278" type="line" smooth="yes"/>
      <point x="609" y="1198"/>
      <point x="546" y="1154"/>
      <point x="458" y="1154" type="curve" smooth="yes"/>
      <point x="448" y="1154" type="line" smooth="yes"/>
      <point x="356" y="1154"/>
      <point x="293" y="1198"/>
      <point x="244" y="1287" type="curve" smooth="yes"/>
      <point x="179" y="1406" type="line"/>
      <point x="137" y="1406" type="line"/>
      <point x="214" y="1271" type="line" smooth="yes"/>
      <point x="269" y="1175"/>
      <point x="332" y="1119"/>
    </contour>
    <contour>
      <point x="1218" y="509" type="line"/>
      <point x="1256" y="509" type="line"/>
      <point x="1256" y="676" type="line" smooth="yes"/>
      <point x="1256" y="990"/>
      <point x="1122" y="1155"/>
      <point x="873" y="1155" type="curve"/>
      <point x="863" y="1155" type="line"/>
      <point x="857" y="1120" type="line"/>
      <point x="864" y="1120" type="line"/>
      <point x="1101" y="1120"/>
      <point x="1218" y="971"/>
      <point x="1218" y="675" type="curve" smooth="yes"/>
    </contour>
  </outline>
</glyph>
<glyph name="Ha.te" format="2">
  <advance width="2215"/>
  <unicode hex="0C39"/>
  <anchor x="682" y="-69" name="bottom"/>
  <outline>
    <contour>
      <point x="412" y="-17" type="curve" smooth="yes"/>
      <point x="579" y="-17"/>
      <point x="665" y="76"/>
      <point x="680" y="208" type="curve"/>
      <point x="683" y="208" type="line"/>
      <point x="702" y="75"/>
      <point x="800" y="-17"/>
      <point x="968" y="-17" type="curve" smooth="yes"/>
      <point x="1174" y="-17"/>
      <point x="1278" y="116"/>
      <point x="1278" y="361" type="curve" smooth="yes"/>
      <point x="1278" y="676" type="line" smooth="yes"/>
      <point x="1278" y="978"/>
      <point x="1153" y="1132"/>
      <point x="920" y="1146" type="curve"/>
      <point x="885" y="1155" type="line"/>
      <point x="879" y="1120" type="line"/>
      <point x="886" y="1120" type="line" smooth="yes"/>
      <point x="1123" y="1120"/>
      <point x="1240" y="971"/>
      <point x="1240" y="675" type="curve" smooth="yes"/>
      <point x="1240" y="361" type="line" smooth="yes"/>
      <point x="1240" y="135"/>
      <point x="1148" y="18"/>
      <point x="968" y="18" type="curve" smooth="yes"/>
      <point x="808" y="18"/>
      <point x="700" y="109"/>
      <point x="700" y="291" type="curve" smooth="yes"/>
      <point x="700" y="365" type="line" smooth="yes"/>
      <point x="700" y="560"/>
      <point x="602" y="671"/>
      <point x="415" y="671" type="curve" smooth="yes"/>
      <point x="230" y="671"/>
      <point x="130" y="562"/>
      <point x="130" y="364" type="curve" smooth="yes"/>
      <point x="130" y="291" type="line" smooth="yes"/>
      <point x="130" y="93"/>
      <point x="230" y="-17"/>
    </contour>
    <contour>
      <point x="414" y="18" type="curve" smooth="yes"/>
      <point x="254" y="18"/>
      <point x="168" y="114"/>
      <point x="168" y="291" type="curve" smooth="yes"/>
      <point x="168" y="364" type="line" smooth="yes"/>
      <point x="168" y="541"/>
      <point x="254" y="636"/>
      <point x="415" y="636" type="curve" smooth="yes"/>
      <point x="577" y="636"/>
      <point x="662" y="541"/>
      <point x="662" y="365" type="curve" smooth="yes"/>
      <point x="662" y="293" type="line" smooth="yes"/>
      <point x="662" y="115"/>
      <point x="577" y="18"/>
    </contour>
    <contour>
      <point x="449" y="1121" type="curve"/>
      <point x="458" y="1121" type="line" smooth="yes"/>
      <point x="563" y="1121"/>
      <point x="638" y="1175"/>
      <point x="708" y="1262" type="curve" smooth="yes"/>
      <point x="873" y="1469" type="line" smooth="yes"/>
      <point x="934" y="1545"/>
      <point x="980" y="1559"/>
      <point x="1047" y="1559" type="curve" smooth="yes"/>
      <point x="1129" y="1559" type="line"/>
      <point x="1125" y="1594" type="line"/>
      <point x="1045" y="1594" type="line" smooth="yes"/>
      <point x="958" y="1594"/>
      <point x="907" y="1569"/>
      <point x="844" y="1490" type="curve" smooth="yes"/>
      <point x="674" y="1277" type="line" smooth="yes"/>
      <point x="617" y="1205"/>
      <point x="553" y="1155"/>
      <point x="459" y="1155" type="curve"/>
      <point x="449" y="1155" type="line"/>
      <point x="354" y="1155"/>
      <point x="291" y="1201"/>
      <point x="245" y="1286" type="curve" smooth="yes"/>
      <point x="180" y="1406" type="line"/>
      <point x="138" y="1406" type="line"/>
      <point x="215" y="1270" type="line" smooth="yes"/>
      <point x="271" y="1171"/>
      <point x="338" y="1121"/>
    </contour>
    <contour>
      <point x="1785" y="265" type="curve" smooth="yes"/>
      <point x="1973" y="265"/>
      <point x="2061" y="377"/>
      <point x="2061" y="580" type="curve" smooth="yes"/>
      <point x="2061" y="711" type="line" smooth="yes"/>
      <point x="2061" y="981"/>
      <point x="1934" y="1155"/>
      <point x="1625" y="1155" type="curve" smooth="yes"/>
      <point x="885" y="1155" type="line"/>
      <point x="892" y="1129" type="line"/>
      <point x="1165" y="1121" type="line"/>
      <point x="1624" y="1121" type="line" smooth="yes"/>
      <point x="1910" y="1121"/>
      <point x="2023" y="965"/>
      <point x="2023" y="718" type="curve" smooth="yes"/>
      <point x="2023" y="687" type="line"/>
      <point x="2023" y="683" type="line"/>
      <point x="2023" y="679" type="line"/>
      <point x="2023" y="576" type="line" smooth="yes"/>
      <point x="2023" y="397"/>
      <point x="1946" y="300"/>
      <point x="1785" y="300" type="curve" smooth="yes"/>
      <point x="1636" y="300"/>
      <point x="1553" y="395"/>
      <point x="1553" y="554" type="curve" smooth="yes"/>
      <point x="1553" y="562" type="line" smooth="yes"/>
      <point x="1553" y="732"/>
      <point x="1632" y="821"/>
      <point x="1780" y="821" type="curve" smooth="yes"/>
      <point x="1894" y="821"/>
      <point x="1983" y="765"/>
      <point x="2025" y="648" type="curve"/>
      <point x="2035" y="674" type="line"/>
      <point x="2003" y="783"/>
      <point x="1914" y="856"/>
      <point x="1777" y="856" type="curve" smooth="yes"/>
      <point x="1607" y="856"/>
      <point x="1515" y="752"/>
      <point x="1515" y="564" type="curve" smooth="yes"/>
      <point x="1515" y="554" type="line" smooth="yes"/>
      <point x="1515" y="375"/>
      <point x="1611" y="265"/>
    </contour>
  </outline>
</glyph>
<glyph name="Avagraha.te" format="2">
  <advance width="1132"/>
  <unicode hex="0C3D"/>
  <outline>
    <contour>
      <point x="478" y="0" type="curve" smooth="yes"/>
      <point x="1098" y="0" type="line"/>
      <point x="1098" y="35" type="line"/>
      <point x="478" y="35" type="line" smooth="yes"/>
      <point x="265" y="35"/>
      <point x="172" y="104"/>
      <point x="172" y="243" type="curve" smooth="yes"/>
      <point x="172" y="245" type="line" smooth="yes"/>
      <point x="172" y="384"/>
      <point x="236" y="447"/>
      <point x="547" y="540" type="curve" smooth="yes"/>
      <point x="841" y="628"/>
      <point x="924" y="714"/>
      <point x="924" y="874" type="curve" smooth="yes"/>
      <point x="924" y="885" type="line" smooth="yes"/>
      <point x="924" y="1064"/>
      <point x="791" y="1160"/>
      <point x="540" y="1160" type="curve" smooth="yes"/>
      <point x="287" y="1160"/>
      <point x="150" y="1057"/>
      <point x="150" y="865" type="curve" smooth="yes"/>
      <point x="150" y="858" type="line" smooth="yes"/>
      <point x="150" y="829"/>
      <point x="151" y="802"/>
      <point x="157" y="762" type="curve"/>
      <point x="196" y="762" type="line"/>
      <point x="189" y="799"/>
      <point x="188" y="830"/>
      <point x="188" y="858" type="curve" smooth="yes"/>
      <point x="188" y="865" type="line" smooth="yes"/>
      <point x="188" y="1033"/>
      <point x="309" y="1125"/>
      <point x="540" y="1125" type="curve" smooth="yes"/>
      <point x="767" y="1125"/>
      <point x="886" y="1042"/>
      <point x="886" y="885" type="curve" smooth="yes"/>
      <point x="886" y="874" type="line" smooth="yes"/>
      <point x="886" y="736"/>
      <point x="818" y="660"/>
      <point x="532" y="572" type="curve" smooth="yes"/>
      <point x="211" y="483"/>
      <point x="134" y="401"/>
      <point x="134" y="245" type="curve" smooth="yes"/>
      <point x="134" y="243" type="line" smooth="yes"/>
      <point x="134" y="84"/>
      <point x="243" y="0"/>
    </contour>
  </outline>
</glyph>
<glyph name="matraAa.te" format="2">
  <advance width="940"/>
  <unicode hex="0C3E"/>
  <outline>
    <contour>
      <point x="510" y="265" type="curve" smooth="yes"/>
      <point x="698" y="265"/>
      <point x="786" y="377"/>
      <point x="786" y="580" type="curve" smooth="yes"/>
      <point x="786" y="711" type="line"/>
      <point x="786" y="981"/>
      <point x="659" y="1155"/>
      <point x="350" y="1155" type="curve" smooth="yes"/>
      <point x="-401" y="1155" type="line"/>
      <point x="-401" y="1121" type="line"/>
      <point x="349" y="1121" type="line" smooth="yes"/>
      <point x="635" y="1121"/>
      <point x="748" y="965"/>
      <point x="748" y="718" type="curve" smooth="yes"/>
      <point x="748" y="687" type="line"/>
      <point x="748" y="683" type="line"/>
      <point x="748" y="679" type="line"/>
      <point x="748" y="576" type="line" smooth="yes"/>
      <point x="748" y="397"/>
      <point x="671" y="300"/>
      <point x="510" y="300" type="curve" smooth="yes"/>
      <point x="361" y="300"/>
      <point x="278" y="395"/>
      <point x="278" y="554" type="curve" smooth="yes"/>
      <point x="278" y="562" type="line" smooth="yes"/>
      <point x="278" y="732"/>
      <point x="357" y="821"/>
      <point x="505" y="821" type="curve" smooth="yes"/>
      <point x="619" y="821"/>
      <point x="708" y="765"/>
      <point x="750" y="648" type="curve"/>
      <point x="760" y="674" type="line"/>
      <point x="728" y="783"/>
      <point x="639" y="856"/>
      <point x="502" y="856" type="curve" smooth="yes"/>
      <point x="332" y="856"/>
      <point x="240" y="752"/>
      <point x="240" y="564" type="curve" smooth="yes"/>
      <point x="240" y="554" type="line" smooth="yes"/>
      <point x="240" y="375"/>
      <point x="336" y="265"/>
    </contour>
  </outline>
</glyph>
<glyph name="matraI.te" format="2">
  <advance width="32"/>
  <unicode hex="0C3F"/>
  <outline>
    <contour>
      <point x="-476" y="1100" type="curve" smooth="yes"/>
      <point x="-289" y="1100"/>
      <point x="-191" y="1222"/>
      <point x="-191" y="1422" type="curve" smooth="yes"/>
      <point x="-191" y="1458" type="line" smooth="yes"/>
      <point x="-191" y="1628"/>
      <point x="-283" y="1712"/>
      <point x="-468" y="1712" type="curve" smooth="yes"/>
      <point x="-638" y="1712"/>
      <point x="-722" y="1644"/>
      <point x="-722" y="1513" type="curve" smooth="yes"/>
      <point x="-722" y="1511" type="line" smooth="yes"/>
      <point x="-722" y="1382"/>
      <point x="-641" y="1316"/>
      <point x="-477" y="1316" type="curve" smooth="yes"/>
      <point x="-334" y="1316"/>
      <point x="-256" y="1372"/>
      <point x="-220" y="1440" type="curve"/>
      <point x="-226" y="1470" type="line"/>
      <point x="-270" y="1399"/>
      <point x="-340" y="1351"/>
      <point x="-475" y="1351" type="curve" smooth="yes"/>
      <point x="-615" y="1351"/>
      <point x="-684" y="1404"/>
      <point x="-684" y="1511" type="curve" smooth="yes"/>
      <point x="-684" y="1513" type="line" smooth="yes"/>
      <point x="-684" y="1624"/>
      <point x="-613" y="1677"/>
      <point x="-468" y="1677" type="curve" smooth="yes"/>
      <point x="-307" y="1677"/>
      <point x="-229" y="1606"/>
      <point x="-229" y="1460" type="curve"/>
      <point x="-229" y="1440" type="line"/>
      <point x="-229" y="1433" type="line"/>
      <point x="-229" y="1429" type="line"/>
      <point x="-229" y="1422" type="line"/>
      <point x="-229" y="1251"/>
      <point x="-308" y="1135"/>
      <point x="-476" y="1135" type="curve" smooth="yes"/>
      <point x="-552" y="1135"/>
      <point x="-631" y="1150"/>
      <point x="-704" y="1196" type="curve"/>
      <point x="-699" y="1156" type="line"/>
      <point x="-628" y="1116"/>
      <point x="-556" y="1100"/>
    </contour>
  </outline>
</glyph>
<glyph name="matraU.te" format="2">
  <advance width="728"/>
  <unicode hex="0C41"/>
  <outline>
    <contour>
      <point x="243" y="-16" type="curve" smooth="yes"/>
      <point x="462" y="-16"/>
      <point x="574" y="119"/>
      <point x="574" y="376" type="curve" smooth="yes"/>
      <point x="574" y="546" type="line"/>
      <point x="536" y="546" type="line"/>
      <point x="536" y="376" type="line" smooth="yes"/>
      <point x="536" y="141"/>
      <point x="439" y="19"/>
      <point x="242" y="19" type="curve" smooth="yes"/>
      <point x="60" y="19"/>
      <point x="-47" y="118"/>
      <point x="-47" y="312" type="curve" smooth="yes"/>
      <point x="-47" y="347" type="line"/>
      <point x="-67" y="347" type="line"/>
      <point x="-67" y="268" type="line" smooth="yes"/>
      <point x="-67" y="97"/>
      <point x="46" y="-16"/>
    </contour>
    <component base="Terminals.te" xOffset="135"/>
  </outline>
</glyph>
<glyph name="matraUu.te" format="2">
  <advance width="1523"/>
  <unicode hex="0C42"/>
  <outline>
    <contour>
      <point x="255" y="-16" type="curve" smooth="yes"/>
      <point x="474" y="-16"/>
      <point x="586" y="119"/>
      <point x="586" y="376" type="curve" smooth="yes"/>
      <point x="586" y="546" type="line"/>
      <point x="548" y="546" type="line"/>
      <point x="548" y="376" type="line" smooth="yes"/>
      <point x="548" y="141"/>
      <point x="451" y="19"/>
      <point x="254" y="19" type="curve" smooth="yes"/>
      <point x="72" y="19"/>
      <point x="-35" y="118"/>
      <point x="-35" y="312" type="curve" smooth="yes"/>
      <point x="-35" y="347" type="line"/>
      <point x="-55" y="347" type="line"/>
      <point x="-55" y="268" type="line" smooth="yes"/>
      <point x="-55" y="97"/>
      <point x="58" y="-16"/>
    </contour>
    <contour>
      <point x="548" y="516" type="line"/>
      <point x="586" y="516" type="line"/>
      <point x="586" y="677" type="line" smooth="yes"/>
      <point x="586" y="985"/>
      <point x="455" y="1144"/>
      <point x="212" y="1147" type="curve"/>
      <point x="193" y="1156" type="line"/>
      <point x="187" y="1121" type="line"/>
      <point x="194" y="1121" type="line"/>
      <point x="427" y="1121"/>
      <point x="548" y="971"/>
      <point x="548" y="676" type="curve" smooth="yes"/>
    </contour>
    <contour>
      <point x="1093" y="266" type="curve" smooth="yes"/>
      <point x="1278" y="266"/>
      <point x="1369" y="378"/>
      <point x="1369" y="581" type="curve" smooth="yes"/>
      <point x="1369" y="712" type="line" smooth="yes"/>
      <point x="1369" y="984"/>
      <point x="1242" y="1156"/>
      <point x="933" y="1156" type="curve" smooth="yes"/>
      <point x="193" y="1156" type="line"/>
      <point x="193" y="1130" type="line"/>
      <point x="466" y="1122" type="line"/>
      <point x="931" y="1122" type="line" smooth="yes"/>
      <point x="1217" y="1122"/>
      <point x="1331" y="966"/>
      <point x="1331" y="719" type="curve" smooth="yes"/>
      <point x="1331" y="688" type="line"/>
      <point x="1331" y="684" type="line"/>
      <point x="1331" y="680" type="line"/>
      <point x="1331" y="577" type="line" smooth="yes"/>
      <point x="1331" y="398"/>
      <point x="1251" y="301"/>
      <point x="1093" y="301" type="curve" smooth="yes"/>
      <point x="947" y="301"/>
      <point x="861" y="396"/>
      <point x="861" y="555" type="curve" smooth="yes"/>
      <point x="861" y="563" type="line" smooth="yes"/>
      <point x="861" y="733"/>
      <point x="940" y="822"/>
      <point x="1088" y="822" type="curve" smooth="yes"/>
      <point x="1202" y="822"/>
      <point x="1291" y="766"/>
      <point x="1333" y="649" type="curve"/>
      <point x="1343" y="675" type="line"/>
      <point x="1311" y="784"/>
      <point x="1222" y="857"/>
      <point x="1085" y="857" type="curve" smooth="yes"/>
      <point x="915" y="857"/>
      <point x="823" y="753"/>
      <point x="823" y="564" type="curve" smooth="yes"/>
      <point x="823" y="555" type="line" smooth="yes"/>
      <point x="823" y="376"/>
      <point x="922" y="266"/>
    </contour>
  </outline>
</glyph>
<glyph name="matraVocalicR.te" format="2">
  <advance width="314"/>
  <unicode hex="0C43"/>
  <outline>
    <contour>
      <point x="-17" y="-620" type="curve" smooth="yes"/>
      <point x="172" y="-620"/>
      <point x="265" y="-506"/>
      <point x="265" y="-281" type="curve" smooth="yes"/>
      <point x="265" y="88" type="line" smooth="yes"/>
      <point x="265" y="404"/>
      <point x="153" y="545"/>
      <point x="9" y="550" type="curve"/>
      <point x="2" y="518" type="line"/>
      <point x="131" y="513"/>
      <point x="230" y="388"/>
      <point x="230" y="89" type="curve" smooth="yes"/>
      <point x="230" y="-280" type="line" smooth="yes"/>
      <point x="230" y="-487"/>
      <point x="152" y="-588"/>
      <point x="-17" y="-588" type="curve" smooth="yes"/>
      <point x="-173" y="-588"/>
      <point x="-255" y="-505"/>
      <point x="-255" y="-363" type="curve"/>
      <point x="-255" y="-357" type="line"/>
      <point x="-255" y="-354" type="line"/>
      <point x="-255" y="-342" type="line"/>
      <point x="-255" y="-306" type="line" smooth="yes"/>
      <point x="-255" y="-219"/>
      <point x="-211" y="-165"/>
      <point x="-127" y="-165" type="curve" smooth="yes"/>
      <point x="-53" y="-165"/>
      <point x="-14" y="-211"/>
      <point x="-14" y="-283" type="curve" smooth="yes"/>
      <point x="-14" y="-294" type="line" smooth="yes"/>
      <point x="-14" y="-360"/>
      <point x="-49" y="-404"/>
      <point x="-118" y="-404" type="curve" smooth="yes"/>
      <point x="-179" y="-404"/>
      <point x="-227" y="-378"/>
      <point x="-257" y="-319" type="curve"/>
      <point x="-261" y="-348" type="line"/>
      <point x="-238" y="-401"/>
      <point x="-186" y="-436"/>
      <point x="-114" y="-436" type="curve" smooth="yes"/>
      <point x="-26" y="-436"/>
      <point x="20" y="-377"/>
      <point x="20" y="-294" type="curve" smooth="yes"/>
      <point x="20" y="-283" type="line" smooth="yes"/>
      <point x="20" y="-192"/>
      <point x="-33" y="-133"/>
      <point x="-127" y="-133" type="curve" smooth="yes"/>
      <point x="-232" y="-133"/>
      <point x="-289" y="-200"/>
      <point x="-289" y="-306" type="curve" smooth="yes"/>
      <point x="-289" y="-363" type="line" smooth="yes"/>
      <point x="-289" y="-523"/>
      <point x="-192" y="-620"/>
    </contour>
  </outline>
</glyph>
<glyph name="matraVocalicRr.te" format="2">
  <advance width="756"/>
  <unicode hex="0C44"/>
  <outline>
    <contour>
      <point x="-17" y="-620" type="curve" smooth="yes"/>
      <point x="172" y="-620"/>
      <point x="265" y="-506"/>
      <point x="265" y="-281" type="curve" smooth="yes"/>
      <point x="265" y="90" type="line" smooth="yes"/>
      <point x="265" y="396"/>
      <point x="155" y="537"/>
      <point x="17" y="544" type="curve"/>
      <point x="9" y="550" type="line"/>
      <point x="2" y="518" type="line"/>
      <point x="126" y="518"/>
      <point x="230" y="388"/>
      <point x="230" y="89" type="curve" smooth="yes"/>
      <point x="230" y="-280" type="line" smooth="yes"/>
      <point x="230" y="-487"/>
      <point x="152" y="-588"/>
      <point x="-17" y="-588" type="curve" smooth="yes"/>
      <point x="-173" y="-588"/>
      <point x="-255" y="-505"/>
      <point x="-255" y="-363" type="curve"/>
      <point x="-255" y="-357" type="line"/>
      <point x="-255" y="-354" type="line"/>
      <point x="-255" y="-342" type="line"/>
      <point x="-255" y="-306" type="line" smooth="yes"/>
      <point x="-255" y="-219"/>
      <point x="-211" y="-165"/>
      <point x="-127" y="-165" type="curve" smooth="yes"/>
      <point x="-53" y="-165"/>
      <point x="-14" y="-211"/>
      <point x="-14" y="-283" type="curve" smooth="yes"/>
      <point x="-14" y="-294" type="line" smooth="yes"/>
      <point x="-14" y="-357"/>
      <point x="-49" y="-404"/>
      <point x="-118" y="-404" type="curve" smooth="yes"/>
      <point x="-179" y="-404"/>
      <point x="-227" y="-378"/>
      <point x="-257" y="-319" type="curve"/>
      <point x="-261" y="-348" type="line"/>
      <point x="-238" y="-401"/>
      <point x="-186" y="-436"/>
      <point x="-114" y="-436" type="curve" smooth="yes"/>
      <point x="-26" y="-436"/>
      <point x="20" y="-374"/>
      <point x="20" y="-294" type="curve" smooth="yes"/>
      <point x="20" y="-283" type="line" smooth="yes"/>
      <point x="20" y="-192"/>
      <point x="-33" y="-133"/>
      <point x="-127" y="-133" type="curve" smooth="yes"/>
      <point x="-232" y="-133"/>
      <point x="-289" y="-200"/>
      <point x="-289" y="-306" type="curve" smooth="yes"/>
      <point x="-289" y="-363" type="line" smooth="yes"/>
      <point x="-289" y="-523"/>
      <point x="-192" y="-620"/>
    </contour>
    <contour>
      <point x="529" y="43" type="curve" smooth="yes"/>
      <point x="627" y="43"/>
      <point x="680" y="110"/>
      <point x="680" y="221" type="curve" smooth="yes"/>
      <point x="680" y="307" type="line" smooth="yes"/>
      <point x="680" y="468"/>
      <point x="592" y="550"/>
      <point x="419" y="550" type="curve" smooth="yes"/>
      <point x="9" y="550" type="line"/>
      <point x="12" y="524" type="line"/>
      <point x="200" y="518" type="line"/>
      <point x="418" y="518" type="line" smooth="yes"/>
      <point x="570" y="518"/>
      <point x="646" y="449"/>
      <point x="646" y="309" type="curve" smooth="yes"/>
      <point x="646" y="293" type="line"/>
      <point x="646" y="291" type="line"/>
      <point x="646" y="279" type="line"/>
      <point x="646" y="220" type="line" smooth="yes"/>
      <point x="646" y="129"/>
      <point x="606" y="75"/>
      <point x="530" y="75" type="curve" smooth="yes"/>
      <point x="452" y="75"/>
      <point x="411" y="124"/>
      <point x="411" y="201" type="curve" smooth="yes"/>
      <point x="411" y="210" type="line" smooth="yes"/>
      <point x="411" y="293"/>
      <point x="455" y="334"/>
      <point x="522" y="334" type="curve" smooth="yes"/>
      <point x="582" y="334"/>
      <point x="625" y="309"/>
      <point x="650" y="254" type="curve"/>
      <point x="655" y="280" type="line"/>
      <point x="637" y="330"/>
      <point x="591" y="366"/>
      <point x="520" y="366" type="curve" smooth="yes"/>
      <point x="435" y="366"/>
      <point x="377" y="311"/>
      <point x="377" y="211" type="curve" smooth="yes"/>
      <point x="377" y="201" type="line" smooth="yes"/>
      <point x="377" y="104"/>
      <point x="432" y="43"/>
    </contour>
  </outline>
</glyph>
<glyph name="matraE.te" format="2">
  <advance width="32"/>
  <unicode hex="0C46"/>
  <outline>
    <contour>
      <point x="-207" y="1498" type="curve" smooth="yes"/>
      <point x="-710" y="1498" type="line"/>
      <point x="-716" y="1463" type="line"/>
      <point x="-207" y="1463" type="line" smooth="yes"/>
      <point x="-81" y="1463"/>
      <point x="-21" y="1412"/>
      <point x="-21" y="1309" type="curve" smooth="yes"/>
      <point x="-21" y="1207"/>
      <point x="-83" y="1155"/>
      <point x="-207" y="1155" type="curve" smooth="yes"/>
      <point x="-453" y="1155" type="line"/>
      <point x="-453" y="1121" type="line"/>
      <point x="-207" y="1121" type="line" smooth="yes"/>
      <point x="-58" y="1121"/>
      <point x="17" y="1184"/>
      <point x="17" y="1309" type="curve" smooth="yes"/>
      <point x="17" y="1435"/>
      <point x="-59" y="1498"/>
    </contour>
  </outline>
</glyph>
<glyph name="matraO.te" format="2">
  <advance width="898"/>
  <unicode hex="0C4A"/>
  <outline>
    <contour>
      <point x="512" y="458" type="curve" smooth="yes"/>
      <point x="691" y="458"/>
      <point x="782" y="567"/>
      <point x="782" y="775" type="curve" smooth="yes"/>
      <point x="782" y="1018" type="line" smooth="yes"/>
      <point x="782" y="1269"/>
      <point x="674" y="1427"/>
      <point x="420" y="1427" type="curve" smooth="yes"/>
      <point x="235" y="1427"/>
      <point x="130" y="1338"/>
      <point x="113" y="1221" type="curve"/>
      <point x="110" y="1221" type="line"/>
      <point x="95" y="1421"/>
      <point x="-72" y="1512"/>
      <point x="-358" y="1512" type="curve" smooth="yes"/>
      <point x="-452" y="1512" type="line" smooth="yes"/>
      <point x="-678" y="1512"/>
      <point x="-789" y="1443"/>
      <point x="-789" y="1306" type="curve" smooth="yes"/>
      <point x="-789" y="1187"/>
      <point x="-701" y="1128"/>
      <point x="-541" y="1128" type="curve" smooth="yes"/>
      <point x="-408" y="1128" type="line"/>
      <point x="-402" y="1155" type="line"/>
      <point x="-532" y="1155" type="line" smooth="yes"/>
      <point x="-672" y="1155"/>
      <point x="-751" y="1205"/>
      <point x="-751" y="1306" type="curve" smooth="yes"/>
      <point x="-751" y="1430"/>
      <point x="-634" y="1477"/>
      <point x="-452" y="1477" type="curve" smooth="yes"/>
      <point x="-358" y="1477" type="line" smooth="yes"/>
      <point x="-83" y="1477"/>
      <point x="80" y="1401"/>
      <point x="86" y="1174" type="curve" smooth="yes"/>
      <point x="87" y="1135" type="line"/>
      <point x="127" y="1135" type="line"/>
      <point x="129" y="1168" type="line" smooth="yes"/>
      <point x="138" y="1309"/>
      <point x="246" y="1392"/>
      <point x="419" y="1392" type="curve" smooth="yes"/>
      <point x="653" y="1392"/>
      <point x="744" y="1244"/>
      <point x="744" y="1016" type="curve" smooth="yes"/>
      <point x="744" y="934" type="line"/>
      <point x="744" y="930" type="line"/>
      <point x="744" y="922" type="line"/>
      <point x="744" y="773" type="line" smooth="yes"/>
      <point x="744" y="586"/>
      <point x="665" y="493"/>
      <point x="512" y="493" type="curve" smooth="yes"/>
      <point x="367" y="493"/>
      <point x="278" y="587"/>
      <point x="278" y="743" type="curve" smooth="yes"/>
      <point x="278" y="785" type="line" smooth="yes"/>
      <point x="278" y="956"/>
      <point x="356" y="1048"/>
      <point x="503" y="1048" type="curve" smooth="yes"/>
      <point x="616" y="1048"/>
      <point x="700" y="995"/>
      <point x="746" y="883" type="curve"/>
      <point x="756" y="909" type="line"/>
      <point x="722" y="1011"/>
      <point x="637" y="1082"/>
      <point x="500" y="1082" type="curve" smooth="yes"/>
      <point x="332" y="1082"/>
      <point x="240" y="978"/>
      <point x="240" y="786" type="curve" smooth="yes"/>
      <point x="240" y="743" type="line" smooth="yes"/>
      <point x="240" y="568"/>
      <point x="342" y="458"/>
    </contour>
  </outline>
</glyph>
<glyph name="matraAu.te" format="2">
  <advance width="948"/>
  <unicode hex="0C4C"/>
  <outline>
    <contour>
      <point x="582" y="605" type="curve" smooth="yes"/>
      <point x="761" y="605"/>
      <point x="852" y="714"/>
      <point x="852" y="922" type="curve" smooth="yes"/>
      <point x="852" y="1070" type="line" smooth="yes"/>
      <point x="852" y="1333"/>
      <point x="720" y="1498"/>
      <point x="405" y="1498" type="curve" smooth="yes"/>
      <point x="-681" y="1498" type="line"/>
      <point x="-687" y="1463" type="line"/>
      <point x="-63" y="1463" type="line"/>
      <point x="-59" y="1468" type="line"/>
      <point x="46" y="1463" type="line"/>
      <point x="404" y="1463" type="line" smooth="yes"/>
      <point x="699" y="1463"/>
      <point x="814" y="1312"/>
      <point x="814" y="1072" type="curve" smooth="yes"/>
      <point x="814" y="1042" type="line"/>
      <point x="814" y="1038" type="line"/>
      <point x="814" y="1025" type="line"/>
      <point x="814" y="920" type="line" smooth="yes"/>
      <point x="814" y="733"/>
      <point x="735" y="640"/>
      <point x="582" y="640" type="curve" smooth="yes"/>
      <point x="437" y="640"/>
      <point x="348" y="736"/>
      <point x="348" y="890" type="curve" smooth="yes"/>
      <point x="348" y="912" type="line" smooth="yes"/>
      <point x="348" y="1078"/>
      <point x="426" y="1168"/>
      <point x="573" y="1168" type="curve" smooth="yes"/>
      <point x="686" y="1168"/>
      <point x="770" y="1114"/>
      <point x="816" y="1006" type="curve"/>
      <point x="826" y="1032" type="line"/>
      <point x="792" y="1130"/>
      <point x="707" y="1202"/>
      <point x="570" y="1202" type="curve" smooth="yes"/>
      <point x="402" y="1202"/>
      <point x="310" y="1100"/>
      <point x="310" y="913" type="curve" smooth="yes"/>
      <point x="310" y="890" type="line" smooth="yes"/>
      <point x="310" y="717"/>
      <point x="412" y="605"/>
    </contour>
    <contour>
      <point x="-420" y="1127" type="line"/>
      <point x="-166" y="1127" type="line" smooth="yes"/>
      <point x="-18" y="1127"/>
      <point x="55" y="1187"/>
      <point x="55" y="1309" type="curve" smooth="yes"/>
      <point x="55" y="1427"/>
      <point x="-20" y="1487"/>
      <point x="-168" y="1487" type="curve" smooth="yes"/>
      <point x="-390" y="1487" type="line"/>
      <point x="-395" y="1463" type="line"/>
      <point x="-168" y="1463" type="line" smooth="yes"/>
      <point x="-50" y="1463"/>
      <point x="18" y="1418"/>
      <point x="18" y="1309" type="curve" smooth="yes"/>
      <point x="18" y="1207"/>
      <point x="-44" y="1155"/>
      <point x="-168" y="1155" type="curve" smooth="yes"/>
      <point x="-420" y="1155" type="line"/>
    </contour>
  </outline>
</glyph>
<glyph name="Halant.te" format="2">
  <advance width="32"/>
  <unicode hex="0C4D"/>
  <outline>
    <contour>
      <point x="-488" y="1121" type="curve" smooth="yes"/>
      <point x="-282" y="1121" type="line"/>
      <point x="-282" y="1155" type="line"/>
      <point x="-488" y="1155" type="line" smooth="yes"/>
      <point x="-589" y="1155"/>
      <point x="-652" y="1188"/>
      <point x="-652" y="1276" type="curve" smooth="yes"/>
      <point x="-652" y="1360"/>
      <point x="-598" y="1401"/>
      <point x="-488" y="1401" type="curve" smooth="yes"/>
      <point x="-102" y="1401" type="line"/>
      <point x="-102" y="1435" type="line"/>
      <point x="-493" y="1435" type="line" smooth="yes"/>
      <point x="-601" y="1435"/>
      <point x="-674" y="1471"/>
      <point x="-674" y="1564" type="curve" smooth="yes"/>
      <point x="-674" y="1655"/>
      <point x="-607" y="1691"/>
      <point x="-493" y="1691" type="curve" smooth="yes"/>
      <point x="95" y="1691" type="line"/>
      <point x="89" y="1726" type="line"/>
      <point x="-493" y="1726" type="line" smooth="yes"/>
      <point x="-627" y="1726"/>
      <point x="-712" y="1681"/>
      <point x="-712" y="1564" type="curve" smooth="yes"/>
      <point x="-712" y="1478"/>
      <point x="-657" y="1430"/>
      <point x="-572" y="1419" type="curve"/>
      <point x="-572" y="1416" type="line"/>
      <point x="-640" y="1405"/>
      <point x="-690" y="1363"/>
      <point x="-690" y="1277" type="curve" smooth="yes"/>
      <point x="-690" y="1174"/>
      <point x="-624" y="1121"/>
    </contour>
  </outline>
</glyph>
<glyph name="Lengthmark.te" format="2">
  <advance width="32"/>
  <unicode hex="0C55"/>
  <outline>
    <contour>
      <point x="730" y="1912" type="curve"/>
      <point x="726" y="1953" type="line"/>
      <point x="683" y="1983"/>
      <point x="620" y="2010"/>
      <point x="530" y="2010" type="curve" smooth="yes"/>
      <point x="401" y="2010"/>
      <point x="330" y="1948"/>
      <point x="330" y="1849" type="curve" smooth="yes"/>
      <point x="330" y="1762"/>
      <point x="386" y="1707"/>
      <point x="504" y="1688" type="curve"/>
      <point x="515" y="1708" type="line"/>
      <point x="410" y="1729"/>
      <point x="367" y="1774"/>
      <point x="367" y="1847" type="curve" smooth="yes"/>
      <point x="367" y="1929"/>
      <point x="425" y="1976"/>
      <point x="530" y="1976" type="curve" smooth="yes"/>
      <point x="614" y="1976"/>
      <point x="681" y="1949"/>
    </contour>
  </outline>
</glyph>
<glyph name="matraAiLengthmark.te" format="2">
  <advance width="12"/>
  <unicode hex="0C56"/>
  <anchor x="-19" y="-44" name="_bottom"/>
  <outline>
    <contour>
      <point x="-366" y="-506" type="curve" smooth="yes"/>
      <point x="387" y="-506" type="line"/>
      <point x="392" y="-474" type="line"/>
      <point x="-260" y="-474" type="line"/>
      <point x="-260" y="-471" type="line"/>
      <point x="-206" y="-448"/>
      <point x="-180" y="-397"/>
      <point x="-180" y="-323" type="curve" smooth="yes"/>
      <point x="-180" y="-309" type="line" smooth="yes"/>
      <point x="-180" y="-196"/>
      <point x="-246" y="-128"/>
      <point x="-367" y="-128" type="curve" smooth="yes"/>
      <point x="-487" y="-128"/>
      <point x="-554" y="-196"/>
      <point x="-554" y="-309" type="curve" smooth="yes"/>
      <point x="-554" y="-323" type="line" smooth="yes"/>
      <point x="-554" y="-443"/>
      <point x="-488" y="-506"/>
    </contour>
    <contour>
      <point x="-367" y="-474" type="curve" smooth="yes"/>
      <point x="-468" y="-474"/>
      <point x="-519" y="-423"/>
      <point x="-519" y="-323" type="curve" smooth="yes"/>
      <point x="-519" y="-309" type="line" smooth="yes"/>
      <point x="-519" y="-216"/>
      <point x="-466" y="-160"/>
      <point x="-367" y="-160" type="curve" smooth="yes"/>
      <point x="-268" y="-160"/>
      <point x="-215" y="-216"/>
      <point x="-215" y="-309" type="curve" smooth="yes"/>
      <point x="-215" y="-323" type="line" smooth="yes"/>
      <point x="-215" y="-423"/>
      <point x="-265" y="-474"/>
    </contour>
  </outline>
</glyph>
<glyph name="Tsa.te" format="2">
  <advance width="1484"/>
  <unicode hex="0C58"/>
  <anchor x="752" y="-69" name="bottom"/>
  <outline>
    <contour>
      <point x="81" y="1524" type="line"/>
      <point x="783" y="1524" type="line" smooth="yes"/>
      <point x="905" y="1524"/>
      <point x="971" y="1587"/>
      <point x="971" y="1707" type="curve" smooth="yes"/>
      <point x="971" y="1721" type="line" smooth="yes"/>
      <point x="971" y="1834"/>
      <point x="904" y="1902"/>
      <point x="784" y="1902" type="curve" smooth="yes"/>
      <point x="663" y="1902"/>
      <point x="597" y="1834"/>
      <point x="597" y="1721" type="curve" smooth="yes"/>
      <point x="597" y="1707" type="line" smooth="yes"/>
      <point x="597" y="1633"/>
      <point x="623" y="1582"/>
      <point x="677" y="1559" type="curve"/>
      <point x="677" y="1556" type="line"/>
      <point x="76" y="1556" type="line"/>
    </contour>
    <contour>
      <point x="784" y="1556" type="curve"/>
      <point x="682" y="1556"/>
      <point x="632" y="1607"/>
      <point x="632" y="1707" type="curve" smooth="yes"/>
      <point x="632" y="1721" type="line" smooth="yes"/>
      <point x="632" y="1814"/>
      <point x="685" y="1870"/>
      <point x="784" y="1870" type="curve" smooth="yes"/>
      <point x="883" y="1870"/>
      <point x="936" y="1814"/>
      <point x="936" y="1721" type="curve" smooth="yes"/>
      <point x="936" y="1707" type="line" smooth="yes"/>
      <point x="936" y="1607"/>
      <point x="885" y="1556"/>
    </contour>
    <component base="Ca.te"/>
  </outline>
</glyph>
<glyph name="Dza.te" format="2">
  <advance width="1449"/>
  <unicode hex="0C59"/>
  <anchor x="730" y="-69" name="bottom"/>
  <outline>
    <contour>
      <point x="168" y="1325" type="line"/>
      <point x="1080" y="1325" type="line" smooth="yes"/>
      <point x="1202" y="1325"/>
      <point x="1268" y="1388"/>
      <point x="1268" y="1508" type="curve" smooth="yes"/>
      <point x="1268" y="1522" type="line" smooth="yes"/>
      <point x="1268" y="1635"/>
      <point x="1201" y="1703"/>
      <point x="1081" y="1703" type="curve" smooth="yes"/>
      <point x="960" y="1703"/>
      <point x="894" y="1635"/>
      <point x="894" y="1522" type="curve" smooth="yes"/>
      <point x="894" y="1508" type="line" smooth="yes"/>
      <point x="894" y="1434"/>
      <point x="920" y="1383"/>
      <point x="974" y="1360" type="curve"/>
      <point x="974" y="1357" type="line"/>
      <point x="162" y="1357" type="line"/>
    </contour>
    <contour>
      <point x="1081" y="1357" type="curve"/>
      <point x="979" y="1357"/>
      <point x="929" y="1408"/>
      <point x="929" y="1508" type="curve" smooth="yes"/>
      <point x="929" y="1522" type="line" smooth="yes"/>
      <point x="929" y="1615"/>
      <point x="982" y="1671"/>
      <point x="1081" y="1671" type="curve" smooth="yes"/>
      <point x="1180" y="1671"/>
      <point x="1233" y="1615"/>
      <point x="1233" y="1522" type="curve" smooth="yes"/>
      <point x="1233" y="1508" type="line" smooth="yes"/>
      <point x="1233" y="1408"/>
      <point x="1182" y="1357"/>
    </contour>
    <component base="Ja.te"/>
  </outline>
</glyph>
<glyph name="Rrr.te" format="2">
  <advance width="1469"/>
  <unicode hex="0C5A"/>
  <outline>
    <contour>
      <point x="183" y="637" type="line"/>
      <point x="1284" y="637" type="line"/>
      <point x="1284" y="669" type="line"/>
      <point x="183" y="669" type="line"/>
    </contour>
    <contour>
      <point x="459" y="-16" type="curve" smooth="yes"/>
      <point x="635" y="-16"/>
      <point x="723" y="89"/>
      <point x="733" y="244" type="curve"/>
      <point x="736" y="244" type="line"/>
      <point x="745" y="89"/>
      <point x="834" y="-16"/>
      <point x="1010" y="-16" type="curve" smooth="yes"/>
      <point x="1209" y="-16"/>
      <point x="1315" y="102"/>
      <point x="1315" y="326" type="curve" smooth="yes"/>
      <point x="1315" y="619" type="line" smooth="yes"/>
      <point x="1315" y="981"/>
      <point x="1122" y="1161"/>
      <point x="734" y="1161" type="curve" smooth="yes"/>
      <point x="347" y="1161"/>
      <point x="154" y="981"/>
      <point x="154" y="619" type="curve" smooth="yes"/>
      <point x="154" y="326" type="line" smooth="yes"/>
      <point x="154" y="101"/>
      <point x="260" y="-16"/>
    </contour>
    <contour>
      <point x="461" y="18" type="curve" smooth="yes"/>
      <point x="282" y="18"/>
      <point x="192" y="123"/>
      <point x="192" y="328" type="curve" smooth="yes"/>
      <point x="192" y="619" type="line" smooth="yes"/>
      <point x="192" y="960"/>
      <point x="369" y="1127"/>
      <point x="734" y="1127" type="curve" smooth="yes"/>
      <point x="1100" y="1127"/>
      <point x="1277" y="960"/>
      <point x="1277" y="619" type="curve" smooth="yes"/>
      <point x="1277" y="328" type="line" smooth="yes"/>
      <point x="1277" y="123"/>
      <point x="1187" y="18"/>
      <point x="1008" y="18" type="curve" smooth="yes"/>
      <point x="851" y="18"/>
      <point x="765" y="110"/>
      <point x="756" y="307" type="curve" smooth="yes"/>
      <point x="753" y="434" type="line"/>
      <point x="716" y="434" type="line"/>
      <point x="713" y="307" type="line" smooth="yes"/>
      <point x="705" y="115"/>
      <point x="622" y="18"/>
    </contour>
  </outline>
</glyph>
<glyph name="vowelVocalicRr.te" format="2">
  <advance width="3499"/>
  <unicode hex="0C60"/>
  <anchor x="748" y="0" name="_bottom"/>
  <outline>
    <contour>
      <point x="434" y="-17" type="curve" smooth="yes"/>
      <point x="621" y="-17"/>
      <point x="716" y="86"/>
      <point x="727" y="245" type="curve"/>
      <point x="730" y="245" type="line"/>
      <point x="741" y="86"/>
      <point x="832" y="-17"/>
      <point x="1015" y="-17" type="curve" smooth="yes"/>
      <point x="1187" y="-17"/>
      <point x="1286" y="86"/>
      <point x="1307" y="258" type="curve"/>
      <point x="1315" y="289"/>
      <point x="1321" y="322"/>
      <point x="1321" y="357" type="curve" smooth="yes"/>
      <point x="1321" y="593" type="line"/>
      <point x="1283" y="593" type="line"/>
      <point x="1283" y="359" type="line" smooth="yes"/>
      <point x="1283" y="139"/>
      <point x="1197" y="18"/>
      <point x="1013" y="18" type="curve" smooth="yes"/>
      <point x="843" y="18"/>
      <point x="753" y="120"/>
      <point x="750" y="308" type="curve" smooth="yes"/>
      <point x="748" y="434" type="line"/>
      <point x="709" y="434" type="line"/>
      <point x="707" y="308" type="line" smooth="yes"/>
      <point x="704" y="120"/>
      <point x="612" y="18"/>
      <point x="436" y="18" type="curve" smooth="yes"/>
      <point x="260" y="18"/>
      <point x="174" y="114"/>
      <point x="174" y="261" type="curve" smooth="yes"/>
      <point x="174" y="263" type="line" smooth="yes"/>
      <point x="174" y="403"/>
      <point x="220" y="486"/>
      <point x="442" y="594" type="curve" smooth="yes"/>
      <point x="637" y="689"/>
      <point x="710" y="765"/>
      <point x="710" y="915" type="curve" smooth="yes"/>
      <point x="710" y="920" type="line" smooth="yes"/>
      <point x="710" y="1077"/>
      <point x="612" y="1166"/>
      <point x="431" y="1166" type="curve" smooth="yes"/>
      <point x="246" y="1166"/>
      <point x="146" y="1074"/>
      <point x="146" y="902" type="curve" smooth="yes"/>
      <point x="146" y="894" type="line" smooth="yes"/>
      <point x="146" y="818"/>
      <point x="162" y="754"/>
      <point x="188" y="691" type="curve"/>
      <point x="228" y="691" type="line"/>
      <point x="199" y="756"/>
      <point x="184" y="824"/>
      <point x="184" y="893" type="curve" smooth="yes"/>
      <point x="184" y="901" type="line" smooth="yes"/>
      <point x="184" y="1052"/>
      <point x="269" y="1131"/>
      <point x="431" y="1131" type="curve" smooth="yes"/>
      <point x="589" y="1131"/>
      <point x="672" y="1054"/>
      <point x="672" y="920" type="curve" smooth="yes"/>
      <point x="672" y="915" type="line" smooth="yes"/>
      <point x="672" y="783"/>
      <point x="613" y="716"/>
      <point x="415" y="620" type="curve" smooth="yes"/>
      <point x="208" y="519"/>
      <point x="136" y="433"/>
      <point x="136" y="263" type="curve" smooth="yes"/>
      <point x="136" y="260" type="line" smooth="yes"/>
      <point x="136" y="88"/>
      <point x="243" y="-17"/>
    </contour>
    <contour>
      <point x="1321" y="312" type="curve" smooth="yes"/>
      <point x="1321" y="383" type="line"/>
      <point x="1295" y="383" type="line"/>
      <point x="1295" y="293" type="line" smooth="yes"/>
      <point x="1295" y="87"/>
      <point x="1414" y="-16"/>
      <point x="1611" y="-16" type="curve" smooth="yes"/>
      <point x="1818" y="-16"/>
      <point x="1904" y="107"/>
      <point x="1930" y="266" type="curve"/>
      <point x="1938" y="301"/>
      <point x="1942" y="331"/>
      <point x="1942" y="374" type="curve" smooth="yes"/>
      <point x="1942" y="572" type="line"/>
      <point x="1904" y="572" type="line"/>
      <point x="1904" y="376" type="line" smooth="yes"/>
      <point x="1904" y="140"/>
      <point x="1806" y="18"/>
      <point x="1609" y="18" type="curve" smooth="yes"/>
      <point x="1427" y="18"/>
      <point x="1321" y="117"/>
    </contour>
    <contour>
      <point x="2231" y="-16" type="curve" smooth="yes"/>
      <point x="2450" y="-16"/>
      <point x="2562" y="119"/>
      <point x="2562" y="376" type="curve" smooth="yes"/>
      <point x="2562" y="547" type="line"/>
      <point x="2524" y="547" type="line"/>
      <point x="2524" y="376" type="line" smooth="yes"/>
      <point x="2524" y="141"/>
      <point x="2427" y="19"/>
      <point x="2230" y="19" type="curve" smooth="yes"/>
      <point x="2048" y="19"/>
      <point x="1941" y="118"/>
      <point x="1941" y="312" type="curve"/>
      <point x="1941" y="347" type="line"/>
      <point x="1921" y="347" type="line"/>
      <point x="1921" y="268" type="line"/>
      <point x="1921" y="97"/>
      <point x="2034" y="-16"/>
    </contour>
    <contour>
      <point x="2524" y="515" type="line"/>
      <point x="2562" y="515" type="line"/>
      <point x="2562" y="676" type="line" smooth="yes"/>
      <point x="2562" y="968"/>
      <point x="2443" y="1143"/>
      <point x="2189" y="1146" type="curve"/>
      <point x="2169" y="1155" type="line"/>
      <point x="2163" y="1121" type="line"/>
      <point x="2170" y="1121" type="line"/>
      <point x="2417" y="1121"/>
      <point x="2524" y="955"/>
      <point x="2524" y="675" type="curve" smooth="yes"/>
    </contour>
    <contour>
      <point x="3069" y="265" type="curve" smooth="yes"/>
      <point x="3254" y="265"/>
      <point x="3345" y="377"/>
      <point x="3345" y="580" type="curve" smooth="yes"/>
      <point x="3345" y="711" type="line" smooth="yes"/>
      <point x="3345" y="983"/>
      <point x="3218" y="1155"/>
      <point x="2909" y="1155" type="curve" smooth="yes"/>
      <point x="2169" y="1155" type="line"/>
      <point x="2176" y="1129" type="line"/>
      <point x="2449" y="1121" type="line"/>
      <point x="2908" y="1121" type="line" smooth="yes"/>
      <point x="3194" y="1121"/>
      <point x="3307" y="965"/>
      <point x="3307" y="718" type="curve" smooth="yes"/>
      <point x="3307" y="687" type="line"/>
      <point x="3307" y="683" type="line"/>
      <point x="3307" y="679" type="line"/>
      <point x="3307" y="576" type="line" smooth="yes"/>
      <point x="3307" y="397"/>
      <point x="3227" y="300"/>
      <point x="3069" y="300" type="curve" smooth="yes"/>
      <point x="2923" y="300"/>
      <point x="2837" y="395"/>
      <point x="2837" y="554" type="curve" smooth="yes"/>
      <point x="2837" y="562" type="line" smooth="yes"/>
      <point x="2837" y="732"/>
      <point x="2916" y="821"/>
      <point x="3064" y="821" type="curve" smooth="yes"/>
      <point x="3178" y="821"/>
      <point x="3267" y="765"/>
      <point x="3309" y="648" type="curve"/>
      <point x="3319" y="674" type="line"/>
      <point x="3287" y="783"/>
      <point x="3198" y="856"/>
      <point x="3061" y="856" type="curve" smooth="yes"/>
      <point x="2891" y="856"/>
      <point x="2799" y="752"/>
      <point x="2799" y="564" type="curve" smooth="yes"/>
      <point x="2799" y="554" type="line" smooth="yes"/>
      <point x="2799" y="375"/>
      <point x="2898" y="265"/>
    </contour>
    <component base="Terminals.te" xOffset="1503"/>
    <component base="Terminals.te" xOffset="882"/>
  </outline>
</glyph>
<glyph name="vowelVocalicLl.te" format="2">
  <advance width="2617"/>
  <unicode hex="0C61"/>
  <outline>
    <contour>
      <point x="1155" y="-19" type="curve" smooth="yes"/>
      <point x="1508" y="-19"/>
      <point x="1687" y="159"/>
      <point x="1687" y="500" type="curve" smooth="yes"/>
      <point x="1687" y="710" type="line" smooth="yes"/>
      <point x="1687" y="986"/>
      <point x="1565" y="1147"/>
      <point x="1338" y="1147" type="curve"/>
      <point x="1329" y="1155" type="line"/>
      <point x="1324" y="1120" type="line"/>
      <point x="1330" y="1120" type="line" smooth="yes"/>
      <point x="1540" y="1120"/>
      <point x="1649" y="972"/>
      <point x="1649" y="709" type="curve" smooth="yes"/>
      <point x="1649" y="502" type="line" smooth="yes"/>
      <point x="1649" y="177"/>
      <point x="1485" y="16"/>
      <point x="1155" y="16" type="curve" smooth="yes"/>
      <point x="883" y="16"/>
      <point x="739" y="110"/>
      <point x="739" y="277" type="curve" smooth="yes"/>
      <point x="739" y="279" type="line" smooth="yes"/>
      <point x="739" y="428"/>
      <point x="811" y="494"/>
      <point x="1008" y="593" type="curve" smooth="yes"/>
      <point x="1189" y="673"/>
      <point x="1231" y="764"/>
      <point x="1231" y="895" type="curve" smooth="yes"/>
      <point x="1231" y="900" type="line" smooth="yes"/>
      <point x="1231" y="1070"/>
      <point x="1138" y="1166"/>
      <point x="949" y="1166" type="curve" smooth="yes"/>
      <point x="771" y="1166"/>
      <point x="679" y="1068"/>
      <point x="669" y="929" type="curve"/>
      <point x="666" y="929" type="line"/>
      <point x="656" y="1068"/>
      <point x="576" y="1166"/>
      <point x="400" y="1166" type="curve" smooth="yes"/>
      <point x="219" y="1166"/>
      <point x="124" y="1064"/>
      <point x="124" y="868" type="curve" smooth="yes"/>
      <point x="124" y="860" type="line" smooth="yes"/>
      <point x="124" y="792"/>
      <point x="132" y="727"/>
      <point x="150" y="674" type="curve"/>
      <point x="189" y="674" type="line"/>
      <point x="171" y="728"/>
      <point x="162" y="795"/>
      <point x="162" y="860" type="curve" smooth="yes"/>
      <point x="162" y="866" type="line" smooth="yes"/>
      <point x="162" y="1042"/>
      <point x="241" y="1131"/>
      <point x="402" y="1131" type="curve" smooth="yes"/>
      <point x="570" y="1131"/>
      <point x="644" y="1033"/>
      <point x="646" y="864" type="curve" smooth="yes"/>
      <point x="648" y="727" type="line"/>
      <point x="687" y="727" type="line"/>
      <point x="689" y="864" type="line" smooth="yes"/>
      <point x="691" y="1033"/>
      <point x="785" y="1131"/>
      <point x="948" y="1131" type="curve" smooth="yes"/>
      <point x="1117" y="1131"/>
      <point x="1193" y="1046"/>
      <point x="1193" y="899" type="curve" smooth="yes"/>
      <point x="1193" y="895" type="line" smooth="yes"/>
      <point x="1193" y="792"/>
      <point x="1174" y="710"/>
      <point x="986" y="621" type="curve" smooth="yes"/>
      <point x="781" y="524"/>
      <point x="701" y="440"/>
      <point x="701" y="279" type="curve" smooth="yes"/>
      <point x="701" y="276" type="line" smooth="yes"/>
      <point x="701" y="91"/>
      <point x="855" y="-19"/>
    </contour>
    <contour>
      <point x="2187" y="265" type="curve" smooth="yes"/>
      <point x="2372" y="265"/>
      <point x="2463" y="377"/>
      <point x="2463" y="580" type="curve" smooth="yes"/>
      <point x="2463" y="711" type="line" smooth="yes"/>
      <point x="2463" y="983"/>
      <point x="2336" y="1155"/>
      <point x="2027" y="1155" type="curve" smooth="yes"/>
      <point x="1329" y="1155" type="line"/>
      <point x="1332" y="1129" type="line"/>
      <point x="1574" y="1121" type="line"/>
      <point x="2026" y="1121" type="line" smooth="yes"/>
      <point x="2312" y="1121"/>
      <point x="2425" y="965"/>
      <point x="2425" y="718" type="curve" smooth="yes"/>
      <point x="2425" y="687" type="line"/>
      <point x="2425" y="683" type="line"/>
      <point x="2425" y="679" type="line"/>
      <point x="2425" y="576" type="line" smooth="yes"/>
      <point x="2425" y="397"/>
      <point x="2345" y="300"/>
      <point x="2187" y="300" type="curve" smooth="yes"/>
      <point x="2041" y="300"/>
      <point x="1955" y="395"/>
      <point x="1955" y="554" type="curve" smooth="yes"/>
      <point x="1955" y="562" type="line" smooth="yes"/>
      <point x="1955" y="732"/>
      <point x="2034" y="821"/>
      <point x="2182" y="821" type="curve" smooth="yes"/>
      <point x="2296" y="821"/>
      <point x="2385" y="765"/>
      <point x="2427" y="648" type="curve"/>
      <point x="2437" y="674" type="line"/>
      <point x="2405" y="783"/>
      <point x="2316" y="856"/>
      <point x="2179" y="856" type="curve" smooth="yes"/>
      <point x="2009" y="856"/>
      <point x="1917" y="752"/>
      <point x="1917" y="564" type="curve" smooth="yes"/>
      <point x="1917" y="554" type="line" smooth="yes"/>
      <point x="1917" y="375"/>
      <point x="2016" y="265"/>
    </contour>
  </outline>
</glyph>
<glyph name="VocalicLsmall1.te" format="2">
  <advance width="12"/>
  <unicode hex="0C62"/>
  <anchor x="-58" y="-21" name="_bottom"/>
  <outline>
    <contour>
      <point x="75" y="-687" type="curve" smooth="yes"/>
      <point x="276" y="-687"/>
      <point x="376" y="-593"/>
      <point x="376" y="-415" type="curve" smooth="yes"/>
      <point x="376" y="-345" type="line" smooth="yes"/>
      <point x="376" y="-200"/>
      <point x="311" y="-117"/>
      <point x="194" y="-117" type="curve" smooth="yes"/>
      <point x="190" y="-117" type="line"/>
      <point x="185" y="-149" type="line"/>
      <point x="189" y="-149" type="line" smooth="yes"/>
      <point x="290" y="-149"/>
      <point x="342" y="-218"/>
      <point x="342" y="-346" type="curve" smooth="yes"/>
      <point x="342" y="-415" type="line" smooth="yes"/>
      <point x="342" y="-573"/>
      <point x="258" y="-655"/>
      <point x="75" y="-655" type="curve" smooth="yes"/>
      <point x="-69" y="-655"/>
      <point x="-148" y="-612"/>
      <point x="-148" y="-534" type="curve" smooth="yes"/>
      <point x="-148" y="-530" type="line" smooth="yes"/>
      <point x="-148" y="-473"/>
      <point x="-113" y="-439"/>
      <point x="-6" y="-399" type="curve" smooth="yes"/>
      <point x="109" y="-356"/>
      <point x="140" y="-312"/>
      <point x="140" y="-250" type="curve" smooth="yes"/>
      <point x="140" y="-247" type="line" smooth="yes"/>
      <point x="140" y="-164"/>
      <point x="83" y="-116"/>
      <point x="-22" y="-116" type="curve" smooth="yes"/>
      <point x="-123" y="-116"/>
      <point x="-180" y="-163"/>
      <point x="-192" y="-240" type="curve"/>
      <point x="-195" y="-240" type="line"/>
      <point x="-205" y="-163"/>
      <point x="-257" y="-116"/>
      <point x="-350" y="-116" type="curve" smooth="yes"/>
      <point x="-459" y="-116"/>
      <point x="-518" y="-172"/>
      <point x="-518" y="-277" type="curve" smooth="yes"/>
      <point x="-518" y="-282" type="line" smooth="yes"/>
      <point x="-518" y="-307"/>
      <point x="-515" y="-334"/>
      <point x="-507" y="-359" type="curve"/>
      <point x="-473" y="-359" type="line"/>
      <point x="-480" y="-332"/>
      <point x="-484" y="-305"/>
      <point x="-484" y="-281" type="curve" smooth="yes"/>
      <point x="-484" y="-278" type="line" smooth="yes"/>
      <point x="-484" y="-190"/>
      <point x="-439" y="-148"/>
      <point x="-350" y="-148" type="curve" smooth="yes"/>
      <point x="-266" y="-148"/>
      <point x="-219" y="-191"/>
      <point x="-214" y="-281" type="curve" smooth="yes"/>
      <point x="-211" y="-337" type="line"/>
      <point x="-176" y="-337" type="line"/>
      <point x="-173" y="-281" type="line" smooth="yes"/>
      <point x="-168" y="-191"/>
      <point x="-117" y="-148"/>
      <point x="-23" y="-148" type="curve" smooth="yes"/>
      <point x="62" y="-148"/>
      <point x="105" y="-184"/>
      <point x="105" y="-247" type="curve" smooth="yes"/>
      <point x="105" y="-250" type="line" smooth="yes"/>
      <point x="105" y="-295"/>
      <point x="83" y="-331"/>
      <point x="-25" y="-372" type="curve" smooth="yes"/>
      <point x="-147" y="-418"/>
      <point x="-183" y="-460"/>
      <point x="-183" y="-530" type="curve" smooth="yes"/>
      <point x="-183" y="-534" type="line" smooth="yes"/>
      <point x="-183" y="-633"/>
      <point x="-93" y="-687"/>
    </contour>
  </outline>
</glyph>
<glyph name="VocalicLlsmall1.te" format="2">
  <advance width="12"/>
  <unicode hex="0C63"/>
  <anchor x="112" y="-21" name="_bottom"/>
  <outline>
    <contour>
      <point x="75" y="-687" type="curve" smooth="yes"/>
      <point x="276" y="-687"/>
      <point x="376" y="-593"/>
      <point x="376" y="-415" type="curve" smooth="yes"/>
      <point x="376" y="-345" type="line" smooth="yes"/>
      <point x="376" y="-207"/>
      <point x="312" y="-128"/>
      <point x="195" y="-128" type="curve"/>
      <point x="190" y="-117" type="line"/>
      <point x="185" y="-149" type="line"/>
      <point x="189" y="-149" type="line" smooth="yes"/>
      <point x="288" y="-149"/>
      <point x="344" y="-218"/>
      <point x="342" y="-346" type="curve" smooth="yes"/>
      <point x="341" y="-415" type="line" smooth="yes"/>
      <point x="339" y="-573"/>
      <point x="256" y="-655"/>
      <point x="75" y="-655" type="curve" smooth="yes"/>
      <point x="-69" y="-655"/>
      <point x="-148" y="-612"/>
      <point x="-148" y="-534" type="curve" smooth="yes"/>
      <point x="-148" y="-530" type="line" smooth="yes"/>
      <point x="-148" y="-473"/>
      <point x="-113" y="-439"/>
      <point x="-6" y="-399" type="curve" smooth="yes"/>
      <point x="109" y="-356"/>
      <point x="140" y="-312"/>
      <point x="140" y="-250" type="curve" smooth="yes"/>
      <point x="140" y="-247" type="line" smooth="yes"/>
      <point x="140" y="-164"/>
      <point x="83" y="-116"/>
      <point x="-22" y="-116" type="curve" smooth="yes"/>
      <point x="-123" y="-116"/>
      <point x="-180" y="-163"/>
      <point x="-192" y="-240" type="curve"/>
      <point x="-195" y="-240" type="line"/>
      <point x="-205" y="-163"/>
      <point x="-257" y="-116"/>
      <point x="-350" y="-116" type="curve" smooth="yes"/>
      <point x="-459" y="-116"/>
      <point x="-518" y="-172"/>
      <point x="-518" y="-277" type="curve" smooth="yes"/>
      <point x="-518" y="-282" type="line" smooth="yes"/>
      <point x="-518" y="-307"/>
      <point x="-515" y="-334"/>
      <point x="-507" y="-359" type="curve"/>
      <point x="-473" y="-359" type="line"/>
      <point x="-480" y="-332"/>
      <point x="-484" y="-305"/>
      <point x="-484" y="-281" type="curve" smooth="yes"/>
      <point x="-484" y="-278" type="line" smooth="yes"/>
      <point x="-484" y="-190"/>
      <point x="-439" y="-148"/>
      <point x="-350" y="-148" type="curve" smooth="yes"/>
      <point x="-266" y="-148"/>
      <point x="-219" y="-191"/>
      <point x="-214" y="-281" type="curve" smooth="yes"/>
      <point x="-211" y="-337" type="line"/>
      <point x="-176" y="-337" type="line"/>
      <point x="-173" y="-281" type="line" smooth="yes"/>
      <point x="-168" y="-191"/>
      <point x="-117" y="-148"/>
      <point x="-23" y="-148" type="curve" smooth="yes"/>
      <point x="62" y="-148"/>
      <point x="105" y="-184"/>
      <point x="105" y="-247" type="curve" smooth="yes"/>
      <point x="105" y="-250" type="line" smooth="yes"/>
      <point x="105" y="-295"/>
      <point x="83" y="-331"/>
      <point x="-25" y="-372" type="curve" smooth="yes"/>
      <point x="-147" y="-418"/>
      <point x="-183" y="-460"/>
      <point x="-183" y="-530" type="curve" smooth="yes"/>
      <point x="-183" y="-534" type="line" smooth="yes"/>
      <point x="-183" y="-633"/>
      <point x="-93" y="-687"/>
    </contour>
    <contour>
      <point x="642" y="-588" type="curve" smooth="yes"/>
      <point x="737" y="-588"/>
      <point x="790" y="-524"/>
      <point x="790" y="-413" type="curve" smooth="yes"/>
      <point x="790" y="-341" type="line" smooth="yes"/>
      <point x="790" y="-191"/>
      <point x="702" y="-117"/>
      <point x="552" y="-117" type="curve" smooth="yes"/>
      <point x="190" y="-117" type="line"/>
      <point x="192" y="-141" type="line"/>
      <point x="350" y="-149" type="line"/>
      <point x="551" y="-149" type="line" smooth="yes"/>
      <point x="681" y="-149"/>
      <point x="757" y="-212"/>
      <point x="757" y="-339" type="curve" smooth="yes"/>
      <point x="757" y="-345" type="line"/>
      <point x="755" y="-345" type="line"/>
      <point x="757" y="-358" type="line"/>
      <point x="757" y="-412" type="line" smooth="yes"/>
      <point x="757" y="-505"/>
      <point x="717" y="-556"/>
      <point x="643" y="-556" type="curve" smooth="yes"/>
      <point x="568" y="-556"/>
      <point x="527" y="-512"/>
      <point x="527" y="-433" type="curve" smooth="yes"/>
      <point x="527" y="-428" type="line" smooth="yes"/>
      <point x="527" y="-343"/>
      <point x="570" y="-308"/>
      <point x="637" y="-308" type="curve" smooth="yes"/>
      <point x="696" y="-308"/>
      <point x="737" y="-333"/>
      <point x="762" y="-386" type="curve"/>
      <point x="767" y="-359" type="line"/>
      <point x="748" y="-310"/>
      <point x="703" y="-276"/>
      <point x="636" y="-276" type="curve" smooth="yes"/>
      <point x="550" y="-276"/>
      <point x="493" y="-326"/>
      <point x="493" y="-427" type="curve" smooth="yes"/>
      <point x="493" y="-434" type="line" smooth="yes"/>
      <point x="493" y="-532"/>
      <point x="546" y="-588"/>
    </contour>
  </outline>
</glyph>
<glyph name="zero.te" format="2">
  <advance width="1209"/>
  <unicode hex="0C66"/>
  <outline>
    <contour>
      <point x="604" y="-19" type="curve" smooth="yes"/>
      <point x="907" y="-19"/>
      <point x="1065" y="152"/>
      <point x="1065" y="485" type="curve" smooth="yes"/>
      <point x="1065" y="663" type="line" smooth="yes"/>
      <point x="1065" y="992"/>
      <point x="907" y="1166"/>
      <point x="604" y="1166" type="curve" smooth="yes"/>
      <point x="301" y="1166"/>
      <point x="144" y="992"/>
      <point x="144" y="663" type="curve" smooth="yes"/>
      <point x="144" y="485" type="line" smooth="yes"/>
      <point x="144" y="152"/>
      <point x="301" y="-19"/>
    </contour>
    <contour>
      <point x="604" y="16" type="curve" smooth="yes"/>
      <point x="326" y="16"/>
      <point x="182" y="173"/>
      <point x="182" y="485" type="curve" smooth="yes"/>
      <point x="182" y="663" type="line" smooth="yes"/>
      <point x="182" y="971"/>
      <point x="326" y="1132"/>
      <point x="604" y="1132" type="curve" smooth="yes"/>
      <point x="882" y="1132"/>
      <point x="1027" y="971"/>
      <point x="1027" y="663" type="curve" smooth="yes"/>
      <point x="1027" y="485" type="line" smooth="yes"/>
      <point x="1027" y="173"/>
      <point x="882" y="16"/>
    </contour>
  </outline>
</glyph>
<glyph name="one.te" format="2">
  <advance width="1164"/>
  <unicode hex="0C67"/>
  <outline>
    <contour>
      <point x="845" y="0" type="curve"/>
      <point x="887" y="0" type="line"/>
      <point x="983" y="151"/>
      <point x="1020" y="284"/>
      <point x="1020" y="462" type="curve" smooth="yes"/>
      <point x="1020" y="698" type="line" smooth="yes"/>
      <point x="1020" y="1013"/>
      <point x="860" y="1177"/>
      <point x="582" y="1177" type="curve" smooth="yes"/>
      <point x="305" y="1177"/>
      <point x="144" y="1013"/>
      <point x="144" y="698" type="curve" smooth="yes"/>
      <point x="144" y="462" type="line" smooth="yes"/>
      <point x="144" y="284"/>
      <point x="181" y="151"/>
      <point x="277" y="0" type="curve"/>
      <point x="319" y="0" type="line"/>
      <point x="219" y="155"/>
      <point x="182" y="291"/>
      <point x="182" y="462" type="curve" smooth="yes"/>
      <point x="182" y="698" type="line" smooth="yes"/>
      <point x="182" y="995"/>
      <point x="333" y="1142"/>
      <point x="582" y="1142" type="curve" smooth="yes"/>
      <point x="832" y="1142"/>
      <point x="982" y="995"/>
      <point x="982" y="698" type="curve" smooth="yes"/>
      <point x="982" y="462" type="line" smooth="yes"/>
      <point x="982" y="291"/>
      <point x="945" y="155"/>
    </contour>
  </outline>
</glyph>
<glyph name="two.te" format="2">
  <advance width="1229"/>
  <unicode hex="0C68"/>
  <outline>
    <contour>
      <point x="50" y="0" type="line"/>
      <point x="501" y="0" type="line" smooth="yes"/>
      <point x="896" y="0"/>
      <point x="1085" y="178"/>
      <point x="1085" y="505" type="curve" smooth="yes"/>
      <point x="1085" y="709" type="line" smooth="yes"/>
      <point x="1085" y="1013"/>
      <point x="927" y="1164"/>
      <point x="636" y="1164" type="curve" smooth="yes"/>
      <point x="404" y="1164"/>
      <point x="254" y="1045"/>
      <point x="254" y="820" type="curve" smooth="yes"/>
      <point x="254" y="790" type="line" smooth="yes"/>
      <point x="254" y="604"/>
      <point x="353" y="498"/>
      <point x="542" y="498" type="curve" smooth="yes"/>
      <point x="731" y="498"/>
      <point x="819" y="607"/>
      <point x="819" y="790" type="curve" smooth="yes"/>
      <point x="819" y="826" type="line" smooth="yes"/>
      <point x="819" y="945"/>
      <point x="775" y="1055"/>
      <point x="669" y="1127" type="curve"/>
      <point x="673" y="1150" type="line"/>
      <point x="613" y="1133" type="line"/>
      <point x="746" y="1052"/>
      <point x="781" y="943"/>
      <point x="781" y="825" type="curve" smooth="yes"/>
      <point x="781" y="790" type="line" smooth="yes"/>
      <point x="781" y="620"/>
      <point x="702" y="533"/>
      <point x="542" y="533" type="curve" smooth="yes"/>
      <point x="382" y="533"/>
      <point x="292" y="617"/>
      <point x="292" y="790" type="curve" smooth="yes"/>
      <point x="292" y="820" type="line" smooth="yes"/>
      <point x="292" y="1020"/>
      <point x="419" y="1130"/>
      <point x="636" y="1130" type="curve" smooth="yes"/>
      <point x="912" y="1130"/>
      <point x="1047" y="990"/>
      <point x="1047" y="709" type="curve" smooth="yes"/>
      <point x="1047" y="505" type="line" smooth="yes"/>
      <point x="1047" y="203"/>
      <point x="875" y="35"/>
      <point x="502" y="35" type="curve" smooth="yes"/>
      <point x="44" y="35" type="line"/>
    </contour>
  </outline>
</glyph>
<glyph name="three.te" format="2">
  <advance width="922"/>
  <unicode hex="0C69"/>
  <outline>
    <contour>
      <point x="447" y="-17" type="curve" smooth="yes"/>
      <point x="675" y="-17"/>
      <point x="796" y="89"/>
      <point x="796" y="285" type="curve" smooth="yes"/>
      <point x="796" y="311" type="line" smooth="yes"/>
      <point x="796" y="488"/>
      <point x="691" y="569"/>
      <point x="549" y="582" type="curve"/>
      <point x="549" y="585" type="line"/>
      <point x="685" y="596"/>
      <point x="790" y="676"/>
      <point x="790" y="846" type="curve" smooth="yes"/>
      <point x="790" y="874" type="line" smooth="yes"/>
      <point x="790" y="1066"/>
      <point x="668" y="1164"/>
      <point x="445" y="1164" type="curve" smooth="yes"/>
      <point x="298" y="1164"/>
      <point x="197" y="1125"/>
      <point x="121" y="1078" type="curve"/>
      <point x="115" y="1031" type="line"/>
      <point x="198" y="1090"/>
      <point x="312" y="1129"/>
      <point x="444" y="1129" type="curve" smooth="yes"/>
      <point x="645" y="1129"/>
      <point x="752" y="1046"/>
      <point x="752" y="873" type="curve" smooth="yes"/>
      <point x="752" y="846" type="line" smooth="yes"/>
      <point x="752" y="692"/>
      <point x="656" y="605"/>
      <point x="482" y="603" type="curve" smooth="yes"/>
      <point x="307" y="601" type="line"/>
      <point x="307" y="566" type="line"/>
      <point x="482" y="564" type="line" smooth="yes"/>
      <point x="660" y="562"/>
      <point x="758" y="472"/>
      <point x="758" y="311" type="curve" smooth="yes"/>
      <point x="758" y="286" type="line" smooth="yes"/>
      <point x="758" y="110"/>
      <point x="651" y="18"/>
      <point x="446" y="18" type="curve" smooth="yes"/>
      <point x="300" y="18"/>
      <point x="191" y="62"/>
      <point x="101" y="139" type="curve"/>
      <point x="106" y="89" type="line"/>
      <point x="187" y="27"/>
      <point x="292" y="-17"/>
    </contour>
  </outline>
</glyph>
<glyph name="four.te" format="2">
  <advance width="1180"/>
  <unicode hex="0C6A"/>
  <outline>
    <contour>
      <point x="526" y="405" type="curve"/>
      <point x="590" y="406" type="line"/>
      <point x="650" y="405" type="line"/>
      <point x="956" y="422"/>
      <point x="1064" y="580"/>
      <point x="1064" y="777" type="curve" smooth="yes"/>
      <point x="1064" y="851" type="line" smooth="yes"/>
      <point x="1064" y="1047"/>
      <point x="949" y="1155"/>
      <point x="782" y="1155" type="curve" smooth="yes"/>
      <point x="771" y="1155" type="line"/>
      <point x="766" y="1120" type="line"/>
      <point x="773" y="1120" type="line" smooth="yes"/>
      <point x="928" y="1120"/>
      <point x="1026" y="1030"/>
      <point x="1026" y="850" type="curve" smooth="yes"/>
      <point x="1026" y="779" type="line" smooth="yes"/>
      <point x="1026" y="582"/>
      <point x="915" y="434"/>
      <point x="590" y="434" type="curve" smooth="yes"/>
      <point x="263" y="434"/>
      <point x="154" y="582"/>
      <point x="154" y="779" type="curve" smooth="yes"/>
      <point x="154" y="850" type="line" smooth="yes"/>
      <point x="154" y="1030"/>
      <point x="251" y="1120"/>
      <point x="408" y="1120" type="curve" smooth="yes"/>
      <point x="414" y="1120" type="line"/>
      <point x="409" y="1155" type="line"/>
      <point x="398" y="1155" type="line" smooth="yes"/>
      <point x="231" y="1155"/>
      <point x="116" y="1047"/>
      <point x="116" y="851" type="curve" smooth="yes"/>
      <point x="116" y="777" type="line" smooth="yes"/>
      <point x="116" y="581"/>
      <point x="224" y="422"/>
    </contour>
    <contour>
      <point x="591" y="-23" type="curve" smooth="yes"/>
      <point x="790" y="-23"/>
      <point x="874" y="71"/>
      <point x="874" y="199" type="curve" smooth="yes"/>
      <point x="874" y="210" type="line" smooth="yes"/>
      <point x="874" y="351"/>
      <point x="798" y="425"/>
      <point x="590" y="425" type="curve" smooth="yes"/>
      <point x="383" y="425"/>
      <point x="306" y="351"/>
      <point x="306" y="210" type="curve" smooth="yes"/>
      <point x="306" y="199" type="line" smooth="yes"/>
      <point x="306" y="71"/>
      <point x="391" y="-23"/>
    </contour>
    <contour>
      <point x="591" y="12" type="curve" smooth="yes"/>
      <point x="424" y="12"/>
      <point x="344" y="81"/>
      <point x="344" y="203" type="curve" smooth="yes"/>
      <point x="344" y="213" type="line" smooth="yes"/>
      <point x="344" y="337"/>
      <point x="426" y="400"/>
      <point x="590" y="400" type="curve" smooth="yes"/>
      <point x="755" y="400"/>
      <point x="836" y="337"/>
      <point x="836" y="213" type="curve" smooth="yes"/>
      <point x="836" y="203" type="line" smooth="yes"/>
      <point x="836" y="81"/>
      <point x="757" y="12"/>
    </contour>
  </outline>
</glyph>
<glyph name="five.te" format="2">
  <advance width="1461"/>
  <unicode hex="0C6B"/>
  <outline>
    <contour>
      <point x="162" y="-11" type="line"/>
      <point x="200" y="-11" type="line"/>
      <point x="200" y="24" type="line" smooth="yes"/>
      <point x="200" y="179"/>
      <point x="346" y="258"/>
      <point x="501" y="324" type="curve" smooth="yes"/>
      <point x="781" y="443" type="line" smooth="yes"/>
      <point x="886" y="488"/>
      <point x="970" y="512"/>
      <point x="1043" y="512" type="curve" smooth="yes"/>
      <point x="1048" y="512" type="line" smooth="yes"/>
      <point x="1191" y="512"/>
      <point x="1258" y="443"/>
      <point x="1258" y="299" type="curve" smooth="yes"/>
      <point x="1258" y="184" type="line" smooth="yes"/>
      <point x="1258" y="115"/>
      <point x="1264" y="60"/>
      <point x="1294" y="-11" type="curve"/>
      <point x="1334" y="-11" type="line"/>
      <point x="1301" y="56"/>
      <point x="1294" y="115"/>
      <point x="1294" y="185" type="curve" smooth="yes"/>
      <point x="1294" y="300" type="line" smooth="yes"/>
      <point x="1294" y="467"/>
      <point x="1208" y="545"/>
      <point x="1046" y="545" type="curve" smooth="yes"/>
      <point x="1041" y="545" type="line" smooth="yes"/>
      <point x="958" y="545"/>
      <point x="864" y="514"/>
      <point x="767" y="473" type="curve" smooth="yes"/>
      <point x="484" y="354" type="line" smooth="yes"/>
      <point x="306" y="279"/>
      <point x="162" y="184"/>
      <point x="162" y="26" type="curve" smooth="yes"/>
    </contour>
    <contour>
      <point x="468" y="336" type="curve"/>
      <point x="511" y="349" type="line"/>
      <point x="540" y="436"/>
      <point x="554" y="520"/>
      <point x="554" y="614" type="curve" smooth="yes"/>
      <point x="554" y="834" type="line" smooth="yes"/>
      <point x="554" y="1058"/>
      <point x="471" y="1166"/>
      <point x="299" y="1166" type="curve" smooth="yes"/>
      <point x="227" y="1166"/>
      <point x="158" y="1144"/>
      <point x="106" y="1110" type="curve"/>
      <point x="100" y="1063" type="line"/>
      <point x="160" y="1108"/>
      <point x="228" y="1131"/>
      <point x="299" y="1131" type="curve" smooth="yes"/>
      <point x="452" y="1131"/>
      <point x="516" y="1032"/>
      <point x="516" y="833" type="curve" smooth="yes"/>
      <point x="516" y="615" type="line" smooth="yes"/>
      <point x="516" y="527"/>
      <point x="503" y="434"/>
    </contour>
    <contour>
      <point x="906" y="510" type="curve"/>
      <point x="945" y="519" type="line"/>
      <point x="849" y="589"/>
      <point x="811" y="681"/>
      <point x="811" y="794" type="curve" smooth="yes"/>
      <point x="811" y="879" type="line" smooth="yes"/>
      <point x="811" y="1039"/>
      <point x="891" y="1131"/>
      <point x="1047" y="1131" type="curve" smooth="yes"/>
      <point x="1203" y="1131"/>
      <point x="1283" y="1039"/>
      <point x="1283" y="879" type="curve" smooth="yes"/>
      <point x="1283" y="794" type="line" smooth="yes"/>
      <point x="1283" y="679"/>
      <point x="1246" y="586"/>
      <point x="1149" y="515" type="curve"/>
      <point x="1186" y="507" type="line"/>
      <point x="1280" y="577"/>
      <point x="1321" y="670"/>
      <point x="1321" y="793" type="curve" smooth="yes"/>
      <point x="1321" y="880" type="line" smooth="yes"/>
      <point x="1321" y="1065"/>
      <point x="1220" y="1166"/>
      <point x="1047" y="1166" type="curve" smooth="yes"/>
      <point x="874" y="1166"/>
      <point x="773" y="1065"/>
      <point x="773" y="880" type="curve" smooth="yes"/>
      <point x="773" y="793" type="line" smooth="yes"/>
      <point x="773" y="671"/>
      <point x="815" y="579"/>
    </contour>
  </outline>
</glyph>
<glyph name="six.te" format="2">
  <advance width="1191"/>
  <unicode hex="0C6C"/>
  <outline>
    <contour>
      <point x="480" y="0" type="curve" smooth="yes"/>
      <point x="1135" y="0" type="line"/>
      <point x="1135" y="35" type="line"/>
      <point x="480" y="35" type="line" smooth="yes"/>
      <point x="267" y="35"/>
      <point x="164" y="115"/>
      <point x="164" y="286" type="curve" smooth="yes"/>
      <point x="164" y="312" type="line" smooth="yes"/>
      <point x="164" y="472"/>
      <point x="276" y="560"/>
      <point x="450" y="560" type="curve" smooth="yes"/>
      <point x="816" y="560" type="line"/>
      <point x="816" y="595" type="line"/>
      <point x="450" y="595" type="line" smooth="yes"/>
      <point x="278" y="595"/>
      <point x="171" y="679"/>
      <point x="171" y="843" type="curve" smooth="yes"/>
      <point x="171" y="871" type="line" smooth="yes"/>
      <point x="171" y="1038"/>
      <point x="274" y="1120"/>
      <point x="480" y="1120" type="curve" smooth="yes"/>
      <point x="635" y="1120" type="line"/>
      <point x="630" y="1155" type="line"/>
      <point x="480" y="1155" type="line" smooth="yes"/>
      <point x="249" y="1155"/>
      <point x="133" y="1058"/>
      <point x="133" y="871" type="curve" smooth="yes"/>
      <point x="133" y="841" type="line" smooth="yes"/>
      <point x="133" y="679"/>
      <point x="226" y="600"/>
      <point x="370" y="579" type="curve"/>
      <point x="370" y="576" type="line"/>
      <point x="224" y="560"/>
      <point x="126" y="472"/>
      <point x="126" y="314" type="curve" smooth="yes"/>
      <point x="126" y="285" type="line" smooth="yes"/>
      <point x="126" y="95"/>
      <point x="242" y="0"/>
    </contour>
  </outline>
</glyph>
<glyph name="seven.te" format="2">
  <advance width="1074"/>
  <unicode hex="0C6D"/>
  <outline>
    <contour>
      <point x="960" y="109" type="curve"/>
      <point x="964" y="158" type="line"/>
      <point x="876" y="83"/>
      <point x="735" y="17"/>
      <point x="538" y="17" type="curve" smooth="yes"/>
      <point x="293" y="17"/>
      <point x="170" y="111"/>
      <point x="170" y="274" type="curve" smooth="yes"/>
      <point x="170" y="276" type="line" smooth="yes"/>
      <point x="170" y="435"/>
      <point x="260" y="498"/>
      <point x="550" y="587" type="curve" smooth="yes"/>
      <point x="840" y="676"/>
      <point x="926" y="761"/>
      <point x="926" y="897" type="curve" smooth="yes"/>
      <point x="926" y="899" type="line" smooth="yes"/>
      <point x="926" y="1065"/>
      <point x="818" y="1166"/>
      <point x="561" y="1166" type="curve" smooth="yes"/>
      <point x="392" y="1166"/>
      <point x="257" y="1117"/>
      <point x="168" y="1062" type="curve"/>
      <point x="163" y="1015" type="line"/>
      <point x="265" y="1081"/>
      <point x="404" y="1131"/>
      <point x="561" y="1131" type="curve" smooth="yes"/>
      <point x="798" y="1131"/>
      <point x="888" y="1040"/>
      <point x="888" y="899" type="curve" smooth="yes"/>
      <point x="888" y="897" type="line" smooth="yes"/>
      <point x="888" y="777"/>
      <point x="836" y="713"/>
      <point x="531" y="618" type="curve" smooth="yes"/>
      <point x="226" y="523"/>
      <point x="132" y="451"/>
      <point x="132" y="276" type="curve" smooth="yes"/>
      <point x="132" y="274" type="line" smooth="yes"/>
      <point x="132" y="89"/>
      <point x="270" y="-18"/>
      <point x="538" y="-18" type="curve" smooth="yes"/>
      <point x="743" y="-18"/>
      <point x="883" y="49"/>
    </contour>
  </outline>
</glyph>
<glyph name="eight.te" format="2">
  <advance width="1167"/>
  <unicode hex="0C6E"/>
  <outline>
    <contour>
      <point x="582" y="-18" type="curve" smooth="yes"/>
      <point x="870" y="-18"/>
      <point x="1019" y="164"/>
      <point x="1019" y="456" type="curve" smooth="yes"/>
      <point x="1019" y="706" type="line" smooth="yes"/>
      <point x="1019" y="898"/>
      <point x="969" y="1031"/>
      <point x="864" y="1123" type="curve"/>
      <point x="864" y="1126" type="line"/>
      <point x="1080" y="1126" type="line"/>
      <point x="1074" y="1161" type="line"/>
      <point x="750" y="1155" type="line"/>
      <point x="750" y="1125" type="line"/>
      <point x="826" y="1121" type="line"/>
      <point x="943" y="1018"/>
      <point x="981" y="886"/>
      <point x="981" y="707" type="curve" smooth="yes"/>
      <point x="981" y="456" type="line" smooth="yes"/>
      <point x="981" y="180"/>
      <point x="840" y="17"/>
      <point x="582" y="17" type="curve" smooth="yes"/>
      <point x="323" y="17"/>
      <point x="182" y="180"/>
      <point x="182" y="456" type="curve" smooth="yes"/>
      <point x="182" y="704" type="line" smooth="yes"/>
      <point x="182" y="871"/>
      <point x="219" y="1002"/>
      <point x="321" y="1155" type="curve"/>
      <point x="277" y="1155" type="line"/>
      <point x="181" y="1007"/>
      <point x="144" y="877"/>
      <point x="144" y="702" type="curve" smooth="yes"/>
      <point x="144" y="456" type="line" smooth="yes"/>
      <point x="144" y="164"/>
      <point x="293" y="-18"/>
    </contour>
  </outline>
</glyph>
<glyph name="trademark" format="2">
  <advance width="1229"/>
  <unicode hex="2122"/>
  <outline>
    <contour>
      <point x="228" y="639" type="line"/>
      <point x="264" y="639" type="line"/>
      <point x="264" y="1276" type="line"/>
      <point x="228" y="1276" type="line"/>
    </contour>
    <contour>
      <point x="35" y="1247" type="line"/>
      <point x="457" y="1247" type="line"/>
      <point x="457" y="1278" type="line"/>
      <point x="35" y="1278" type="line"/>
    </contour>
    <contour>
      <point x="574" y="639" type="line"/>
      <point x="609" y="639" type="line"/>
      <point x="621" y="945" type="line"/>
      <point x="632" y="1242" type="line"/>
      <point x="642" y="1242" type="line"/>
      <point x="822" y="712" type="line"/>
      <point x="871" y="712" type="line"/>
      <point x="1050" y="1242" type="line"/>
      <point x="1061" y="1242" type="line"/>
      <point x="1072" y="945" type="line"/>
      <point x="1084" y="639" type="line"/>
      <point x="1119" y="639" type="line"/>
      <point x="1093" y="1278" type="line"/>
      <point x="1029" y="1278" type="line"/>
      <point x="850" y="747" type="line"/>
      <point x="843" y="747" type="line"/>
      <point x="664" y="1278" type="line"/>
      <point x="600" y="1278" type="line"/>
    </contour>
  </outline>
</glyph>
<glyph name="BaHalant.te" format="2">
  <advance width="1475"/>
  <anchor x="730" y="-69" name="bottom"/>
  <outline>
    <contour>
      <point x="434" y="-17" type="curve" smooth="yes"/>
      <point x="621" y="-17"/>
      <point x="716" y="86"/>
      <point x="727" y="245" type="curve"/>
      <point x="730" y="245" type="line"/>
      <point x="741" y="86"/>
      <point x="834" y="-17"/>
      <point x="1015" y="-17" type="curve" smooth="yes"/>
      <point x="1215" y="-17"/>
      <point x="1321" y="113"/>
      <point x="1321" y="367" type="curve" smooth="yes"/>
      <point x="1321" y="593" type="line"/>
      <point x="1283" y="593" type="line"/>
      <point x="1283" y="369" type="line" smooth="yes"/>
      <point x="1283" y="143"/>
      <point x="1197" y="18"/>
      <point x="1013" y="18" type="curve" smooth="yes"/>
      <point x="844" y="18"/>
      <point x="753" y="120"/>
      <point x="750" y="308" type="curve" smooth="yes"/>
      <point x="748" y="434" type="line"/>
      <point x="709" y="434" type="line"/>
      <point x="707" y="308" type="line" smooth="yes"/>
      <point x="704" y="120"/>
      <point x="612" y="18"/>
      <point x="436" y="18" type="curve" smooth="yes"/>
      <point x="260" y="18"/>
      <point x="174" y="114"/>
      <point x="174" y="261" type="curve" smooth="yes"/>
      <point x="174" y="263" type="line" smooth="yes"/>
      <point x="174" y="403"/>
      <point x="220" y="486"/>
      <point x="442" y="594" type="curve" smooth="yes"/>
      <point x="637" y="689"/>
      <point x="710" y="765"/>
      <point x="710" y="915" type="curve" smooth="yes"/>
      <point x="710" y="920" type="line" smooth="yes"/>
      <point x="710" y="1077"/>
      <point x="612" y="1166"/>
      <point x="431" y="1166" type="curve" smooth="yes"/>
      <point x="246" y="1166"/>
      <point x="146" y="1074"/>
      <point x="146" y="902" type="curve" smooth="yes"/>
      <point x="146" y="894" type="line" smooth="yes"/>
      <point x="146" y="819"/>
      <point x="161" y="755"/>
      <point x="188" y="691" type="curve"/>
      <point x="228" y="691" type="line"/>
      <point x="199" y="756"/>
      <point x="184" y="824"/>
      <point x="184" y="893" type="curve" smooth="yes"/>
      <point x="184" y="901" type="line" smooth="yes"/>
      <point x="184" y="1052"/>
      <point x="269" y="1131"/>
      <point x="431" y="1131" type="curve" smooth="yes"/>
      <point x="589" y="1131"/>
      <point x="672" y="1054"/>
      <point x="672" y="920" type="curve" smooth="yes"/>
      <point x="672" y="915" type="line" smooth="yes"/>
      <point x="672" y="783"/>
      <point x="612" y="716"/>
      <point x="415" y="620" type="curve" smooth="yes"/>
      <point x="208" y="519"/>
      <point x="136" y="433"/>
      <point x="136" y="263" type="curve" smooth="yes"/>
      <point x="136" y="260" type="line" smooth="yes"/>
      <point x="136" y="88"/>
      <point x="243" y="-17"/>
    </contour>
    <contour>
      <point x="1003" y="1118" type="curve" smooth="yes"/>
      <point x="1189" y="1074"/>
      <point x="1283" y="960"/>
      <point x="1283" y="705" type="curve" smooth="yes"/>
      <point x="1283" y="495" type="line"/>
      <point x="1321" y="495" type="line"/>
      <point x="1321" y="706" type="line" smooth="yes"/>
      <point x="1321" y="977"/>
      <point x="1214" y="1100"/>
      <point x="1015" y="1149" type="curve" smooth="yes"/>
      <point x="847" y="1191"/>
      <point x="787" y="1219"/>
      <point x="787" y="1295" type="curve" smooth="yes"/>
      <point x="787" y="1364"/>
      <point x="843" y="1401"/>
      <point x="951" y="1401" type="curve" smooth="yes"/>
      <point x="1286" y="1401" type="line"/>
      <point x="1286" y="1435" type="line"/>
      <point x="946" y="1435" type="line" smooth="yes"/>
      <point x="835" y="1435"/>
      <point x="765" y="1471"/>
      <point x="765" y="1564" type="curve" smooth="yes"/>
      <point x="765" y="1655"/>
      <point x="832" y="1691"/>
      <point x="946" y="1691" type="curve" smooth="yes"/>
      <point x="1483" y="1691" type="line"/>
      <point x="1478" y="1726" type="line"/>
      <point x="946" y="1726" type="line" smooth="yes"/>
      <point x="808" y="1726"/>
      <point x="727" y="1678"/>
      <point x="727" y="1564" type="curve" smooth="yes"/>
      <point x="727" y="1478"/>
      <point x="782" y="1430"/>
      <point x="867" y="1419" type="curve"/>
      <point x="867" y="1416" type="line"/>
      <point x="798" y="1405"/>
      <point x="749" y="1366"/>
      <point x="749" y="1295" type="curve" smooth="yes"/>
      <point x="749" y="1202"/>
      <point x="821" y="1161"/>
    </contour>
  </outline>
</glyph>
